<?xml version="1.0" encoding="UTF-8"?>
<svg id="_圖層_2" data-name="圖層 2" xmlns="http://www.w3.org/2000/svg" xmlns:xlink="http://www.w3.org/1999/xlink" viewBox="0 0 159.1 136.42">
  <defs>
    <style>
      .cls-1, .cls-2 {
        fill: #fff;
      }

      .cls-3 {
        fill: #005694;
      }

      .cls-3, .cls-2 {
        fill-rule: evenodd;
      }

      .cls-4 {
        clip-path: url(#clippath-1);
      }

      .cls-5 {
        clip-path: url(#clippath);
      }

      .cls-6 {
        clip-rule: evenodd;
        fill: none;
      }

      .cls-7 {
        fill: url(#_未命名漸層_6);
      }

      .cls-8 {
        fill: url(#_未命名漸層_6-2);
      }
    </style>
    <clipPath id="clippath">
      <path class="cls-6" d="M42.95,11.59s6.7-1.56,11.35-3.03c1.16-.48,2.36-.97,3.6-1.46h0s0,0,0,0c14.91-5.93,34.33-11.81,50.14-1.3,14.58,8.43,5.81,15.84-5.96,21.72-10.57-5.09-22.44-3.85-33.27-.8l-25.85-15.12Z"/>
    </clipPath>
    <linearGradient id="_未命名漸層_6" data-name="未命名漸層 6" x1="3882.03" y1="-3984.63" x2="3882.84" y2="-3984.63" gradientTransform="translate(249113.17 283065.67) rotate(-90) scale(72.91 62.5)" gradientUnits="userSpaceOnUse">
      <stop offset="0" stop-color="#005694"/>
      <stop offset="1" stop-color="#008cd6"/>
    </linearGradient>
    <clipPath id="clippath-1">
      <polygon class="cls-6" points="41.28 17.12 41.28 42.27 83.87 67.07 83.87 42.43 41.28 17.12"/>
    </clipPath>
    <linearGradient id="_未命名漸層_6-2" data-name="未命名漸層 6" x1="3848.27" y1="-3982.68" x2="3849.07" y2="-3982.68" gradientTransform="translate(251241.11 248951.45) rotate(-90) scale(64.67 63.07)" xlink:href="#_未命名漸層_6"/>
  </defs>
  <g id="_圖層_1-2" data-name="圖層 1">
    <g>
      <path class="cls-3" d="M117.75,21.88l.07,28.67-27.2,16.99v-24.35c8.6-9.47,26.52-11.29,27.13-21.32"/>
      <g class="cls-5">
        <rect class="cls-7" x="47.27" y="-30.69" width="71.01" height="84.16" transform="translate(27.38 73.95) rotate(-56.31)"/>
      </g>
      <g class="cls-4">
        <rect class="cls-8" x="31.02" y="9.51" width="63.12" height="65.17" transform="translate(-12.84 41.65) rotate(-33.59)"/>
      </g>
    </g>
    <g>
      <path class="cls-1" d="M137.97,98.45h-4v5.37h4.06v2.98h-4.06v9.36c0,1.61-.23,2.67-.69,3.19-.48,.54-1.56,.82-3.26,.82h-2.68l-.78-3.43,2.95,.1c.75,0,1.12-.38,1.12-1.12v-5.63h0v-3.29h-5.02v-2.98h5.02v-2.47h0v-2.9h-5.02v-3.09h5.02v-6.96h3.37v6.96h4v-2.17h7.3v-4.79h3.36v4.79h8.01v3.09h-8.01v4.55h6.86v2.82c-.3,1.22-1.04,2.82-2.24,4.79-1.18,1.96-2.41,3.52-3.7,4.65,2.27,1.86,4.82,3.18,7.68,3.97l-1.73,3.19c-2.99-.97-5.79-2.66-8.42-5.06-3.58,2.73-6.99,4.44-10.25,5.12l-1.87-3.09c3.26-.72,6.52-2.18,9.77-4.38-1.74-1.76-4.5-5.83-6.18-8.89l2.82-1.12c1.56,2.76,4.18,6.58,5.74,8.15,2.31-1.83,3.95-4.18,4.92-7.03h-13.48v-3.12h6.72v-4.55h-7.3l-.03,2.17Z"/>
      <path class="cls-1" d="M22.21,99.75c.52,2.76,1.74,5.66,3.67,8.69,1.92,3.04,4.57,5.66,7.94,7.88l-2.61,3.12c-6.11-4.01-10.3-10.57-12.56-19.69h-.54c-1.52,8.17-6.08,14.76-13.68,19.76l-2.58-3.23c3.22-1.84,5.98-4.25,8.28-7.23,2.28-2.99,3.7-6.08,4.24-9.27H2.66v-3.6H14.95c.3-2.06,.44-4.9,.44-8.52h3.56c0,3.89-.09,6.73-.27,8.52h14.39v3.6l-10.86-.03Z"/>
      <path class="cls-2" d="M100.98,99.28h7.13v2.98h-7.13v-2.98Zm-2.33,12.73v-3.16l11.37-1.7v-19.52h3.16v19.15l3.05-.51v3.09l-3.05,.51v9.74h-3.16v-9.33l-11.37,1.73Zm-7.89-19.45c-1.2,.23-2.95,.42-5.26,.58l-.71-2.85c5.07-.25,9.43-1.07,13.07-2.44l1.15,2.78c-1.63,.57-3.34,1.03-5.13,1.39v4.79h5.16v2.91h-5.16v.31c2.54,2.35,4.45,4.23,5.74,5.64l-1.9,2.92c-.68-.95-1.36-1.81-2.03-2.58-.59-.7-1.19-1.46-1.8-2.27v15.75l-3.12,.13v-13.95c-.86,2.17-2.4,4.7-4.62,7.6l-1.9-3.05c2.85-3.24,4.99-6.73,6.41-10.49h-6.21v-2.91h6.32v-4.25Zm10.22-.1h7.13v2.98h-7.13v-2.98Z"/>
      <path class="cls-2" d="M54.46,106.27v5.2h-2.68v-5.2h2.68Zm17.11,2.59v-1.67h-3.77v1.67h3.77Zm0,3.7v-1.83h-3.77v1.83h3.77Zm-6.25,0v-1.83h-3.46v1.83h3.46Zm0-3.7v-1.67h-3.46v1.67h3.46Zm5.82-11.07v-1.49h-3.33v1.49h3.33Zm0,3.84v-1.73h-3.33v1.73h3.33Zm-12.23-3.84h6.41v-1.49h-5.26v-2h5.26v-1.49h-6.41v4.99Zm-4.72,18.13c-2.99,1.22-6.55,2.14-10.69,2.75l-.37-2.99c2.13-.23,3.78-.48,4.95-.75v-10.65h-4.48v-2.65h4.48v-2.99h-3.87v-.31s-1.19-3.19-1.19-3.19c2.33-1.83,4.12-4.28,5.36-7.33h2.34c1.7,1.78,3.29,3.82,4.76,6.11l-2.38,1.9c-1.07-1.97-2.13-3.64-3.19-5.03-.79,1.56-1.97,3.3-3.53,5.2h7.5v2.65h-3.12v2.99h3.94v2.65h-3.94v10.05c1.7-.43,3.11-.82,4.25-1.15,.83-3.04,1.25-7.58,1.25-13.65v-9.23h8.15c-.45-1.04-.81-1.8-1.05-2.28l2.72-.38c.34,.64,.75,1.52,1.22,2.65h7.6v2.51h-7.09v1.49h5.7v3.49h1.53v2.11h-1.53v3.77h-5.7v1.46h6.14v10.25c0,1.4-.18,2.38-.54,2.92-.3,.47-.9,.74-1.8,.82v-4.66h-3.77v4.82h-2.48v-4.82h-3.46v5.16h-2.38v-14.5h5.84v-1.46h-5.26v-2.03h5.26v-1.73h-6.42v1.76c-.04,7.54-1.03,13.45-2.95,17.72l-2.21-2.31,.41-1.16Zm-7.14-9.64v7.13h-2.68v-7.13h2.68Z"/>
    </g>
    <g>
      <path class="cls-1" d="M0,134.09v-7.64H1.47c1.08,0,1.85,.06,2.29,.16,.44,.11,.83,.29,1.17,.55,.44,.34,.77,.77,1,1.3,.23,.53,.34,1.13,.34,1.82s-.11,1.28-.34,1.81c-.22,.52-.56,.95-1,1.29-.33,.26-.71,.44-1.14,.55-.43,.11-1.09,.16-1.99,.16H0Zm.92-.85h.58c.94,0,1.59-.04,1.95-.12,.36-.08,.66-.22,.9-.42,.31-.26,.55-.6,.71-1.01,.16-.41,.25-.89,.25-1.42s-.08-1-.24-1.41c-.16-.4-.4-.74-.72-1-.24-.2-.55-.34-.92-.43-.37-.09-1.02-.13-1.94-.13H.92v5.94Z"/>
      <path class="cls-1" d="M10.61,126.15l3.48,7.94h-.99l-.99-2.34h-2.98l-.99,2.34h-.98l3.46-7.94Zm0,2.01l-1.21,2.81h2.43l-1.22-2.81Z"/>
      <rect class="cls-1" x="15.32" y="131.3" width="2.44" height=".82"/>
      <polygon class="cls-1" points="20.89 134.09 20.89 130.59 18.31 126.45 19.36 126.45 21.35 129.76 23.34 126.45 24.39 126.45 21.8 130.59 21.8 134.09 20.89 134.09"/>
      <path class="cls-1" d="M33.39,130.28c0,.55-.1,1.06-.3,1.54-.2,.48-.5,.91-.88,1.29-.39,.38-.83,.66-1.33,.87-.5,.2-1.02,.3-1.56,.3s-1.06-.1-1.56-.3c-.5-.21-.94-.49-1.33-.87-.39-.38-.69-.81-.89-1.29-.2-.48-.3-1-.3-1.54s.1-1.06,.3-1.55c.2-.48,.5-.92,.89-1.3,.38-.37,.82-.66,1.33-.86,.5-.2,1.02-.3,1.56-.3s1.07,.1,1.57,.3c.5,.2,.95,.49,1.33,.86,.39,.38,.68,.81,.88,1.29,.2,.49,.3,1,.3,1.55m-4.08,3.15c.42,0,.82-.08,1.19-.24,.38-.16,.72-.39,1.02-.69,.3-.3,.53-.64,.68-1.02,.16-.38,.24-.78,.24-1.21s-.08-.84-.24-1.22c-.16-.39-.39-.73-.68-1.02-.3-.3-.64-.53-1.02-.68-.38-.16-.78-.24-1.2-.24s-.83,.08-1.21,.24c-.38,.16-.71,.38-1.01,.68-.3,.3-.53,.64-.68,1.03-.16,.38-.24,.79-.24,1.22s.08,.82,.23,1.2c.16,.38,.38,.72,.69,1.02,.31,.31,.65,.54,1.02,.69,.37,.16,.77,.24,1.19,.24Z"/>
      <polygon class="cls-1" points="35.51 134.09 35.51 126.15 41.1 132.25 41.1 126.45 41.96 126.45 41.96 134.39 36.37 128.35 36.37 134.09 35.51 134.09"/>
      <path class="cls-1" d="M48.62,130.15h3.15v.25c0,1.2-.34,2.15-1.02,2.85-.68,.7-1.61,1.04-2.79,1.04-.36,0-.7-.04-1.03-.11-.33-.08-.63-.19-.9-.33-.63-.34-1.11-.82-1.45-1.43-.34-.61-.51-1.3-.51-2.07,0-.64,.1-1.21,.3-1.72,.2-.51,.51-.97,.92-1.35,.34-.33,.74-.58,1.2-.74,.46-.17,.96-.25,1.51-.25,.73,0,1.37,.13,1.91,.4,.54,.27,.99,.67,1.34,1.2l-.76,.61c-.27-.46-.62-.81-1.03-1.04-.41-.23-.89-.35-1.43-.35-.89,0-1.61,.3-2.16,.9-.55,.6-.83,1.38-.83,2.35,0,.91,.28,1.66,.84,2.25,.56,.58,1.28,.88,2.15,.88,.77,0,1.4-.23,1.91-.7,.51-.46,.79-1.07,.85-1.81h-2.18v-.81Z"/>
      <polygon class="cls-1" points="57.61 134.09 57.61 127.31 55.45 127.31 55.45 126.45 60.67 126.45 60.67 127.31 58.52 127.31 58.52 134.09 57.61 134.09"/>
      <path class="cls-1" d="M65.23,131.82h-3.78v.07c0,.51,.15,.92,.44,1.24,.29,.32,.67,.47,1.14,.47,.32,0,.61-.09,.87-.26,.26-.17,.49-.43,.68-.78l.62,.42c-.24,.43-.54,.76-.92,.98-.37,.22-.8,.33-1.29,.33-.73,0-1.31-.24-1.76-.72-.45-.48-.67-1.11-.67-1.89s.22-1.36,.67-1.84c.45-.48,1.02-.71,1.72-.71s1.26,.23,1.68,.68c.41,.45,.62,1.07,.62,1.85v.16Zm-.88-.66c-.03-.42-.17-.74-.42-.97-.25-.23-.6-.34-1.03-.34-.4,0-.73,.12-.99,.36-.27,.24-.42,.56-.46,.96h2.91Z"/>
      <path class="cls-1" d="M70.75,132.96v.95c-.22,.13-.46,.22-.73,.29-.27,.06-.56,.1-.87,.1-.74,0-1.33-.23-1.78-.7-.45-.47-.68-1.08-.68-1.85s.23-1.39,.7-1.88c.47-.49,1.06-.73,1.79-.73,.26,0,.52,.03,.77,.08,.25,.06,.49,.14,.71,.25v.88c-.21-.14-.42-.24-.65-.31-.22-.07-.45-.11-.68-.11-.54,0-.97,.17-1.29,.5-.32,.33-.49,.78-.49,1.34,0,.49,.16,.9,.49,1.23,.33,.33,.73,.5,1.22,.5,.25,0,.49-.04,.73-.13,.24-.09,.48-.22,.75-.41"/>
      <path class="cls-1" d="M72.52,134.09v-8.09h.8v4.05c.2-.31,.45-.53,.74-.68,.29-.15,.62-.22,1-.22,.56,0,1,.15,1.32,.45,.32,.3,.48,.72,.48,1.25v3.25h-.83v-2.81c0-.48-.1-.84-.3-1.08-.2-.24-.52-.35-.94-.35-.24,0-.47,.04-.67,.13-.2,.09-.37,.21-.5,.38-.1,.12-.17,.27-.22,.43-.04,.16-.07,.44-.07,.84v2.47h-.81Z"/>
      <path class="cls-1" d="M79.1,134.09v-4.78h.8v.74c.2-.31,.45-.53,.74-.68,.29-.15,.62-.22,1-.22,.56,0,1,.15,1.32,.45,.32,.3,.48,.72,.48,1.25v3.25h-.83v-2.81c0-.48-.1-.84-.3-1.08-.2-.24-.52-.35-.94-.35-.24,0-.47,.04-.67,.13-.2,.09-.37,.21-.5,.38-.1,.12-.17,.27-.22,.43-.04,.16-.07,.44-.07,.84v2.47h-.81Z"/>
      <path class="cls-1" d="M85.3,131.71c0-.35,.06-.68,.19-.99,.13-.31,.32-.59,.56-.83,.25-.24,.53-.43,.84-.56,.31-.13,.65-.19,1-.19s.68,.06,.99,.19c.31,.13,.59,.32,.85,.56,.25,.24,.43,.51,.56,.83,.13,.31,.19,.64,.19,.99s-.06,.68-.19,.99c-.13,.31-.32,.58-.56,.82-.25,.25-.54,.44-.85,.58-.32,.13-.64,.2-.98,.2s-.69-.07-1-.2c-.32-.13-.59-.32-.84-.56-.25-.25-.43-.53-.56-.84-.13-.31-.19-.63-.19-.99m.87,0c0,.5,.17,.93,.51,1.28,.34,.35,.75,.53,1.23,.53s.88-.17,1.22-.53c.33-.35,.5-.78,.5-1.28s-.17-.93-.5-1.28c-.33-.35-.74-.53-1.22-.53s-.89,.17-1.23,.53c-.34,.35-.5,.78-.5,1.28Z"/>
      <rect class="cls-1" x="92.44" y="126" width=".83" height="8.09"/>
      <path class="cls-1" d="M95.23,131.71c0-.35,.06-.68,.19-.99,.13-.31,.32-.59,.56-.83,.25-.24,.53-.43,.84-.56,.31-.13,.65-.19,1-.19s.68,.06,.99,.19c.31,.13,.59,.32,.85,.56,.25,.24,.43,.51,.56,.83,.13,.31,.19,.64,.19,.99s-.06,.68-.19,.99c-.13,.31-.32,.58-.56,.82-.25,.25-.54,.44-.85,.58-.32,.13-.64,.2-.98,.2s-.69-.07-1-.2c-.32-.13-.6-.32-.84-.56-.25-.25-.43-.53-.56-.84-.13-.31-.19-.63-.19-.99m.87,0c0,.5,.17,.93,.51,1.28,.34,.35,.75,.53,1.23,.53s.88-.17,1.22-.53c.33-.35,.5-.78,.5-1.28s-.17-.93-.5-1.28c-.33-.35-.74-.53-1.22-.53s-.89,.17-1.23,.53c-.34,.35-.5,.78-.5,1.28Z"/>
      <path class="cls-1" d="M106.77,129.31v4.69c0,.52-.04,.89-.1,1.11-.07,.22-.18,.41-.34,.59-.22,.24-.5,.42-.82,.54-.32,.12-.69,.18-1.11,.18-.72,0-1.29-.17-1.69-.5-.41-.33-.62-.8-.63-1.41h.92v.06c0,.36,.12,.64,.37,.83,.25,.19,.6,.29,1.05,.29,.33,0,.61-.05,.84-.16,.23-.11,.41-.27,.53-.47,.07-.12,.13-.26,.16-.41,.03-.16,.05-.38,.05-.67v-.8c-.19,.34-.43,.6-.72,.78-.3,.18-.64,.27-1.01,.27-.69,0-1.24-.23-1.66-.7-.42-.46-.63-1.08-.63-1.86s.2-1.4,.61-1.86c.41-.46,.95-.69,1.63-.69,.4,0,.74,.09,1.04,.27,.3,.18,.53,.45,.71,.79v-.89h.81Zm-.79,2.4c0-.54-.15-.97-.44-1.29-.29-.33-.68-.49-1.15-.49s-.87,.15-1.15,.45c-.27,.3-.41,.72-.41,1.27,0,.58,.14,1.02,.41,1.33,.28,.31,.67,.47,1.18,.47s.87-.15,1.15-.46c.28-.31,.41-.74,.41-1.28Z"/>
      <polygon class="cls-1" points="108.87 136.42 110.16 133.62 108.29 129.31 109.23 129.31 110.62 132.74 112.09 129.31 112.99 129.31 109.79 136.42 108.87 136.42"/>
      <path class="cls-1" d="M123.2,128.28c-.37-.4-.76-.69-1.17-.88-.42-.19-.87-.29-1.37-.29-.4,0-.8,.08-1.18,.25-.38,.16-.72,.39-1,.68-.29,.3-.51,.64-.66,1.02-.15,.37-.22,.79-.22,1.24,0,.35,.04,.68,.13,.98,.09,.3,.22,.57,.39,.82,.31,.43,.68,.77,1.13,1,.45,.24,.93,.35,1.45,.35,.49,0,.94-.1,1.36-.3,.42-.2,.8-.5,1.14-.9v1.21c-.38,.27-.79,.48-1.22,.62-.44,.14-.89,.21-1.36,.21-.4,0-.8-.06-1.18-.18-.38-.12-.74-.3-1.08-.53-.56-.38-.98-.86-1.28-1.42-.29-.56-.44-1.18-.44-1.86,0-.59,.1-1.12,.3-1.6,.2-.48,.5-.92,.9-1.31,.39-.38,.82-.66,1.29-.84,.47-.19,.99-.28,1.55-.28,.44,0,.87,.07,1.28,.2,.42,.13,.82,.34,1.23,.62v1.19Z"/>
      <path class="cls-1" d="M124.91,131.71c0-.35,.06-.68,.19-.99,.13-.31,.32-.59,.56-.83,.25-.24,.53-.43,.84-.56,.31-.13,.65-.19,1-.19s.68,.06,.99,.19c.31,.13,.59,.32,.85,.56,.25,.24,.43,.51,.56,.83,.13,.31,.19,.64,.19,.99s-.06,.68-.19,.99c-.13,.31-.32,.58-.56,.82-.25,.25-.54,.44-.85,.58-.32,.13-.64,.2-.98,.2s-.69-.07-1-.2c-.32-.13-.6-.32-.84-.56-.25-.25-.43-.53-.56-.84-.13-.31-.19-.63-.19-.99m.87,0c0,.5,.17,.93,.51,1.28,.34,.35,.75,.53,1.23,.53s.88-.17,1.22-.53c.33-.35,.5-.78,.5-1.28s-.17-.93-.5-1.28c-.33-.35-.74-.53-1.22-.53s-.89,.17-1.23,.53c-.34,.35-.5,.78-.5,1.28Z"/>
      <path class="cls-1" d="M132.12,133.58c0-.17,.06-.32,.18-.44s.27-.18,.44-.18,.32,.06,.45,.18c.12,.12,.19,.27,.19,.44s-.06,.32-.18,.43c-.12,.12-.27,.17-.45,.17s-.32-.06-.44-.17c-.12-.12-.18-.26-.18-.43"/>
      <polygon class="cls-1" points="135.58 135.61 136.57 132.76 137.46 133.07 136.18 135.84 135.58 135.61"/>
      <polygon class="cls-1" points="142.18 134.09 142.18 126.45 143.08 126.45 143.08 133.22 145.97 133.22 145.97 134.09 142.18 134.09"/>
      <polygon class="cls-1" points="147.72 129.99 146.85 129.99 146.85 129.31 147.72 129.31 147.72 127.39 148.56 127.39 148.56 129.31 149.43 129.31 149.43 129.99 148.56 129.99 148.56 134.09 147.72 134.09 147.72 129.99"/>
      <path class="cls-1" d="M155.44,126v8.09h-.79v-.86c-.19,.34-.43,.61-.73,.79-.3,.18-.63,.28-1,.28-.69,0-1.24-.23-1.66-.71-.42-.47-.63-1.1-.63-1.87s.2-1.41,.62-1.87c.41-.47,.96-.7,1.64-.7,.4,0,.74,.09,1.03,.27,.29,.18,.53,.45,.71,.8v-4.21h.81Zm-.79,5.73c0-.53-.15-.96-.44-1.29-.3-.33-.69-.49-1.17-.49s-.86,.15-1.13,.44c-.27,.3-.41,.7-.41,1.23,0,.59,.14,1.05,.41,1.38,.28,.33,.66,.5,1.14,.5s.89-.16,1.18-.47c.28-.31,.43-.75,.43-1.3Z"/>
      <path class="cls-1" d="M157.85,133.58c0-.17,.06-.32,.18-.44,.12-.12,.27-.18,.44-.18s.32,.06,.45,.18c.12,.12,.19,.27,.19,.44s-.06,.32-.18,.43c-.12,.12-.27,.17-.45,.17s-.32-.06-.44-.17c-.12-.12-.18-.26-.18-.43"/>
    </g>
  </g>
</svg>