<?xml version="1.0" encoding="UTF-8"?>
<svg id="_圖層_2" data-name="圖層 2" xmlns="http://www.w3.org/2000/svg" viewBox="0 0 156.74 132.59">
  <defs>
    <style>
      .cls-1 {
        fill: #fff;
      }

      .cls-2 {
        fill: #c30d23;
      }
    </style>
  </defs>
  <g id="_圖層_1-2" data-name="圖層 1">
    <g>
      <g>
        <g>
          <path class="cls-1" d="M6.12,101.05c0,4.17-.27,7.89-.82,11.17-.38,2.46-1.12,5.53-2.22,9.26l-3.08-1.47c1.1-3.21,1.81-6.08,2.22-8.54,.55-3.55,.86-7,.86-10.42v-9.87H30.53v2.94h-12.02l1.74,.51c.27,.03,.41,.17,.41,.41s-.17,.51-.51,.82c-.21,.41-.45,.75-.68,1.06h8.67v12.95h-7.89v7.85c0,1.16-.38,2.05-1.09,2.6-.62,.58-2.19,.89-4.65,.89l-1.2-3.07h2.49c.86,0,1.33-.31,1.4-.92v-7.34H8.91v-12.95h7.04c.21-.2,.38-.44,.51-.65,.41-.65,.75-1.37,1.02-2.15H6.12v6.93Zm7.27,11.95c.21,.1,.34,.21,.34,.31,0,.21-.1,.41-.27,.55-1.5,2.19-3.11,4.03-4.78,5.46l-2.8-1.33c2.08-1.71,3.76-3.76,5.05-6.15l2.46,1.16Zm11.82-10.89v-2.39H11.85v2.39h13.35Zm0,2.53H11.85v2.43h13.35v-2.43Zm5.87,12.81l-2.66,2.42c-2.59-2.29-4.54-4.51-5.87-6.69l2.39-1.33c1.71,2.19,3.76,4.03,6.15,5.6Z"/>
          <path class="cls-1" d="M52.73,91.83c.27,.14,.45,.27,.45,.41,0,.34-.27,.61-.82,.82-1.37,1.84-2.66,3.31-3.83,4.41-1.09,1.06-2.42,2.22-4.03,3.45l-2.15-2.15c1.71-1.23,3.18-2.49,4.37-3.76,1.13-1.16,2.25-2.63,3.38-4.37l2.63,1.2Zm1.57,7.2c.31,.14,.48,.27,.48,.41,0,.34-.27,.62-.82,.78-1.3,1.64-2.49,3.04-3.58,4.17v16.8h-3.08v-13.97c-.89,.75-1.81,1.47-2.8,2.22l-2.15-2.15c2.08-1.44,3.86-2.9,5.3-4.41,1.36-1.33,2.7-3,4.06-5.05l2.6,1.19Zm18.47,5.6v2.8h-3.72v2.15h4.51v2.94h-4.51v5.06c0,1.71-.48,2.77-1.4,3.21-.68,.34-2.6,.54-5.67,.54l-.95-2.8c2.46,0,3.89-.03,4.27-.1,.45-.1,.68-.38,.68-.85v-5.06h-14.41v-2.94h14.41v-2.15h-12.02v-2.8h18.82Zm-12.53,13.08l-2.29,2.02c-1.77-1.85-3.48-3.31-5.19-4.41l2.12-2.02c1.85,1.23,3.66,2.7,5.36,4.41Zm11.61-26.02v11.1h-16.57v-11.1h16.57Zm-2.94,4.27v-1.71h-10.69v1.71h10.69Zm0,2.43h-10.69v1.84h10.69v-1.84Z"/>
          <path class="cls-1" d="M102.09,92.51v-1.88l2.8,.24c.51,.03,.78,.17,.78,.44,0,.17-.17,.44-.51,.79v.41h7.07v4.54h3.04v2.67h-3.04v4.54h-7.07v2.12h7.44v2.66h-7.44v2.15h8.26v2.8h-8.26v3.76c1.81,.07,3.86,.1,6.11,.1,1.02,0,2.36-.03,4-.14l-1.47,3.35c-6.01,0-10.59-.2-13.8-.55-2.63-.27-4.78-.72-6.45-1.3-1.26-.45-2.39-.99-3.35-1.6-1.12,1.54-2.49,2.83-4.13,3.86l-2.25-2.43c1.57-.82,2.9-1.95,3.93-3.38-1.1-1.09-2.22-2.77-3.42-5.02l2.43-.92c.92,1.4,1.78,2.49,2.53,3.31,.82-1.88,1.36-4.51,1.6-7.86h-2.8l-1.09,2.25-2.66-.92,5.23-10.93h-5.09v-2.8h5.74l.82-.27c.27,0,.51,.1,.79,.27l1.67,1.02c.21,.14,.34,.31,.34,.44,0,.31-.27,.61-.82,.92l-3.55,7.21h4.37c-.21,5.46-.86,9.53-1.95,12.12-.07,.21-.17,.38-.24,.51,1.5,.96,3.17,1.6,5.05,1.95,1.2,.31,3.01,.51,5.4,.65v-3.62h-8.26v-2.8h8.26v-2.15h-7.21v-2.66h7.21v-2.12h-6.42v-2.66h6.42v-1.88h-9.22v-2.67h9.22v-1.88h-6.42v-2.66h6.42Zm3.08,4.54h4.13v-1.88h-4.13v1.88Zm0,4.54h4.13v-1.88h-4.13v1.88Z"/>
          <path class="cls-1" d="M133.48,91.12c.38,.07,.58,.17,.58,.34,0,.24-.24,.44-.68,.65-.17,.34-.34,.68-.48,.96h8.09v2.39h-4.1c.48,1.09,.89,2.12,1.16,3.07l-2.66,.51c-.41-1.3-.92-2.49-1.47-3.58h-2.49c-.82,1.26-1.77,2.49-2.84,3.72l-2.56-1.33c2.15-2.29,3.76-4.75,4.82-7.34l2.63,.62Zm6.32,20.08v-2.8l2.7,.24c.47,.03,.75,.17,.75,.41,0,.17-.17,.41-.51,.68v1.47h13.45v2.53h-11.64c1.57,1.09,3.21,1.95,4.85,2.56,1.74,.68,4.2,1.4,7.34,2.12l-3.07,2.8c-2.6-.92-4.68-1.81-6.19-2.7-1.67-.89-3.24-2.05-4.74-3.45v6.15h-2.94v-5.77c-1.64,1.4-3.28,2.53-4.88,3.38-1.78,.89-3.86,1.71-6.32,2.39l-2.56-2.53c3.04-.72,5.67-1.57,7.86-2.53,1.33-.55,2.76-1.37,4.27-2.43h-11.58v-2.53h13.22Zm-.68-11.61v2.53h-4.54v4.68c1.54-.1,3.04-.24,4.54-.41v2.29c-2.32,.34-5.94,.78-10.93,1.33-.24,.27-.48,.38-.68,.38s-.31-.14-.31-.41l-.62-2.66c1.71-.07,3.38-.14,5.06-.27v-4.92h-4v-2.53h11.48Zm12.4-.14v6.28c0,.62,.41,.92,1.23,.92,.48,0,.82-.1,1.03-.31,.17-.17,.3-.78,.44-1.84l2.53,.41c-.21,1.78-.58,2.97-1.16,3.52-.48,.41-1.4,.61-2.84,.61-1.78-.03-2.84-.34-3.18-.92-.3-.44-.44-1.02-.44-1.74v-4.54h-2.43c-.07,1.06-.24,1.88-.45,2.43-.07,.21-.17,.41-.24,.58,.55,.38,1.1,.75,1.64,1.13l-1.74,1.88c-.51-.34-.99-.68-1.47-1.02-.68,.58-1.6,1.09-2.8,1.57l-2.25-2.29c1.16-.21,2.01-.51,2.6-.92-.62-.38-1.16-.72-1.67-1.06l1.47-1.88c.65,.37,1.3,.75,1.95,1.13,.17-.41,.31-.92,.41-1.54h-3.96v-2.39h11.34Zm-4.85-8.33c.38,.07,.58,.17,.58,.34,0,.24-.24,.44-.65,.65-.17,.34-.34,.68-.48,.96h9.53v2.39h-5.02c.44,1.09,.79,2.12,1.02,3.07l-2.66,.51c-.38-1.26-.82-2.46-1.3-3.58h-2.87c-.79,1.26-1.68,2.49-2.63,3.72l-2.53-1.33c1.98-2.29,3.45-4.75,4.41-7.34l2.6,.62Z"/>
        </g>
        <g>
          <path class="cls-1" d="M0,131.32l2.46-6.42h.91l2.63,6.42h-.97l-.75-1.94H1.61l-.71,1.94H0Zm1.85-2.64h2.18l-.67-1.78c-.21-.54-.36-.98-.46-1.33-.08,.41-.2,.82-.35,1.23l-.71,1.88Z"/>
          <path class="cls-1" d="M7.31,131.32v-4.65h.71v.71c.18-.33,.35-.55,.5-.65,.15-.1,.32-.16,.51-.16,.27,0,.54,.08,.81,.25l-.27,.73c-.19-.11-.38-.17-.58-.17-.17,0-.33,.05-.46,.15-.14,.1-.24,.25-.29,.43-.09,.28-.13,.59-.13,.92v2.43h-.79Z"/>
          <path class="cls-1" d="M14.07,129.62l.77,.1c-.08,.53-.3,.95-.65,1.25-.35,.3-.78,.45-1.28,.45-.64,0-1.15-.21-1.53-.62-.39-.42-.58-1.01-.58-1.79,0-.5,.08-.94,.25-1.32,.17-.38,.42-.66,.76-.85,.34-.19,.71-.28,1.11-.28,.51,0,.92,.13,1.24,.38,.32,.26,.53,.62,.62,1.09l-.77,.12c-.07-.31-.2-.55-.39-.7-.18-.16-.41-.24-.67-.24-.4,0-.72,.14-.97,.43-.25,.28-.37,.73-.37,1.35s.12,1.08,.36,1.36c.24,.28,.55,.42,.94,.42,.31,0,.57-.09,.78-.28,.21-.19,.34-.48,.39-.88Z"/>
          <path class="cls-1" d="M16.26,131.32v-6.42h.79v2.3c.37-.43,.83-.64,1.39-.64,.35,0,.64,.07,.9,.2,.25,.14,.44,.32,.54,.56,.11,.24,.16,.59,.16,1.04v2.95h-.79v-2.95c0-.39-.08-.68-.25-.86-.17-.18-.41-.27-.72-.27-.23,0-.45,.06-.66,.18-.21,.12-.35,.29-.44,.49-.09,.21-.13,.49-.13,.86v2.54h-.79Z"/>
          <path class="cls-1" d="M21.98,125.81v-.91h.79v.91h-.79Zm0,5.51v-4.65h.79v4.65h-.79Z"/>
          <path class="cls-1" d="M26.43,130.62l.11,.7c-.22,.05-.42,.07-.6,.07-.28,0-.51-.05-.67-.14-.16-.09-.27-.21-.33-.36-.06-.15-.1-.46-.1-.93v-2.68h-.58v-.61h.58v-1.15l.78-.47v1.62h.79v.61h-.79v2.72c0,.22,.01,.37,.04,.43,.03,.06,.07,.12,.14,.15,.06,.04,.15,.06,.27,.06,.09,0,.2-.01,.35-.03Z"/>
          <path class="cls-1" d="M31.11,129.82l.81,.1c-.13,.48-.37,.84-.71,1.11-.35,.26-.79,.39-1.33,.39-.68,0-1.22-.21-1.62-.63-.4-.42-.6-1.01-.6-1.76s.2-1.39,.6-1.82c.4-.43,.93-.65,1.57-.65s1.13,.21,1.52,.63c.39,.42,.59,1.02,.59,1.79,0,.05,0,.12,0,.21h-3.47c.03,.51,.17,.9,.43,1.17,.26,.27,.58,.41,.97,.41,.29,0,.54-.08,.74-.23,.21-.15,.37-.39,.49-.73Zm-2.59-1.27h2.6c-.04-.39-.14-.68-.3-.88-.25-.3-.58-.46-.98-.46-.36,0-.67,.12-.91,.36-.25,.24-.38,.57-.41,.97Z"/>
          <path class="cls-1" d="M36.69,129.62l.78,.1c-.08,.53-.3,.95-.65,1.25-.35,.3-.78,.45-1.28,.45-.64,0-1.15-.21-1.53-.62s-.58-1.01-.58-1.79c0-.5,.08-.94,.25-1.32,.17-.38,.42-.66,.76-.85,.34-.19,.71-.28,1.11-.28,.51,0,.92,.13,1.24,.38,.32,.26,.53,.62,.62,1.09l-.77,.12c-.07-.31-.2-.55-.39-.7-.18-.16-.41-.24-.67-.24-.4,0-.72,.14-.97,.43-.25,.28-.37,.73-.37,1.35s.12,1.08,.36,1.36c.24,.28,.55,.42,.94,.42,.31,0,.57-.09,.77-.28,.21-.19,.34-.48,.39-.88Z"/>
          <path class="cls-1" d="M40.59,130.62l.11,.7c-.22,.05-.42,.07-.6,.07-.28,0-.51-.05-.67-.14-.16-.09-.27-.21-.33-.36-.06-.15-.1-.46-.1-.93v-2.68h-.58v-.61h.58v-1.15l.78-.47v1.62h.79v.61h-.79v2.72c0,.22,.01,.37,.04,.43,.03,.06,.07,.12,.14,.15,.06,.04,.15,.06,.27,.06,.09,0,.2-.01,.35-.03Z"/>
          <path class="cls-1" d="M45.14,131.32v-.68c-.36,.53-.85,.79-1.47,.79-.28,0-.53-.05-.77-.16-.24-.1-.41-.24-.53-.4-.12-.16-.2-.35-.24-.58-.03-.15-.05-.4-.05-.74v-2.88h.79v2.58c0,.41,.02,.69,.05,.83,.05,.21,.15,.37,.32,.49,.16,.12,.36,.18,.59,.18s.46-.06,.67-.18c.21-.12,.35-.29,.44-.49,.09-.21,.13-.51,.13-.91v-2.49h.79v4.65h-.71Z"/>
          <path class="cls-1" d="M47.81,131.32v-4.65h.71v.71c.18-.33,.35-.55,.5-.65,.15-.1,.32-.16,.51-.16,.27,0,.54,.08,.81,.25l-.27,.73c-.19-.11-.38-.17-.58-.17-.17,0-.33,.05-.46,.15-.14,.1-.24,.25-.29,.43-.09,.28-.13,.59-.13,.92v2.43h-.79Z"/>
          <path class="cls-1" d="M54.72,129.82l.81,.1c-.13,.48-.37,.84-.71,1.11-.35,.26-.79,.39-1.33,.39-.68,0-1.22-.21-1.62-.63-.4-.42-.6-1.01-.6-1.76s.2-1.39,.6-1.82c.4-.43,.93-.65,1.57-.65s1.13,.21,1.52,.63c.39,.42,.59,1.02,.59,1.79,0,.05,0,.12,0,.21h-3.47c.03,.51,.17,.9,.43,1.17,.26,.27,.58,.41,.97,.41,.29,0,.54-.08,.74-.23,.21-.15,.37-.39,.49-.73Zm-2.59-1.27h2.6c-.04-.39-.14-.68-.3-.88-.25-.3-.58-.46-.98-.46-.36,0-.67,.12-.91,.36-.25,.24-.38,.57-.41,.97Z"/>
          <path class="cls-1" d="M65.17,129.07l.85,.21c-.18,.7-.5,1.23-.96,1.6-.46,.37-1.03,.55-1.7,.55s-1.25-.14-1.69-.42-.76-.69-.99-1.22c-.23-.53-.34-1.11-.34-1.72,0-.67,.13-1.25,.38-1.75,.25-.5,.62-.88,1.09-1.13,.47-.26,.99-.39,1.56-.39,.64,0,1.18,.16,1.62,.49,.44,.33,.74,.79,.91,1.38l-.84,.2c-.15-.47-.37-.81-.65-1.02-.28-.21-.64-.32-1.07-.32-.49,0-.91,.12-1.24,.36-.33,.24-.56,.55-.7,.95-.13,.4-.2,.81-.2,1.23,0,.55,.08,1.02,.24,1.43,.16,.41,.41,.71,.74,.91,.34,.2,.7,.3,1.09,.3,.48,0,.88-.14,1.21-.41s.55-.68,.67-1.22Z"/>
          <path class="cls-1" d="M67.4,129c0-.86,.24-1.5,.72-1.91,.4-.34,.89-.52,1.46-.52,.64,0,1.16,.21,1.57,.63s.61,1,.61,1.74c0,.6-.09,1.07-.27,1.41-.18,.34-.44,.61-.78,.8-.34,.19-.72,.28-1.12,.28-.65,0-1.18-.21-1.58-.63-.4-.42-.6-1.02-.6-1.8Zm.81,0c0,.59,.13,1.04,.39,1.34,.26,.3,.59,.44,.98,.44s.72-.15,.98-.45c.26-.3,.39-.75,.39-1.36,0-.58-.13-1.01-.39-1.31-.26-.3-.58-.44-.97-.44s-.72,.15-.98,.44c-.26,.29-.39,.74-.39,1.34Z"/>
          <path class="cls-1" d="M73.42,131.32v-4.65h.71v.66c.34-.51,.84-.77,1.48-.77,.28,0,.54,.05,.77,.15,.23,.1,.41,.23,.53,.4,.12,.16,.2,.36,.25,.58,.03,.15,.05,.4,.05,.77v2.86h-.79v-2.83c0-.32-.03-.56-.09-.72-.06-.16-.17-.29-.33-.38-.16-.09-.34-.14-.55-.14-.34,0-.63,.11-.87,.32-.24,.21-.37,.62-.37,1.21v2.54h-.79Z"/>
          <path class="cls-1" d="M78.82,129.93l.78-.12c.05,.31,.17,.55,.37,.72,.2,.17,.48,.25,.84,.25s.63-.07,.81-.22c.18-.15,.26-.32,.26-.52,0-.18-.08-.32-.23-.42-.11-.07-.38-.16-.81-.27-.58-.15-.98-.27-1.2-.38-.22-.11-.39-.25-.51-.44-.12-.19-.17-.4-.17-.62,0-.21,.05-.4,.14-.58,.1-.18,.22-.32,.39-.44,.12-.09,.29-.17,.5-.23,.21-.06,.44-.09,.68-.09,.36,0,.68,.05,.96,.16,.28,.11,.48,.25,.61,.43,.13,.18,.22,.42,.27,.72l-.77,.1c-.03-.24-.14-.43-.3-.56-.17-.13-.41-.2-.71-.2-.36,0-.62,.06-.77,.18-.15,.12-.23,.26-.23,.42,0,.1,.03,.19,.1,.28,.06,.08,.16,.15,.3,.21,.08,.03,.31,.1,.7,.2,.56,.15,.95,.27,1.17,.37,.22,.09,.39,.23,.52,.41,.12,.18,.19,.41,.19,.67s-.08,.51-.23,.74-.38,.41-.66,.54c-.29,.13-.61,.19-.98,.19-.6,0-1.06-.13-1.38-.38-.32-.25-.52-.62-.61-1.12Z"/>
          <path class="cls-1" d="M86.08,130.62l.11,.7c-.22,.05-.42,.07-.6,.07-.28,0-.51-.05-.67-.14-.16-.09-.27-.21-.33-.36-.06-.15-.1-.46-.1-.93v-2.68h-.58v-.61h.58v-1.15l.78-.47v1.62h.79v.61h-.79v2.72c0,.22,.01,.37,.04,.43,.03,.06,.07,.12,.14,.15,.06,.04,.15,.06,.27,.06,.09,0,.2-.01,.35-.03Z"/>
          <path class="cls-1" d="M87.57,131.32v-4.65h.71v.71c.18-.33,.35-.55,.5-.65,.15-.1,.32-.16,.51-.16,.27,0,.54,.08,.81,.25l-.27,.73c-.19-.11-.38-.17-.58-.17-.17,0-.33,.05-.46,.15-.14,.1-.24,.25-.29,.43-.09,.28-.13,.59-.13,.92v2.43h-.79Z"/>
          <path class="cls-1" d="M94.35,131.32v-.68c-.36,.53-.85,.79-1.47,.79-.28,0-.53-.05-.77-.16-.24-.1-.41-.24-.53-.4-.12-.16-.2-.35-.24-.58-.03-.15-.05-.4-.05-.74v-2.88h.79v2.58c0,.41,.02,.69,.05,.83,.05,.21,.15,.37,.32,.49,.16,.12,.36,.18,.59,.18s.46-.06,.67-.18c.21-.12,.35-.29,.44-.49,.09-.21,.13-.51,.13-.91v-2.49h.79v4.65h-.71Z"/>
          <path class="cls-1" d="M100.06,129.62l.78,.1c-.08,.53-.3,.95-.65,1.25-.35,.3-.78,.45-1.28,.45-.64,0-1.15-.21-1.54-.62s-.58-1.01-.58-1.79c0-.5,.08-.94,.25-1.32,.17-.38,.42-.66,.76-.85,.34-.19,.71-.28,1.11-.28,.51,0,.92,.13,1.24,.38,.32,.26,.53,.62,.62,1.09l-.77,.12c-.07-.31-.2-.55-.39-.7-.18-.16-.41-.24-.67-.24-.4,0-.72,.14-.97,.43-.25,.28-.37,.73-.37,1.35s.12,1.08,.36,1.36c.24,.28,.55,.42,.94,.42,.31,0,.57-.09,.77-.28,.21-.19,.34-.48,.39-.88Z"/>
          <path class="cls-1" d="M103.96,130.62l.11,.7c-.22,.05-.42,.07-.6,.07-.28,0-.51-.05-.67-.14-.16-.09-.27-.21-.33-.36-.06-.15-.1-.46-.1-.93v-2.68h-.58v-.61h.58v-1.15l.78-.47v1.62h.79v.61h-.79v2.72c0,.22,.01,.37,.04,.43,.03,.06,.07,.12,.14,.15,.06,.04,.15,.06,.27,.06,.09,0,.2-.01,.35-.03Z"/>
          <path class="cls-1" d="M105.47,125.81v-.91h.79v.91h-.79Zm0,5.51v-4.65h.79v4.65h-.79Z"/>
          <path class="cls-1" d="M107.9,129c0-.86,.24-1.5,.72-1.91,.4-.34,.89-.52,1.46-.52,.64,0,1.16,.21,1.57,.63,.41,.42,.61,1,.61,1.74,0,.6-.09,1.07-.27,1.41-.18,.34-.44,.61-.78,.8-.34,.19-.72,.28-1.12,.28-.65,0-1.18-.21-1.58-.63-.4-.42-.6-1.02-.6-1.8Zm.81,0c0,.59,.13,1.04,.39,1.34,.26,.3,.59,.44,.98,.44s.72-.15,.98-.45c.26-.3,.39-.75,.39-1.36,0-.58-.13-1.01-.39-1.31-.26-.3-.58-.44-.97-.44s-.72,.15-.98,.44c-.26,.29-.39,.74-.39,1.34Z"/>
          <path class="cls-1" d="M113.91,131.32v-4.65h.71v.66c.34-.51,.84-.77,1.48-.77,.28,0,.54,.05,.77,.15,.23,.1,.41,.23,.53,.4,.12,.16,.2,.36,.25,.58,.03,.15,.05,.4,.05,.77v2.86h-.79v-2.83c0-.32-.03-.56-.09-.72-.06-.16-.17-.29-.33-.38-.16-.09-.34-.14-.55-.14-.34,0-.63,.11-.87,.32-.24,.21-.37,.62-.37,1.21v2.54h-.79Z"/>
          <path class="cls-1" d="M127.54,129.07l.85,.21c-.18,.7-.5,1.23-.96,1.6-.46,.37-1.03,.55-1.7,.55s-1.25-.14-1.69-.42-.76-.69-.99-1.22c-.23-.53-.34-1.11-.34-1.72,0-.67,.13-1.25,.38-1.75,.25-.5,.62-.88,1.09-1.13,.47-.26,.99-.39,1.56-.39,.64,0,1.18,.16,1.62,.49,.44,.33,.74,.79,.91,1.38l-.84,.2c-.15-.47-.37-.81-.65-1.02-.28-.21-.64-.32-1.07-.32-.49,0-.91,.12-1.24,.36-.33,.24-.56,.55-.7,.95-.13,.4-.2,.81-.2,1.23,0,.55,.08,1.02,.24,1.43,.16,.41,.41,.71,.74,.91,.34,.2,.7,.3,1.09,.3,.48,0,.88-.14,1.21-.41s.55-.68,.67-1.22Z"/>
          <path class="cls-1" d="M129.78,129c0-.86,.24-1.5,.72-1.91,.4-.34,.89-.52,1.46-.52,.64,0,1.16,.21,1.57,.63,.41,.42,.61,1,.61,1.74,0,.6-.09,1.07-.27,1.41-.18,.34-.44,.61-.78,.8-.34,.19-.72,.28-1.12,.28-.65,0-1.18-.21-1.58-.63-.4-.42-.6-1.02-.6-1.8Zm.81,0c0,.59,.13,1.04,.39,1.34,.26,.3,.59,.44,.98,.44s.72-.15,.98-.45c.26-.3,.39-.75,.39-1.36,0-.58-.13-1.01-.39-1.31-.26-.3-.58-.44-.97-.44s-.72,.15-.98,.44c-.26,.29-.39,.74-.39,1.34Z"/>
          <path class="cls-1" d="M136.02,131.32v-.9h.9v.9h-.9Z"/>
          <path class="cls-1" d="M139.22,131.32v-.9h.9v.9c0,.33-.06,.6-.17,.8-.12,.2-.3,.36-.56,.47l-.22-.34c.17-.07,.29-.18,.37-.32,.08-.14,.12-.35,.13-.61h-.45Z"/>
          <path class="cls-1" d="M142.31,131.32v-6.42h.85v5.66h3.16v.76h-4.01Z"/>
          <path class="cls-1" d="M149.69,130.62l.11,.7c-.22,.05-.42,.07-.6,.07-.28,0-.51-.05-.67-.14-.16-.09-.27-.21-.33-.36-.06-.15-.1-.46-.1-.93v-2.68h-.58v-.61h.58v-1.15l.78-.47v1.62h.79v.61h-.79v2.72c0,.22,.01,.37,.04,.43,.03,.06,.07,.12,.14,.15,.06,.04,.15,.06,.27,.06,.09,0,.2-.01,.35-.03Z"/>
          <path class="cls-1" d="M154.21,131.32v-.59c-.3,.46-.73,.69-1.3,.69-.37,0-.71-.1-1.02-.31-.31-.2-.55-.49-.72-.86-.17-.37-.26-.79-.26-1.26s.08-.88,.23-1.26c.15-.38,.39-.67,.7-.87,.31-.2,.65-.3,1.04-.3,.28,0,.53,.06,.75,.18,.22,.12,.4,.27,.53,.46v-2.3h.78v6.42h-.73Zm-2.49-2.32c0,.6,.12,1.04,.38,1.34,.25,.3,.55,.44,.89,.44s.64-.14,.88-.42c.24-.28,.36-.71,.36-1.29,0-.64-.12-1.1-.37-1.4-.25-.3-.55-.45-.91-.45s-.64,.14-.88,.43c-.24,.29-.35,.74-.35,1.35Z"/>
        </g>
      </g>
      <g>
        <g>
          <rect class="cls-2" x="93.55" y="37.3" width="7.5" height="25.35"/>
          <path class="cls-2" d="M100.97,35.67V15.54h-25.28c1.83-1.66,5.29-3.66,11.09-5.65,6.04-2.08,12.18-1.94,14.21-2.32V0h-36.7c-.93-.04-3.77,.02-6.05,2.11-1.16,1.07-2.54,3.05-2.54,6.37V62.74h7.48V8.49c0-.22-.01-.53,.1-.73,.13-.22,.39-.26,.61-.26l12.39-.06c-6.06,2.34-9.73,6.1-9.73,10.75v17.55h7.49v-12.72h19.44v5.15h-5.31c-3.44,0-5.43,1.38-6.51,2.53-1.93,2.09-2.03,4.59-2,5.43v26.52h7.5v-26.61l.04-.15v-.11c.11-.05,.4-.13,.97-.13h12.79Z"/>
          <rect class="cls-2" x="66.56" y="37.3" width="7.5" height="25.35"/>
        </g>
        <g>
          <path class="cls-1" d="M58.47,70.83h-.6l-.25-.63h-1.11l-.23,.63h-.6l1.08-2.78h.6l1.1,2.78Zm-1.03-1.1l-.38-1.03-.38,1.03h.76Z"/>
          <path class="cls-1" d="M60.13,70.83v-2.78h1.19c.29,0,.51,.02,.64,.08,.13,.05,.24,.14,.32,.27,.08,.13,.13,.27,.13,.44,0,.21-.07,.38-.19,.51-.13,.14-.31,.22-.55,.26,.12,.07,.23,.15,.3,.23,.08,.08,.19,.23,.32,.45l.35,.54h-.68l-.4-.61c-.15-.22-.25-.35-.29-.41-.06-.05-.12-.09-.17-.12-.06-.02-.16-.03-.29-.03h-.12v1.16h-.56Zm.56-1.6h.42c.27,0,.44-.01,.51-.03,.06-.02,.12-.06,.16-.12,.03-.06,.06-.13,.06-.21,0-.09-.03-.17-.07-.23-.05-.06-.11-.1-.21-.11-.05,0-.19-.01-.41-.01h-.44v.71Z"/>
          <path class="cls-1" d="M66.07,69.81l.54,.17c-.08,.3-.23,.53-.42,.68-.19,.14-.44,.22-.73,.22-.37,0-.68-.13-.91-.38-.24-.25-.35-.6-.35-1.03,0-.46,.11-.82,.35-1.08,.24-.26,.55-.39,.94-.39,.34,0,.61,.1,.83,.3,.13,.12,.22,.29,.28,.51l-.55,.13c-.03-.14-.1-.26-.2-.34-.11-.08-.23-.12-.39-.12-.21,0-.37,.07-.5,.22-.13,.15-.2,.39-.2,.72,0,.35,.07,.6,.2,.75,.12,.15,.28,.22,.49,.22,.15,0,.28-.04,.38-.14,.11-.1,.19-.25,.24-.45Z"/>
          <path class="cls-1" d="M68.46,70.83v-2.78h.56v1.09h1.1v-1.09h.56v2.78h-.56v-1.22h-1.1v1.22h-.56Z"/>
          <path class="cls-1" d="M72.59,70.83v-2.78h.56v2.78h-.56Z"/>
          <path class="cls-1" d="M75.68,70.83v-2.31h-.83v-.47h2.21v.47h-.82v2.31h-.56Z"/>
          <path class="cls-1" d="M78.78,70.83v-2.78h2.06v.47h-1.49v.61h1.39v.47h-1.39v.76h1.55v.47h-2.12Z"/>
          <path class="cls-1" d="M84.5,69.81l.55,.17c-.08,.3-.22,.53-.41,.68-.2,.14-.44,.22-.74,.22-.37,0-.67-.13-.91-.38-.24-.25-.36-.6-.36-1.03,0-.46,.13-.82,.36-1.08,.24-.26,.55-.39,.94-.39,.34,0,.61,.1,.83,.3,.12,.12,.23,.29,.29,.51l-.55,.13c-.04-.14-.1-.26-.21-.34-.1-.08-.23-.12-.38-.12-.21,0-.37,.07-.5,.22-.13,.15-.19,.39-.19,.72,0,.35,.06,.6,.19,.75,.13,.15,.29,.22,.49,.22,.15,0,.28-.04,.39-.14,.1-.1,.18-.25,.23-.45Z"/>
          <path class="cls-1" d="M87.51,70.83v-2.31h-.83v-.47h2.2v.47h-.81v2.31h-.56Z"/>
          <path class="cls-1" d="M90.6,68.05h.56v1.5c0,.24,0,.4,.03,.47,.02,.11,.08,.2,.17,.27,.1,.07,.22,.1,.37,.1,.16,0,.29-.03,.36-.1,.09-.06,.13-.15,.14-.24,.02-.1,.03-.25,.03-.47v-1.54h.55v1.46c0,.33,0,.57-.04,.71-.03,.14-.09,.25-.16,.35-.09,.1-.19,.17-.33,.23-.13,.06-.31,.08-.53,.08-.26,0-.47-.03-.61-.09-.13-.06-.24-.14-.32-.24-.09-.1-.14-.2-.16-.31-.04-.16-.06-.4-.06-.7v-1.48Z"/>
          <path class="cls-1" d="M94.77,70.83v-2.78h1.19c.29,0,.51,.02,.64,.08,.13,.05,.24,.14,.32,.27,.09,.13,.13,.27,.13,.44,0,.21-.07,.38-.2,.51-.12,.14-.3,.22-.54,.26,.12,.07,.22,.15,.3,.23,.08,.08,.19,.23,.31,.45l.35,.54h-.68l-.41-.61c-.14-.22-.23-.35-.3-.41-.05-.05-.1-.09-.16-.12-.06-.02-.15-.03-.28-.03h-.11v1.16h-.56Zm.56-1.6h.41c.27,0,.44-.01,.51-.03,.07-.02,.12-.06,.16-.12,.03-.06,.06-.13,.06-.21,0-.09-.03-.17-.07-.23-.05-.06-.13-.1-.21-.11-.04,0-.18-.01-.41-.01h-.44v.71Z"/>
          <path class="cls-1" d="M98.94,70.83v-2.78h2.06v.47h-1.5v.61h1.39v.47h-1.39v.76h1.55v.47h-2.11Z"/>
        </g>
      </g>
    </g>
  </g>
</svg>