<?xml version="1.0" encoding="UTF-8"?>
<svg id="_圖層_2" data-name="圖層 2" xmlns="http://www.w3.org/2000/svg" viewBox="0 0 181.09 28.15">
  <defs>
    <style>
      .cls-1, .cls-2 {
        fill: #fff;
      }

      .cls-2 {
        fill-rule: evenodd;
      }

      .cls-3 {
        fill: none;
        stroke: #fff;
        stroke-miterlimit: 10;
        stroke-width: .75px;
      }
    </style>
  </defs>
  <g id="_圖層_1-2" data-name="圖層 1">
    <g>
      <g>
        <rect class="cls-3" x=".38" y=".38" width="49.86" height="27.4"/>
        <g>
          <polygon class="cls-2" points="9.85 13.42 7.98 13.42 7.98 3.99 4.26 3.99 4.26 13.42 4.26 16.32 4.26 17.66 9.85 17.66 9.85 19.82 4.26 19.82 4.26 24.16 9.85 24.16 12.54 24.16 13.57 24.16 13.57 3.99 9.85 3.99 9.85 13.42"/>
          <polygon class="cls-2" points="15.03 7.53 15.03 13.04 15.03 15.11 15.03 16.58 15.03 24.16 24.57 24.16 24.57 15.11 19.34 15.11 19.34 13.04 24.57 13.04 24.57 3.99 15.03 3.99 15.03 7.53"/>
          <polygon class="cls-2" points="26.05 7.53 26.05 13.04 26.05 15.11 26.05 16.58 26.05 24.16 35.59 24.16 35.59 15.11 30.35 15.11 30.35 13.04 35.59 13.04 35.59 3.99 26.05 3.99 26.05 7.53"/>
          <polygon class="cls-2" points="46.34 9.88 46.34 3.99 37.4 3.99 37.4 7.8 37.4 9.88 37.4 18.26 37.4 19.98 37.4 24.16 46.34 24.16 46.34 18.26 41.07 18.26 41.07 15.63 46.34 15.63 46.34 12.58 41.07 12.58 41.07 9.88 46.34 9.88"/>
        </g>
      </g>
      <g>
        <path class="cls-1" d="M67.81,9.6c0,3.68-.24,6.96-.72,9.85-.33,2.17-.99,4.88-1.96,8.17l-2.71-1.3c.97-2.83,1.6-5.36,1.96-7.53,.48-3.13,.76-6.18,.76-9.19V.89h24.22V3.48h-10.6l1.54,.45c.24,.03,.36,.15,.36,.36s-.15,.45-.45,.72c-.18,.36-.39,.66-.6,.93h7.65v11.42h-6.96v6.93c0,1.02-.33,1.81-.96,2.29-.54,.51-1.93,.78-4.1,.78l-1.06-2.71h2.2c.75,0,1.18-.27,1.24-.81v-6.48h-7.33V5.95h6.21c.18-.18,.33-.39,.45-.57,.36-.57,.66-1.21,.9-1.9h-10.03v6.12Zm6.41,10.55c.18,.09,.3,.18,.3,.27,0,.18-.09,.36-.24,.48-1.32,1.93-2.74,3.55-4.22,4.82l-2.47-1.18c1.84-1.51,3.31-3.31,4.46-5.42l2.17,1.02Zm10.43-9.61v-2.11h-11.78v2.11h11.78Zm0,2.23h-11.78v2.14h11.78v-2.14Zm5.18,11.3l-2.35,2.14c-2.29-2.02-4-3.98-5.18-5.9l2.11-1.18c1.51,1.93,3.31,3.55,5.42,4.94Z"/>
        <path class="cls-1" d="M98.27,11.47h7.89c-.12,3.43-.3,6-.57,7.68-.3,1.66-.82,2.8-1.54,3.43-.69,.6-2.01,1.02-4,1.27l-1.54-2.71,2.44-.39c1.06-.18,1.72-.81,1.96-1.93,.21-.99,.33-2.62,.39-4.88h-5.03v1.78c0,2.38-.27,4.49-.81,6.36-.36,1.41-1.12,3.16-2.23,5.3l-2.59-1.29c1.09-1.75,1.81-3.32,2.2-4.67,.54-1.93,.85-3.83,.85-5.69V4.42h12.38c-.03-1.33-.03-2.74-.03-4.25l2.77,.3c.42,.09,.66,.24,.66,.42,0,.21-.24,.57-.72,1.05v2.47h5.75c-1.17-1.11-2.32-2.02-3.4-2.71l1.66-1.54c1.29,.79,2.56,1.75,3.77,2.83l-1.51,1.42h2.56v2.47h-8.77c.12,3.65,.36,6.45,.75,8.41,.18,.84,.36,1.63,.6,2.35,.03-.06,.06-.15,.12-.21,1.06-1.81,2.05-4.07,2.96-6.78l2.71,1.2c.21,.12,.33,.33,.33,.57,0,.18-.27,.39-.81,.57-1.42,3.38-2.71,5.88-3.86,7.53-.09,.12-.18,.21-.24,.3,.24,.51,.48,.96,.75,1.36,.85,1.41,1.57,2.11,2.17,2.11,.18,0,.39-.18,.66-.54,.24-.33,.72-1.72,1.45-4.16l2.23,1.87c-.6,1.99-1.18,3.38-1.69,4.28-.75,1.15-1.57,1.75-2.41,1.75s-1.69-.45-2.56-1.3c-.87-.81-1.69-1.87-2.47-3.25-.42,.42-.88,.81-1.3,1.18-1.11,.93-2.41,1.87-3.92,2.77l-2.14-2.11c1.72-.87,3.11-1.78,4.16-2.71,.69-.51,1.33-1.12,1.93-1.78-.75-1.93-1.29-4.1-1.63-6.57-.24-1.75-.39-4.04-.48-6.84h-9.85v4.58Z"/>
        <path class="cls-1" d="M149.45,9.96v5.63h-2.59v-3.52h-20.58v3.52h-2.59v-5.63h25.76ZM127.6,1.61c.27,.06,.42,.15,.42,.33s-.15,.42-.45,.69c-.21,.72-.45,1.35-.75,1.9-.24,.42-.6,.87-1.02,1.3l-1.99-.82c.42-.48,.72-.9,.9-1.29,.3-.54,.54-1.36,.72-2.38l2.17,.27Zm4.7-.9c.21,.03,.33,.12,.33,.3,0,.09-.12,.21-.36,.33-.21,1.69-.51,2.98-.9,3.89-.03,.06-.03,.09-.03,.09,.84,.63,1.6,1.08,2.2,1.33,.63,.3,1.54,.6,2.74,.84l-1.78,2.11c-1.05-.42-1.99-.9-2.8-1.45-.48-.3-.97-.69-1.45-1.12-.18,.21-.33,.39-.51,.54-1.06,.9-2.41,1.57-4.07,2.02l-1.54-2.02c1.2-.21,2.26-.6,3.19-1.21,.72-.39,1.32-.96,1.78-1.75,.48-.84,.79-2.29,.94-4.34l2.26,.42Zm12.93,12.66v5.3h-7.62l-.85,1.51h10.46v6.96h-2.59v-.93h-15.76v.93h-2.59v-6.96h7.59l.84-1.51h-6.69v-5.3h17.2Zm-.6,10.7v-1.75h-15.76v1.75h15.76Zm-1.75-8.83h-12.51v1.54h12.51v-1.54Zm-6.54-13.44c.18,.03,.3,.12,.3,.27,0,.18-.18,.36-.48,.57-.39,1.12-.87,2.05-1.41,2.83l-1.99-.69c.36-.42,.63-.87,.88-1.39,.3-.63,.57-1.35,.75-2.14l1.96,.54Zm4.13-.06c.24,.06,.39,.15,.39,.33,0,.15-.15,.33-.45,.57-.24,.72-.48,1.35-.78,1.9-.3,.42-.66,.87-1.12,1.3l-1.87-.72c.42-.45,.75-.87,.97-1.29,.33-.54,.6-1.33,.78-2.35l2.08,.27Zm4.19-1.15c.21,.03,.33,.12,.33,.3,0,.09-.12,.21-.36,.36-.21,1.72-.48,3.01-.82,3.86,.97,.72,1.81,1.21,2.5,1.48,.66,.33,1.63,.63,2.89,.9l-1.75,2.11c-1.12-.42-2.11-.93-3.02-1.51-.57-.36-1.11-.75-1.6-1.21-.18,.24-.36,.48-.57,.66-.96,.9-2.23,1.6-3.77,2.05l-1.54-2.02c1.08-.21,2.08-.6,2.92-1.21,.66-.42,1.24-1.02,1.66-1.81,.42-.84,.72-2.29,.84-4.4l2.26,.42Zm4.73,1.42c.18,.03,.3,.12,.3,.3,0,.21-.18,.45-.48,.69-.45,.99-1.03,1.87-1.75,2.59l-2.11-.69c.42-.39,.78-.85,1.08-1.36,.36-.6,.66-1.3,.91-2.08l2.05,.54Z"/>
        <path class="cls-1" d="M159.55,13.12v8.65c.54,.96,1.32,1.66,2.41,2.02,1.23,.42,3.13,.63,5.72,.63,4.88,0,9.34-.18,13.41-.57l-1.06,3.04-12.35,.24c-2.29,0-4.1-.21-5.48-.57-1.45-.39-2.56-1.02-3.38-1.93-.36-.33-.63-.72-.87-1.15l-2.62,2.83c-.18,.36-.39,.57-.6,.57-.24,0-.39-.15-.48-.42l-1.51-2.17c1.6-.93,2.96-1.87,4.1-2.83v-5.76h-2.23v-2.59h4.94Zm-.57-3.77l-1.66,1.78c-1.38-1.11-2.86-2.14-4.46-3.07l1.75-1.75c1.72,.96,3.17,1.96,4.37,3.04Zm1.18-6l-1.66,1.75c-1.23-1.02-2.56-1.96-4-2.8l1.78-1.78c1.51,.9,2.8,1.84,3.89,2.83Zm7.05-1.66c.3,.12,.48,.24,.48,.36,0,.09-.09,.21-.24,.36-.21,.06-.57,.69-1.12,1.84l-.03,.03h3.14V.05l2.47,.21c.48,.06,.72,.18,.72,.39,0,.15-.18,.39-.48,.69v2.95h6.36v2.35h-6.36v3.52h7.53v2.38h-18.35v-2.38h8.11v-3.52h-4.46c-.6,.96-1.23,1.87-1.9,2.71l-2.59-1.42c1.78-1.93,3.23-4.28,4.37-7.05l2.35,.81Zm10.85,12.72v8.83h-2.59v-1.3h-9.79v1.3h-2.59V14.42h14.97Zm-2.59,5.3v-3.07h-9.79v3.07h9.79Z"/>
      </g>
    </g>
  </g>
</svg>