<?xml version="1.0" encoding="UTF-8"?>
<svg id="_圖層_2" data-name="圖層 2" xmlns="http://www.w3.org/2000/svg" viewBox="0 0 699.2 572.06">
  <defs>
    <style>
      .cls-1 {
        fill: none;
        stroke: #736357;
        stroke-miterlimit: 10;
        stroke-width: .75px;
      }

      .cls-2 {
        fill: #fff;
      }

      .cls-3 {
        fill: #5f5d5b;
      }

      .cls-3, .cls-4 {
        opacity: .5;
      }

      .cls-5 {
        fill: #333;
      }

      .cls-6 {
        fill: #1a1a1a;
      }

      .cls-4 {
        fill: #736357;
      }
    </style>
  </defs>
  <g id="_圖層_1-2" data-name="圖層 1">
    <rect class="cls-4" x="278.16" y="0" width="148.87" height="36.24" rx="18.12" ry="18.12"/>
    <g>
      <path class="cls-2" d="M332.3,12.39h-2.05v1.03h-.91v-1.03h-4.42v-.83h4.42v-1.25h.91v1.25h2.05v.83Zm8.24,13.36h-15.62v-.85h7.34v-1.1h-6.44v-.77h6.44v-1.05h-5.75v-4.48h5.75v-.89h-7.18v-.79h7.18v-.97c-.95,.02-2.03,.04-3.23,.04-.79,0-1.46,0-2.02-.02l-.36-.83c1.25,.04,2.4,.05,3.45,.05,3.18,0,6.09-.17,8.73-.52l.4,.77c-2.28,.27-4.3,.42-6.06,.45v1.03h7.18v.79h-7.18v.91h5.71v4.46h-5.71v1.05h6.37v.77h-6.37v1.1h7.36v.85Zm-8.28-6.45v-1h-4.83v1h4.83Zm0,1.82v-1.02h-4.83v1.02h4.83Zm8.26-8.73h-4.35v.81h-.95v-.81h-2.11v-.83h2.11v-1.25h.95v1.25h4.35v.83Zm-2.56,6.91v-1h-4.78v1h4.78Zm0,1.84v-1.04h-4.78v1.04h4.78Z"/>
      <path class="cls-2" d="M360.41,20.98h-1.48v2.3h-5.95v1.48c0,.47-.15,.8-.44,.98-.3,.18-.94,.26-1.92,.26-.32,0-.66-.01-1-.04l-.3-.86,2.27-.02c.31,0,.47-.16,.47-.48v-1.32h-6.4v-.81h6.4v-1.49h-7.38v-.86h7.38v-1.34h-6.4v-.86h6.4v-1.34h-5.83v-3.04h5.83v-1.2h-7.25v-.83h7.25v-1.27h.92v1.27h7.21v.83h-7.21v1.2h5.85v3.04h-5.85v1.34h5.95v2.2h1.48v.86Zm-8.35-5.26v-1.34h-4.87v1.34h4.87Zm5.8,0v-1.34h-4.89v1.34h4.89Zm.11,4.39v-1.34h-5v1.34h5Zm0,2.36v-1.49h-5v1.49h5Z"/>
      <path class="cls-2" d="M380.28,19.03h-12.34v5.62c1.18-.34,2.54-.8,4.08-1.37l.22,.9c-1.84,.69-3.58,1.27-5.2,1.73l-.34-.95c.19-.1,.29-.24,.29-.42v-5.5h-2.4v-.87h2.87v-7.41h11.75v.88h-10.79v1.58h9.84v.89h-9.84v1.58h9.84v.86h-9.84v1.62h11.86v.87Zm-.09,6.01l-.53,.86c-1.95-.46-3.65-1.12-5.09-1.97s-2.54-2.09-3.29-3.74l.83-.38c.65,1.24,1.36,2.16,2.13,2.75,1.24-.64,2.49-1.54,3.77-2.68l.69,.62c-.85,.84-2.05,1.72-3.61,2.65,1.46,.85,3.16,1.48,5.11,1.89Z"/>
    </g>
    <g>
      <path class="cls-6" d="M318.58,64.95l1.94,1.61c-.17,.19-.46,.31-.96,.38-.22,4.82-.77,7.54-1.78,8.42-.6,.53-1.44,.79-2.52,.79,0-.53-.1-1.01-.43-1.25-.34-.29-1.22-.53-2.09-.7l.02-.36c.94,.07,2.52,.19,3,.19,.41,0,.62-.05,.82-.24,.58-.53,.98-3.02,1.2-7.13h-3.38l-.77,.86-1.85-1.3c.24-.19,.55-.36,.86-.48,.26-1.63,.53-4.34,.6-5.86l2.11,.82h2.66v-4.54h-5.54l-.22-.7h5.5l.96-1.03,2.09,1.58c-.14,.19-.53,.41-1.03,.5v5.59c-.02,.14-.91,.53-1.49,.53h-.26v-1.25h-3.19c-.12,1.34-.34,3.19-.53,4.56h3.24l1.03-1.03Zm14.95,2.98c-.12,.19-.38,.24-.77,.12-.91,.6-2.62,1.44-4.01,2.11,1.39,1.7,3.26,2.98,5.52,3.6l-.02,.26c-.72,.17-1.32,.79-1.51,1.75-3.74-1.73-5.64-4.82-6.62-9.6h-2.18v7.13c1.2-.26,2.57-.6,3.98-.94l.07,.31c-1.03,.6-2.93,1.68-5.06,2.78-.17,.34-.41,.58-.62,.7l-1.25-2.3c.89-.46,1.03-.62,1.03-1.08v-6.6h-1.73l-.19-.72h2.42v-10.9l2.26,.91h4.66l1.2-1.46s1.37,1.03,2.21,1.8c-.07,.26-.29,.38-.62,.38h-7.82v2.62h4.44l1.15-1.39s1.27,.96,2.09,1.73c-.07,.26-.31,.38-.65,.38h-7.03v2.66h4.51l1.13-1.39s1.3,.98,2.09,1.7c-.07,.26-.31,.38-.62,.38h-7.1v2.57h6.24l1.2-1.49s1.34,1.03,2.18,1.82c-.07,.26-.31,.38-.65,.38h-6.84c.43,1.27,1.03,2.47,1.78,3.48,1.06-.98,2.18-2.28,2.81-3.19l2.35,1.46Z"/>
      <path class="cls-6" d="M345.37,60.75c-.1,.38-.19,.77-.34,1.13,5.59,.96,4.97,4.49,3.12,3.67-.6-1.08-2.04-2.33-3.34-3.17-.86,1.9-2.57,3.38-6.05,4.54l-.26-.38c3.38-1.54,4.58-3.43,5.02-5.79h-4.8l-.17-.7h5.09c.1-.86,.14-1.8,.14-2.78h-1.54c-.72,1.03-1.56,1.9-2.47,2.52l-.34-.26c.96-1.32,1.75-3.38,2.16-5.59l2.64,.79c-.1,.29-.38,.5-.86,.5-.22,.46-.43,.91-.67,1.32h4.08l1.15-1.46s1.3,1.06,2.09,1.8c-.05,.26-.31,.38-.62,.38h-3.65c-.05,.98-.1,1.92-.24,2.78h1.73l1.13-1.46s1.32,1.01,2.14,1.78c-.07,.26-.29,.38-.62,.38h-4.51Zm9.77,4.83l2.11,1.61c-.14,.17-.5,.38-.94,.46v7.78c-.02,.14-.98,.55-1.61,.55h-.31v-1.39h-9.7v.84c0,.19-.79,.65-1.58,.65h-.29v-10.32l2.04,.89h9.29l.98-1.06Zm-10.44,1.75v2.88h9.7v-2.88h-9.7Zm9.7,6.55v-3h-9.7v3h9.7Zm5.81-16.87c-.12,.19-.5,.38-.98,.48v7.06c-.02,.17-.96,.55-1.56,.55h-.29v-1.58h-4.51v1.34c0,.17-.79,.62-1.56,.62h-.29v-9.86l1.97,.82h4.15l.96-1.06,2.11,1.63Zm-2.83,5.83v-5.69h-4.51v5.69h4.51Z"/>
      <path class="cls-6" d="M364.83,59.7c5.28,.58,3.94,4.27,2.04,3.12-.31-1.03-1.34-2.26-2.26-2.93l.22-.19Zm6.17-1.34c-.82,2.95-2.3,8.4-2.57,9.6-.17,.74-.31,1.54-.29,2.14,.02,1.15,.79,2.21,.7,4.22-.02,1.08-.6,1.73-1.49,1.73-.46,0-.82-.41-.91-1.18,.36-2.42,.24-4.46-.26-4.82-.31-.24-.65-.31-1.15-.36v-.5h1.01c.29,0,.38-.02,.6-.53q.38-.84,3.94-10.39l.43,.1Zm-4.56-4.2c5.57,.74,4.18,4.56,2.23,3.34-.36-1.13-1.49-2.4-2.45-3.12l.22-.22Zm19.92,.79c-.05,.31-.24,.53-.79,.62v19.83c0,.24-.79,.7-1.42,.7h-.38v-8.18h-2.69v7.13c0,.12-.53,.53-1.34,.53h-.24v-9.17l1.9,.82h2.38v-2.59h-10.27v.17c0,.84-.05,1.63-.12,2.42h2.18l.86-.94,1.92,1.44c-.17,.19-.53,.36-.96,.46v6.91c-.02,.14-.82,.5-1.34,.5h-.24v-7.68h-2.5c-.41,3.26-1.54,6.17-4.18,8.33l-.34-.26c2.4-2.95,2.93-6.79,2.93-11.18v-10.11l2.62,.26c-.05,.34-.24,.6-.84,.7v4.9h2.47v-6.6l2.33,.26c-.05,.29-.22,.48-.74,.58v7.11c0,.17-.72,.53-1.25,.53h-.34v-1.18h-2.47v2.66h10.27v-2.54h-2.33v.02h.19l-.7,.86-1.99-1.18c.22-.22,.55-.43,.89-.58v-6.58l2.57,.31c-.05,.29-.26,.48-.96,.58v5.86h2.33v-6l2.59,.29Z"/>
    </g>
    <g>
      <path class="cls-5" d="M220.83,91.48h-5.32c-.73,.87-1.34,1.53-1.82,1.99l-.79-.54c1.43-1.32,2.46-2.6,3.1-3.85l.89,.34c-.2,.4-.45,.8-.74,1.2h4.68v.86Zm7.14,7.74c0,.57-.06,1.36-.19,2.35-.13,.99-.3,1.59-.52,1.8-.22,.21-.41,.35-.59,.42-.18,.07-.67,.11-1.47,.11-.53,0-1.07-.02-1.61-.05l-.34-.93c.46,.06,1.38,.09,2.74,.09,.39,0,.65-.23,.77-.69,.12-.46,.21-1.2,.26-2.23h-5.66v4.86h-.91v-4.48c-1.78,1.75-4.14,3.08-7.09,4l-.47-.83c2.89-.89,5.1-2.07,6.62-3.55h-5.57l.74-3.4h5.77v-1.65h-6.67v-.84h13.62v3.37h-6.04v1.67h6.61Zm-7.52,0v-1.67h-4.99l-.34,1.67h5.34Zm-1.66-6.06l-.89,.38c-.29-.52-.65-.98-1.06-1.41l.86-.41c.45,.49,.81,.97,1.08,1.44Zm9.95-1.68h-5.78c-.55,.63-1.19,1.28-1.95,1.95l-.81-.58c1.34-1.05,2.41-2.28,3.22-3.69l.88,.34c-.18,.36-.42,.73-.71,1.12h5.15v.86Zm-2.27,5.2v-1.65h-5.12v1.65h5.12Zm-.23-3.35l-.91,.31c-.26-.54-.61-1.03-1.03-1.48l.89-.36c.48,.55,.83,1.06,1.05,1.53Z"/>
      <path class="cls-5" d="M248.48,96.23h-7.3v8.77h-1.01v-8.77h-7.34v-.97h7.34v-6.07h1.01v6.07h7.3v.97Z"/>
      <path class="cls-5" d="M268.33,104.56h-15.64v-.98h15.64v.98Zm-.92-13.97h-13.83v-.98h13.83v.98Zm-.74,6.71h-12.34v-1.03h12.34v1.03Z"/>
      <path class="cls-5" d="M287.07,94.13h-12.01v1.87c0,3.45-.7,6.42-2.09,8.94l-.8-.55c1.29-2.34,1.94-4.83,1.94-7.45v-7.32h12.96v4.52Zm-.97-.92v-2.7h-11.04v2.7h11.04Zm.86,11.79h-.96v-.78h-9.4v-8.56h.94v7.7h8.45v-7.7h.96v9.34Zm-1.7-6.9h-3.06v2.92h2.65v.88h-6.11v-.88h2.54v-2.92h-2.91v-.86h2.91v-2.3h.92v2.3h3.06v.86Z"/>
      <path class="cls-5" d="M308.06,94.89l-.57,.84c-1.17-.54-2.14-1.05-2.91-1.53v.86h-4.01v2.56h6.44v.91h-6.44v5.04h6.82v.91h-14.37v-.91h6.62v-5.04h-6.28v-.91h6.28v-2.56h-3.84v-.93c-1.1,.66-2.08,1.16-2.94,1.51l-.62-.83c3.37-1.32,5.97-3.21,7.79-5.67l1,.34-.25,.31c1.88,2.22,4.3,3.92,7.26,5.1Zm-10.43,7.54l-.88,.36c-.32-.8-.92-1.8-1.79-2.99l.85-.4c.77,1.03,1.38,2.03,1.81,3.02Zm6.78-8.34c-1.47-.87-2.87-2.07-4.22-3.58-1.06,1.25-2.49,2.45-4.29,3.58h8.51Zm1.18,5.78c-.7,1.32-1.38,2.33-2.03,3.04l-.85-.52c.65-.65,1.33-1.64,2.05-2.97l.82,.45Z"/>
      <path class="cls-5" d="M318.81,93.26c-1.03,1.39-1.93,2.4-2.7,3.02,0,.88-.08,1.83-.24,2.83,1.09,1.13,1.93,2.19,2.54,3.16l-.7,.62c-.65-1.05-1.34-1.95-2.05-2.72-.57,1.72-1.5,3.32-2.78,4.8l-.81-.57c1.07-1.12,1.87-2.35,2.39-3.68s.78-3.07,.78-5.19v-6.32h.89v5.87c.74-.7,1.42-1.54,2.05-2.5l.63,.69Zm-4.51,3.67l-.85,.62c-.26-1.42-.71-2.92-1.34-4.48l.72-.54c.65,1.54,1.13,3.01,1.46,4.41Zm13.61,7.59h-9.93v-.91h1.43v-13.03h-1.22v-.91h9.4v.91h-7.26v3.51h6.59v5.94h-6.59v3.59h7.59v.91Zm-1.96-5.4v-4.12h-5.63v4.12h5.63Z"/>
      <path class="cls-5" d="M347.68,104.16l-.46,.87c-3.49-.6-5.97-1.96-7.42-4.07-.77,1.2-1.86,2.13-3.28,2.81-1.06,.51-2.44,.92-4.13,1.23l-.43-.86c1.63-.29,2.93-.64,3.88-1.05,1.4-.6,2.42-1.42,3.07-2.48h-6.62v-.85h7.04c.17-.54,.29-1.05,.35-1.52l.89,.13c-.09,.52-.2,.98-.33,1.39h7.07v.85h-6.71c1.44,1.9,3.8,3.09,7.08,3.55Zm-10.5-5.72h-.87v-3.48h-2.01c-.09,1.41-.62,2.5-1.58,3.25l-.68-.55c.9-.81,1.36-1.71,1.37-2.7h-1.2v-.86h4.09v-1.63h-3.24v-2.86h.89v2h2.35v-2.37h.87v9.21Zm9.68-8.01l-.05,.78c-2.32,1.7-5.18,2.66-8.59,2.88l-.41-.78c1.73-.08,3.29-.35,4.69-.8-.56-.5-1.27-.99-2.1-1.45-.48,.18-1.23,.43-2.24,.76l-.46-.75c2.08-.59,3.65-1.22,4.71-1.92l.82,.47c-.13,.11-.33,.23-.58,.36l4.21,.44Zm.77,5.13h-1.73v1.51c0,.75-.34,1.16-1.02,1.22-.46,.04-1.01,.05-1.63,.02l-.27-.78c.35,.01,.85,0,1.51-.02,.13,0,.25-.06,.35-.17,.1-.11,.15-.23,.15-.36v-1.42h-7.03v-.84h7.03v-1.44h.91v1.44h1.73v.84Zm-6.96-3.2c-.65,.18-1.23,.32-1.76,.41l-.27-.63c.63-.11,1.26-.25,1.88-.43l.16,.65Zm1.55,4.81l-.51,.62c-.66-.47-1.43-.89-2.32-1.27l.46-.69c.8,.33,1.6,.78,2.38,1.34Zm3.26-6.01l-4.1-.44c.62,.35,1.3,.85,2.04,1.49,.89-.38,1.57-.72,2.06-1.05Zm1.99,7.56l-.44,.67c-.38-.28-.82-.53-1.32-.76l.42-.68c.49,.18,.94,.44,1.34,.76Z"/>
      <path class="cls-5" d="M355.69,89.39c-.13,.54-.35,1.26-.65,2.14l-.45,1.27v12.15h-.92v-9.83c-.52,1.07-.97,1.9-1.35,2.47l-.55-.84c.96-1.61,1.98-4.14,3.05-7.6l.87,.25Zm3.6,11.94c-1.1,1.25-2.23,2.25-3.39,2.99l-.7-.67c1.07-.65,2.19-1.62,3.35-2.92l.74,.6Zm2-10.35c-.57,3.85-2.23,6.34-4.98,7.47l-.5-.7c1.22-.6,2.16-1.31,2.83-2.14-.45-.47-1.04-1.04-1.8-1.71-.27,.43-.6,.81-.98,1.13l-.65-.62c1.24-1.27,2.18-3.01,2.82-5.2l.86,.24c-.12,.41-.28,.92-.5,1.53h2.9Zm6.24,8.82h-5.71v5.12h-.96v-5.12h-5.46v-.87h5.46v-1.87h.96v1.87h5.71v.87Zm-7.28-7.94h-2.24c-.26,.56-.49,.99-.69,1.31,.5,.43,1.1,.97,1.81,1.62,.46-.8,.84-1.78,1.12-2.93Zm7.04,4.14h-1.98v2.15h-.9v-2.15h-2.7l.41-3.79h-.46v-.86h2.75v-2.16h.9v2.16h1.88v.86h-1.88v2.92h1.98v.87Zm-2.88-.87v-2.92h-1.41l-.33,2.92h1.73Zm3.1,8.55l-.65,.67c-.88-.92-2.1-1.9-3.67-2.95l.66-.69c1.41,.96,2.63,1.95,3.66,2.97Z"/>
      <path class="cls-5" d="M386.37,104.98h-.97v-.84h-12.7v-6.05h.94v5.12h5.44v-6.92h-5.63v-5.92h.98v4.98h4.65v-6.13h.92v6.13h4.59v-4.98h.95v5.92h-5.49v6.92h5.35v-5.13h.97v6.91Z"/>
      <path class="cls-5" d="M407.17,94.92l-.5,.88c-3.01-1.12-5.54-2.81-7.58-5.05-1.63,1.93-4.02,3.66-7.18,5.19l-.66-.81c3.34-1.44,5.94-3.43,7.8-5.98l1.07,.22c-.11,.21-.24,.38-.38,.54,1.53,2.1,4.01,3.77,7.43,5.01Zm-.11,9.74h-15.69v-.92h2.99v-6.68h1v6.68h3.62v-10.03h1v4.12h5.44v.94h-5.44v4.97h7.09v.92Z"/>
      <path class="cls-5" d="M427.04,100.44h-7.32v4.58h-.96v-4.58h-7.41v-.9h7.41v-1.48h-6.62v-.84h6.62v-1.41h-7v-.88h4.71c-.29-.52-.63-.99-1.01-1.41l.69-.43h-4.8v-.91h5.95v-2.91h.92v2.91h2.03v-2.91h.9v2.91h5.85v.91h-4.69l.65,.45c-.21,.45-.5,.91-.9,1.39h4.56v.88h-6.9v1.41h6.47v.84h-6.47v1.48h7.32v.9Zm-9.88,1.37c-1.33,1.04-3.05,1.96-5.16,2.75l-.6-.79c2.27-.81,3.96-1.67,5.07-2.58l.69,.62Zm-1.7-10.48l-.79,.47c-.44-.58-1.03-1.18-1.77-1.81l.82-.56c.7,.65,1.29,1.29,1.74,1.91Zm6.62,1.77h-5.71c.55,.76,.95,1.37,1.19,1.84h3.39c.58-.74,.95-1.36,1.14-1.84Zm4.97,10.89l-.54,.74c-1.84-1.2-3.6-2.14-5.27-2.85l.54-.72c2.03,.88,3.79,1.82,5.27,2.83Zm-1.46-14.12c-.5,.7-1.11,1.33-1.82,1.87l-.83-.47c.8-.69,1.41-1.29,1.8-1.82l.85,.41Z"/>
      <path class="cls-5" d="M433.16,100.68c-.29,1.66-.69,3.03-1.18,4.1l-.83-.41c.43-1,.81-2.3,1.15-3.89l.85,.2Zm4.24-1.31l-.83,.32c-.06-.34-.13-.62-.19-.83-1.78,.49-3.39,.87-4.83,1.13l-.33-.77c1.38-1.24,2.58-2.67,3.59-4.32-1,.19-2.07,.36-3.21,.52l-.21-.83c1.34-1.56,2.38-3.35,3.13-5.39l.89,.24c-.59,1.62-1.49,3.27-2.69,4.95,.75-.09,1.63-.23,2.65-.41,.38-.56,.76-1.26,1.16-2.08l.88,.34c-1.5,2.77-3.01,4.97-4.54,6.58,1.05-.21,2.12-.46,3.22-.77-.1-.36-.27-.78-.52-1.26l.83-.33c.52,1.14,.85,2.11,1,2.9Zm-2.03,4.91l-.88,.18c.02-1.15-.1-2.41-.34-3.78l.81-.16c.32,1.5,.46,2.75,.41,3.76Zm2.44-1.46l-.79,.31c-.19-.92-.45-1.77-.77-2.56l.76-.31c.36,.81,.63,1.67,.81,2.56Zm2.6-4.81l-.79,.38c-.68-1.31-1.43-2.48-2.25-3.51,.85-1.22,1.52-2.32,2-3.31l.85,.33c-.53,1.1-1.12,2.09-1.78,2.99,.74,.94,1.4,1.99,1.98,3.13Zm6.45,6.55h-9.31v-.9h4.17v-3.67h-3.67v-.91h8.36v.91h-3.73v3.67h4.18v.9Zm-.22-13.97h-9.07v-.9h9.07v.9Zm-3.03,7.31l-.79,.45c-.6-1.16-1.33-2.29-2.18-3.4,.85-1.22,1.48-2.29,1.9-3.23l.92,.29c-.49,.96-1.09,1.93-1.79,2.92,.73,.98,1.38,1.97,1.95,2.97Zm3.2,.04l-.79,.43c-.6-1.14-1.34-2.26-2.22-3.37,.8-1.15,1.45-2.26,1.95-3.33l.88,.33c-.56,1.1-1.14,2.07-1.73,2.94,.85,1.19,1.48,2.19,1.91,3.01Z"/>
      <path class="cls-5" d="M456.36,100.68c-1.3,.74-3.01,1.64-5.11,2.7l-.4-.79c1.1-.53,1.94-.96,2.51-1.29v-4.97h-2.1v-.88h2.1v-4.12h-2.39v-.84h5.38v.84h-2.1v4.12h1.88v.88h-1.88v4.48c.62-.3,1.27-.67,1.96-1.1l.13,.98Zm10.36,3.92h-10.39v-.88h4.71v-2.58h-4.02v-.9h4.02v-2.21h-3.87v-8.37h8.73v8.37h-3.94v2.21h4.15v.9h-4.15v2.58h4.76v.88Zm-5.68-11.22v-2.83h-2.96v2.83h2.96Zm0,3.74v-2.87h-2.96v2.87h2.96Zm3.93-3.74v-2.83h-3.01v2.83h3.01Zm0,3.74v-2.87h-3.01v2.87h3.01Z"/>
      <path class="cls-5" d="M486.6,104.25l-.7,.71c-3.75-2.64-6.16-6.26-7.23-10.87-.76,4.21-3.16,7.82-7.18,10.84l-.65-.77c1.37-.93,2.62-2.1,3.75-3.5,1.13-1.4,2-2.94,2.59-4.63s.91-3.96,.95-6.83h1c-.04,3.32,.63,6.27,1.99,8.83,1.36,2.56,3.19,4.64,5.48,6.23Z"/>
    </g>
    <rect class="cls-3" x="276.27" y="174.5" width="148.87" height="36.24" rx="18.12" ry="18.12"/>
    <g>
      <path class="cls-2" d="M328.59,199.78h-15.69v-.93h7.41v-4.84h-5.9v-.94h5.9v-4.4h-6.74v-.94h7.04c-.53-1.26-1.1-2.24-1.7-2.95l.92-.36c.71,1.01,1.31,2.11,1.8,3.31h6.33v.94h-6.64v4.4h5.74v.94h-5.74v4.84h7.27v.93Z"/>
      <path class="cls-2" d="M337.2,184.73c-.19,.53-.45,1.16-.77,1.87l-.48,1.03v12.61h-.98v-10.67c-.73,1.24-1.38,2.19-1.95,2.85l-.55-.98c1.56-1.98,2.83-4.33,3.81-7.06l.92,.34Zm11.22,8.05h-5.28v6.13h4.83v.91h-10.75v-.91h4.94v-6.13h-5.37v-.94h5.37v-6.01h-4.49v-.91h9.96v.91h-4.49v6.01h5.28v.94Z"/>
      <path class="cls-2" d="M358.47,192.31c-.69,.31-1.45,.62-2.27,.94v5.79c0,.34-.14,.63-.41,.88-.27,.25-1.03,.36-2.28,.32l-.38-1c.36,.02,.71,.03,1.03,.03,.5,0,.82-.04,.93-.11,.12-.07,.18-.2,.18-.38v-5.19c-.65,.22-1.45,.47-2.4,.74l-.33-.85c1-.3,1.91-.59,2.72-.86v-4.05h-2.58v-.93h2.58v-3.17h.92v3.17h2.03v.93h-2.03v3.67c.5-.15,1.17-.42,2-.79l.27,.86Zm9.97,7.2l-.54,.82c-1.91-.84-3.41-1.75-4.51-2.74-1.53,1.07-3.32,1.98-5.35,2.72,0,0-.01,0-.01,0,0,0-.01-.02-.03-.04-.02-.02-.06-.08-.14-.19-.08-.11-.21-.31-.4-.61,1.88-.58,3.63-1.42,5.27-2.53-1.2-1.37-2.1-3.04-2.69-5.03h-.83v-.91h3.73v-2.94h-3.99v-.91h3.99v-2.69h.97v2.69h4.2v.91h-4.2v2.94h3.37v.91c-.36,1.32-.81,2.36-1.34,3.12-.54,.76-1.14,1.42-1.81,1.97,1.01,.94,2.44,1.77,4.31,2.5Zm-2.09-7.59h-5.32c.52,1.75,1.33,3.23,2.41,4.45,1.45-1.16,2.42-2.64,2.91-4.45Z"/>
      <path class="cls-2" d="M378.79,199.15h-4.63v1.13h-.94v-13.68h1.84c.43-.78,.76-1.49,.98-2.13l.9,.27c-.19,.56-.49,1.17-.88,1.85h2.31v4.84h-4.2v2.34h4.63v5.37Zm-1.39-8.57v-3.08h-3.24v3.08h3.24Zm.44,7.66v-3.58h-3.68v3.58h3.68Zm10.4-12.35h-3.86v2.54h3.1v9.27c0,.97-.69,1.39-2.07,1.27l-.29-.93c.29,.02,.52,.03,.7,.03,.5,0,.75-.17,.75-.5v-8.26h-2.18v10.97h-.92v-10.97h-2.23v9.67h-.94v-10.55h3.17v-2.54h-3.98v-.93h8.76v.93Z"/>
    </g>
    <g>
      <path class="cls-4" d="M289.65,234.49c.69,0,1.27,.24,1.76,.73,.48,.48,.73,1.07,.73,1.75s-.24,1.26-.73,1.75-1.07,.73-1.76,.73-1.27-.24-1.75-.73-.73-1.07-.73-1.75,.24-1.27,.73-1.75c.49-.48,1.07-.73,1.75-.73Z"/>
      <path class="cls-5" d="M318.73,242.9h-15.76v-.93h7.38v-12.26h-6.62v-.99h14.18v.99h-6.58v12.26h7.4v.93Z"/>
      <path class="cls-5" d="M328.93,236.92l-.65,.72c-.43-.81-.95-1.56-1.55-2.25v8.33h-.94v-8.37c-.85,1.91-1.66,3.39-2.43,4.45l-.63-.74c1.18-1.63,2.18-3.55,3.01-5.76h-2.92v-.91h2.98v-2.66l-2.2,.41-.48-.9c2.1-.25,3.84-.66,5.21-1.24l.55,.83c-.88,.3-1.59,.53-2.14,.69v2.87h2.14v.91h-2.14v.74c1.1,1.22,1.83,2.18,2.2,2.87Zm9.55,6.37h-10.15v-.88h4.63v-2.75h-4v-.91h4v-2.61c-1.93,.12-3.11,.19-3.57,.2l-.43-.92c3.32-.06,6.18-.38,8.58-.95l.61,.81c-1.21,.28-2.62,.53-4.24,.76v2.72h3.87v.91h-3.87v2.75h4.56v.88Zm-1.15-9.86h-7.74v-4.91h7.74v4.91Zm-.96-.91v-3.1h-5.82v3.1h5.82Z"/>
      <path class="cls-5" d="M358.35,233.16h-2.87l-.16,1.82h-10.06l.17-1.82h-2.76v-.69h2.85l.19-1.74h10.03l-.18,1.74h2.79v.69Zm-2.29,8.16h-7.3l.4,.56c-1.97,1.04-3.91,1.68-5.83,1.91l-.54-.83c1.99-.21,3.88-.76,5.66-1.63h-3.48v-5.41h11.09v5.41Zm1.62-9.84h-.92v-1.7h-12.51v1.63h-.92v-2.4h6.67c-.15-.3-.3-.56-.47-.77l.86-.31c.15,.22,.36,.58,.63,1.08h6.65v2.47Zm-2.54,5.99v-.83h-9.31v.83h9.31Zm0,1.56v-.84h-9.31v.84h9.31Zm0,1.56v-.84h-9.31v.84h9.31Zm-5.18-7.44h-3.61l-.11,1.08h3.63l.09-1.08Zm.18-1.71h-3.62l-.11,1.02h3.65l.09-1.02Zm4.4,1.71h-3.65l-.09,1.08h3.65l.09-1.08Zm.2-1.71h-3.66l-.09,1.02h3.65l.1-1.02Zm3.36,11.53l-.35,.78c-1.56-.58-3.56-1.03-5.99-1.34l.38-.72c2.44,.31,4.43,.74,5.96,1.27Z"/>
      <path class="cls-5" d="M369.34,233.81c-.08,1.54-.55,2.92-1.41,4.14l-.69-.65c.52-.78,.88-1.64,1.08-2.59h-1.68v7.9c0,.23-.1,.48-.29,.73-.19,.26-.68,.38-1.46,.38-.3,0-.58-.02-.83-.05l-.53-.97c.76,.06,1.36,.09,1.79,.09,.09,0,.18-.04,.28-.13,.1-.09,.15-.18,.15-.26v-6.5c-.88,2.2-1.79,3.92-2.74,5.16l-.62-.72c1.06-1.37,2.01-3.25,2.87-5.63h-2.8v-.9h3.99c-.75-.86-1.68-1.67-2.77-2.43l.66-.6c.43,.29,.97,.71,1.63,1.26,.83-.95,1.49-1.85,1.98-2.72h-4.85v-.9h5.88v.9c-.59,1.09-1.36,2.19-2.32,3.31l.62,.69-.56,.48h2.6Zm7.75,4.12c-.04,1.22-.13,2.33-.29,3.31-.16,.98-.32,1.58-.48,1.78s-.36,.38-.61,.53c-.24,.15-1.02,.2-2.32,.16l-.43-.97c.37,.03,.77,.04,1.21,.04,.66,0,1.05-.03,1.18-.1,.13-.06,.22-.16,.3-.29,.07-.13,.15-.52,.25-1.19,.09-.67,.18-1.47,.26-2.4h-3.01c-.5,2.31-2,3.97-4.47,4.96l-.69-.74c.99-.3,1.89-.85,2.69-1.64,.8-.79,1.32-1.65,1.54-2.58h-2.86v-.9h3.08c.09-.47,.14-1.08,.16-1.8l.91,.04c0,.44-.05,1.03-.15,1.77h3.75Zm1.07-2.18l-.52,.81c-1.39-.41-2.68-1.05-3.88-1.92-1.13,.83-2.28,1.46-3.46,1.89l-.63-.77c1.13-.34,2.25-.91,3.35-1.71-.74-.74-1.28-1.41-1.62-2l.79-.45c.41,.71,.92,1.33,1.53,1.87,.82-.7,1.46-1.67,1.91-2.9h-3.86c-.77,.97-1.47,1.71-2.11,2.21l-.7-.64c1.34-1.05,2.47-2.47,3.39-4.24l.9,.34c-.22,.45-.5,.92-.85,1.42h5.48v.9h-1.28c-.47,1.39-1.18,2.55-2.13,3.46,1.11,.78,2.34,1.35,3.68,1.72Z"/>
      <path class="cls-5" d="M385.03,232.83c-.59,.97-1.28,1.81-2.06,2.5l-.69-.63c.8-.73,1.49-1.52,2.04-2.39l.7,.52Zm5.2-1.02h-3.44v3.45h-.9v-3.45h-3.37v-.79h3.17v-2.95h.89v.81h3.03v.83h-3.03v1.32h3.65v.79Zm5.34,12.01h-.89v-.77h-8.98v.77h-.92v-7.96h10.79v7.96Zm-.89-5.85v-1.26h-8.98v1.26h8.98Zm0,2.13v-1.28h-8.98v1.28h8.98Zm0,2.14v-1.33h-8.98v1.33h8.98Zm-4.99-8.11l-.74,.54c-.47-.77-.9-1.37-1.28-1.8l.74-.5c.39,.45,.81,1.03,1.28,1.77Zm8.33,.55l-.52,.77c-1.16-.39-2.28-.98-3.35-1.76-1.13,.79-2.32,1.37-3.58,1.76l-.64-.74c1.23-.33,2.38-.87,3.46-1.6-1-1-1.76-2.24-2.27-3.73h-.55v-.86h6.53v.86c-.6,1.59-1.36,2.84-2.27,3.73,.83,.61,1.9,1.13,3.19,1.56Zm-1.89-5.29h-4.06c.48,1.3,1.16,2.36,2.04,3.17,.89-.85,1.56-1.91,2.02-3.17Z"/>
      <path class="cls-5" d="M417.84,237.71l-.24,.8h-6.38c-2.07,0-3.54-.15-4.39-.44-.85-.29-1.52-.64-1.99-1.03-.56,.58-1.29,1.15-2.17,1.72l-.56-.7c1.51-.9,2.6-2,3.28-3.29h-2.89v-.85c.97-.73,1.85-1.46,2.62-2.2h-2.84v-.84h3.98v.84c-.76,.8-1.58,1.54-2.45,2.21h2.45v.83c-.23,.61-.55,1.17-.95,1.67,.46,.38,1.07,.69,1.82,.92s2.2,.35,4.36,.35h6.37Zm-.05,2.78h-3.37v1.82c0,.46-.15,.81-.44,1.04s-.85,.34-1.69,.34h-1.25l-.29-.88c1.19,.01,1.95,0,2.27-.02s.48-.16,.48-.41v-1.89h-11.3v-.89h11.3v-.61h.92v.61h3.37v.89Zm-11.99-10.64l-.65,.6c-.69-.64-1.53-1.27-2.52-1.89l.68-.58c.95,.57,1.78,1.2,2.49,1.87Zm3.17,12.48l-.57,.72c-.73-.47-1.7-.93-2.91-1.37l.56-.72c.95,.32,1.92,.78,2.91,1.37Zm8.79-12.16h-4.92c-.22,.44-.4,.75-.53,.94h4.53v5.53h-9.12v-5.53h3.63c.25-.36,.43-.67,.54-.94h-5.2v-.81h11.08v.81Zm-7.19-1.48l-.77,.47c-.34-.29-.75-.55-1.22-.79l.77-.49c.46,.21,.86,.48,1.22,.81Zm5.35,3.98v-.83h-7.26v.83h7.26Zm0,1.62v-.91h-7.26v.91h7.26Zm0,1.59v-.92h-7.26v.92h7.26Zm0-7.57c-.38,.28-.82,.54-1.32,.79l-.76-.54c.45-.17,.9-.42,1.34-.74l.74,.48Z"/>
      <path class="cls-4" d="M289.65,270.49c.69,0,1.27,.24,1.76,.73,.48,.48,.73,1.07,.73,1.75s-.24,1.26-.73,1.75-1.07,.73-1.76,.73-1.27-.24-1.75-.73-.73-1.07-.73-1.75,.24-1.27,.73-1.75c.49-.48,1.07-.73,1.75-.73Z"/>
      <path class="cls-5" d="M318.73,278.9h-15.76v-.93h7.38v-12.26h-6.62v-.99h14.18v.99h-6.58v12.26h7.4v.93Z"/>
      <path class="cls-5" d="M328.93,272.92l-.65,.72c-.43-.81-.95-1.56-1.55-2.25v8.33h-.94v-8.37c-.85,1.91-1.66,3.39-2.43,4.45l-.63-.74c1.18-1.63,2.18-3.55,3.01-5.76h-2.92v-.91h2.98v-2.66l-2.2,.41-.48-.9c2.1-.25,3.84-.66,5.21-1.24l.55,.83c-.88,.3-1.59,.53-2.14,.69v2.87h2.14v.91h-2.14v.74c1.1,1.22,1.83,2.18,2.2,2.87Zm9.55,6.37h-10.15v-.88h4.63v-2.75h-4v-.91h4v-2.61c-1.93,.12-3.11,.19-3.57,.2l-.43-.92c3.32-.06,6.18-.38,8.58-.95l.61,.81c-1.21,.28-2.62,.53-4.24,.76v2.72h3.87v.91h-3.87v2.75h4.56v.88Zm-1.15-9.86h-7.74v-4.91h7.74v4.91Zm-.96-.91v-3.1h-5.82v3.1h5.82Z"/>
      <path class="cls-5" d="M348.45,271.79c-.69,.31-1.45,.62-2.27,.94v5.79c0,.34-.14,.63-.41,.88-.27,.25-1.03,.36-2.28,.32l-.38-1c.36,.02,.71,.03,1.03,.03,.5,0,.82-.04,.93-.11,.12-.07,.18-.2,.18-.38v-5.19c-.65,.22-1.45,.47-2.4,.74l-.33-.85c1-.3,1.91-.59,2.72-.86v-4.05h-2.58v-.93h2.58v-3.17h.92v3.17h2.03v.93h-2.03v3.67c.5-.15,1.17-.42,2-.79l.27,.86Zm9.97,7.2l-.54,.82c-1.91-.84-3.41-1.75-4.51-2.74-1.53,1.07-3.32,1.98-5.35,2.72,0,0-.01,0-.01,0,0,0-.01-.02-.03-.04-.02-.02-.06-.08-.14-.19-.08-.11-.21-.31-.4-.61,1.88-.58,3.63-1.42,5.27-2.53-1.2-1.37-2.1-3.04-2.69-5.03h-.83v-.91h3.73v-2.94h-3.99v-.91h3.99v-2.69h.97v2.69h4.2v.91h-4.2v2.94h3.37v.91c-.36,1.32-.81,2.36-1.34,3.12-.54,.76-1.14,1.42-1.81,1.97,1.01,.94,2.44,1.77,4.31,2.5Zm-2.09-7.59h-5.32c.52,1.75,1.33,3.23,2.41,4.45,1.45-1.16,2.42-2.64,2.91-4.45Z"/>
      <path class="cls-5" d="M366.43,268.68c-.39,.73-.8,1.43-1.24,2.11v8.87h-.94v-7.63c-.53,.62-1,1.1-1.41,1.46l-.54-.76c1.3-1.21,2.38-2.65,3.24-4.32l.89,.27Zm.19-4.48c-1.07,1.46-2.32,2.73-3.77,3.81l-.5-.79c1.37-1.05,2.5-2.19,3.39-3.4l.88,.38Zm1.53,5.7c0,3.67-.34,6.36-1.02,8.07l-.92-.29c.68-1.84,1.04-4.43,1.08-7.78h.86Zm5.47-1.74h-3.2v11.53h-.93v-11.53h-2.89v-.92h2.89v-3.28h.93v3.28h3.2v.92Zm-.31-2.21l-.74,.54c-.4-.7-.84-1.31-1.31-1.84l.64-.55c.7,.73,1.17,1.35,1.41,1.85Zm1.12,10.82h-1.46c-.36,0-.64-.11-.84-.32-.2-.21-.3-.48-.3-.79v-5.75h.92v5.65c0,.06,.04,.13,.11,.21s.15,.11,.21,.11h1.35v.89Zm3.72-6.64h-1.46v8.17c0,.31-.09,.6-.28,.86-.19,.26-.7,.4-1.53,.4-.32,0-.65-.01-1-.04l-.34-.98c.87,.05,1.44,.07,1.71,.07,.36,0,.55-.2,.55-.59v-7.9h-2.24v-.91h4.6v.91Zm-.36-4.16h-3.77v-.91h3.77v.91Z"/>
      <path class="cls-5" d="M387.69,266.72h-5.4v-.87h2.51c-.21-.59-.48-1.13-.79-1.63l.85-.36c.39,.64,.68,1.3,.88,2h1.96v.87Zm-.4,2.65h-4.55v-.89h4.55v.89Zm0,2.65h-4.55v-.91h4.55v.91Zm-.15,7.25h-.93v-.95h-2.42v1.36h-.97v-5.96h4.32v5.55Zm-.93-1.82v-2.84h-2.42v2.84h2.42Zm5.05-6.93h-3.19v-.92h3.19v.92Zm-.07-4.86h-2.7v-.88h2.7v.88Zm6.8,6.79l-.45,.84c-2.02-.66-3.39-1.68-4.09-3.04-.73,1.34-2.15,2.34-4.24,3.02l-.58-.84c1.06-.15,2.06-.62,3.02-1.39,.96-.78,1.48-1.97,1.55-3.57h.94c-.11,.64-.17,1.16-.17,1.56,0,.59,.36,1.21,1.09,1.89s1.7,1.18,2.91,1.54Zm-1.24,7.29h-.92v-1.09h-5.97v1.07h-.93v-5.81h7.83v5.83Zm-.92-1.98v-2.95h-5.97v2.95h5.97Zm1.79-12.11c-.25,1.28-.65,2.44-1.21,3.49l-.85-.43c.44-.9,.74-1.63,.9-2.2h-3.72c-.42,.64-.94,1.29-1.57,1.92l-.65-.64c.99-.95,1.88-2.25,2.69-3.89l.87,.29c-.25,.51-.51,1-.8,1.46h4.33Z"/>
      <path class="cls-5" d="M408.23,266.75h-6.04v-.89h2.71l-.8-1.67,.91-.34,.88,2.01h2.34v.89Zm-.52,2.63h-5.12v-.86h5.12v.86Zm0,2.59h-5.12v-.89h5.12v.89Zm-.24,7.32h-.93v-.95h-2.85v1.36h-.93v-5.99h4.72v5.58Zm-.93-1.85v-2.82h-2.85v2.82h2.85Zm10.94-11.08c0,2.27-.04,4.64-.11,7.1-.07,2.46-.14,3.91-.22,4.35-.07,.44-.24,.81-.5,1.12-.26,.31-.59,.52-1,.63-.4,.11-.93,.16-1.58,.16h-.97l-.32-.95c.35,.02,.73,.03,1.16,.03,.93,0,1.5-.08,1.72-.22,.22-.15,.37-.34,.47-.57,.09-.23,.19-1.5,.29-3.8,.1-2.3,.15-4.62,.15-6.97h-5.66c-.37,.6-.84,1.27-1.41,2h4.9v7.53h-5.03v-7.33c-.25,.35-.46,.62-.65,.81l-.72-.55c1.71-2.1,2.89-4.04,3.55-5.84l.87,.29c-.23,.7-.57,1.44-1.01,2.21h6.06Zm-3.96,6.01v-2.23h-3.21v2.23h3.21Zm0,3.47v-2.58h-3.21v2.58h3.21Z"/>
      <path class="cls-4" d="M289.65,306.49c.69,0,1.27,.24,1.76,.73,.48,.48,.73,1.07,.73,1.75s-.24,1.26-.73,1.75-1.07,.73-1.76,.73-1.27-.24-1.75-.73-.73-1.07-.73-1.75,.24-1.27,.73-1.75c.49-.48,1.07-.73,1.75-.73Z"/>
      <path class="cls-5" d="M318.66,303.58h-1.64v1.92h-5.78v1.12h6.06v.76h-6.06v1.19h7.41v.77h-15.67v-.77h7.36v-1.19h-5.97v-.76h5.97v-1.12h-5.71v-.72h5.71v-1.2h-7.36v-.74h7.36v-1.17h-5.71v-.77h5.71v-.92h.9v.92h5.78v1.94h1.64v.74Zm-1.75,12.13h-.93v-.59h-10.26v.59h-.94v-5.24h12.13v5.24Zm-.93-3.3v-1.18h-10.26v1.18h10.26Zm0,1.94v-1.19h-10.26v1.19h10.26Zm.12-11.5v-1.17h-4.85v1.17h4.85Zm0,1.94v-1.2h-4.85v1.2h4.85Z"/>
      <path class="cls-5" d="M337.74,315.72h-.93v-1.17h-12.28v1.17h-.96v-15.12h14.18v15.12Zm-.93-2.01v-12.28h-12.28v12.28h12.28Zm-.92-7.15h-10.46v-.74h4.8v-.88h-3.7v-2.52h8.29v2.52h-3.65v.88h4.72v.74Zm-.83,6.17h-8.78v-5.34h8.78v5.34Zm-.9-.73v-3.89h-6.96v3.89h6.96Zm-.24-7.8v-1.03h-6.47v1.03h6.47Zm-1.17,6.98h-4.18v-2.34h4.18v2.34Zm-.85-.7v-.93h-2.49v.93h2.49Z"/>
      <path class="cls-5" d="M348.97,300.35c-1.44,3.3-3.36,5.78-5.75,7.42l-.65-.74c2.32-1.55,4.14-3.87,5.45-6.96l.95,.28Zm6.55,6.32c-.03,1.93-.14,3.66-.34,5.19s-.4,2.49-.59,2.86-.46,.63-.81,.79-.94,.24-1.79,.24c-.37,0-.85-.01-1.44-.04l-.21-.97c.66,.06,1.27,.09,1.82,.09s.89-.04,1.04-.11c.16-.07,.29-.17,.4-.3,.11-.13,.24-.52,.38-1.18,.14-.65,.25-1.46,.34-2.43s.14-2.03,.17-3.19h-4.63c-.41,3.53-2.39,6.31-5.95,8.33l-.58-.76c3.3-1.85,5.14-4.38,5.5-7.58h-3.41v-.96h10.08Zm2.91,.24l-.64,.81c-2.38-1.69-4.03-3.9-4.95-6.63h-1.35v-.97h2.02c.9,2.99,2.54,5.25,4.92,6.79Z"/>
      <path class="cls-5" d="M369.41,308.38l-.63,.76c-.62-.87-1.34-1.69-2.18-2.45v9.02h-.93v-9.47c-.78,1.82-1.74,3.46-2.87,4.91l-.48-.95c1.19-1.48,2.28-3.47,3.28-5.96h-2.94v-.92h3.01v-3.33h.93v3.33h2.62v.92h-2.62v1.24c1.22,1.08,2.16,2.05,2.82,2.9Zm8.76-1.71h-2.83v9.07h-.96v-9.07h-3.44c-.12,2.29-.37,4.09-.76,5.43-.39,1.33-.98,2.58-1.77,3.74l-.76-.63c1.56-2.21,2.34-5.24,2.34-9.07v-4.32c3.02-.3,5.43-.87,7.24-1.71l.64,.77c-1.78,.76-4.09,1.33-6.94,1.72v3.16h7.23v.91Z"/>
      <path class="cls-5" d="M387.3,300.25c-.19,.47-.48,1.1-.88,1.89l-.6,1.17v12.37h-.94v-10.74c-.86,1.27-1.64,2.26-2.36,2.97l-.51-.89c1.7-1.78,3.17-4.15,4.42-7.09l.87,.33Zm10.64,3.91h-5.11v4.01h3.75v7.51h-.97v-.97h-6.6v.97h-.97v-7.51h3.82v-4.01h-4.76v-.96h4.76v-3.26h.97v3.26h5.11v.96Zm-2.32,9.62v-4.66h-6.6v4.66h6.6Z"/>
      <path class="cls-5" d="M409.82,302.03h-5.02c-.64,.77-1.31,1.45-2.02,2.03l-.74-.68c1.33-.98,2.35-2.16,3.06-3.53l.83,.36c-.12,.28-.3,.6-.54,.98h4.42v.84Zm7.97,10.8h-4.56v2.84h-.92v-2.84h-4.53c-.37,1.47-1.75,2.43-4.13,2.87l-.45-.88c2.1-.3,3.3-.96,3.59-2h-4.75v-.83h4.87c.04-.38,.05-.74,.04-1.08h.94c0,.35-.01,.71-.04,1.08h4.46v-1.08h.92v1.08h4.56v.83Zm-1.84-2.42h-11.92v-6.21h11.92v6.21Zm-.98-4.32v-1.08h-10v1.08h10Zm0,1.74v-1.05h-10v1.05h10Zm0,1.78v-1.08h-10v1.08h10Zm-7.23-6.22l-.77,.43c-.26-.46-.55-.84-.88-1.13l.76-.46c.38,.36,.67,.75,.9,1.16Zm10.08-1.35h-5.82c-.55,.61-1.08,1.15-1.59,1.62l-.77-.57c1.34-1.11,2.25-2.19,2.72-3.24l.85,.41c-.13,.24-.33,.57-.62,.98h5.23v.81Zm-2.77,1.44l-.77,.43c-.29-.46-.57-.85-.84-1.17l.79-.36c.32,.3,.59,.67,.82,1.1Z"/>
    </g>
    <rect class="cls-3" x="367.05" y="391.57" width="148.87" height="36.24" rx="18.12" ry="18.12"/>
    <g>
      <path class="cls-2" d="M430.01,416.55h-15.76v-.93h7.38v-12.26h-6.62v-.99h14.18v.99h-6.58v12.26h7.4v.93Z"/>
      <path class="cls-2" d="M440.95,407.46c-.08,1.54-.55,2.92-1.41,4.14l-.69-.65c.52-.78,.88-1.64,1.08-2.59h-1.68v7.9c0,.23-.1,.48-.29,.73-.19,.26-.68,.38-1.46,.38-.3,0-.58-.02-.83-.05l-.53-.97c.76,.06,1.36,.09,1.79,.09,.09,0,.18-.04,.28-.13,.1-.09,.15-.18,.15-.26v-6.5c-.88,2.2-1.79,3.92-2.74,5.16l-.62-.72c1.06-1.37,2.01-3.25,2.87-5.63h-2.8v-.9h3.99c-.75-.86-1.68-1.67-2.77-2.43l.66-.6c.43,.29,.97,.71,1.63,1.26,.83-.95,1.49-1.85,1.98-2.72h-4.85v-.9h5.88v.9c-.59,1.09-1.36,2.19-2.32,3.31l.62,.69-.56,.48h2.6Zm7.75,4.12c-.04,1.22-.13,2.33-.29,3.31-.16,.98-.32,1.58-.48,1.78s-.36,.38-.61,.53c-.24,.15-1.02,.2-2.32,.16l-.43-.97c.37,.03,.77,.04,1.21,.04,.66,0,1.05-.03,1.18-.1,.13-.06,.22-.16,.3-.29,.07-.13,.15-.52,.25-1.19,.09-.67,.18-1.47,.26-2.4h-3.01c-.5,2.31-2,3.97-4.47,4.96l-.69-.74c.99-.3,1.89-.85,2.69-1.64,.8-.79,1.32-1.65,1.54-2.58h-2.86v-.9h3.08c.09-.47,.14-1.08,.16-1.8l.91,.04c0,.44-.05,1.03-.15,1.77h3.75Zm1.07-2.18l-.52,.81c-1.39-.41-2.68-1.05-3.88-1.92-1.13,.83-2.28,1.46-3.46,1.89l-.63-.77c1.13-.34,2.25-.91,3.35-1.71-.74-.74-1.28-1.41-1.62-2l.79-.45c.41,.71,.92,1.33,1.53,1.87,.82-.7,1.46-1.67,1.91-2.9h-3.86c-.77,.97-1.47,1.71-2.11,2.21l-.7-.64c1.34-1.05,2.47-2.47,3.39-4.24l.9,.34c-.22,.45-.5,.92-.85,1.42h5.48v.9h-1.28c-.47,1.39-1.18,2.55-2.13,3.46,1.11,.78,2.34,1.35,3.68,1.72Z"/>
      <path class="cls-2" d="M463.07,409.27h-9.15v-.89h2.53c-.22-1.01-.57-2.11-1.05-3.29l.7-.53h-1.81v-.9h3.99c-.19-.49-.53-1.09-1.01-1.82l.85-.33c.39,.53,.77,1.25,1.15,2.14h3.5v.9h-1.82l.69,.47c-.33,1.18-.74,2.3-1.21,3.34h2.65v.89Zm-1.07,8.08h-.96v-1.2h-5.03v1.2h-.94v-6.29h6.93v6.29Zm-.96-2.12v-3.26h-5.03v3.26h5.03Zm-.31-10.66h-4.51c.53,1.32,.92,2.6,1.18,3.81h2.05c.53-1.09,.95-2.36,1.28-3.81Zm6.91,4c1.22,1.5,1.83,3,1.83,4.51,0,.78-.18,1.35-.55,1.71-.37,.36-1.11,.54-2.22,.54-.19,0-.39,0-.59-.02l-.26-.96c.28,.04,.62,.05,1.02,.05,.52,0,.87-.03,1.06-.1,.18-.06,.34-.21,.46-.42,.13-.22,.19-.53,.19-.95,0-1.34-.63-2.74-1.9-4.2,.63-1.8,1.18-3.65,1.63-5.55h-3.45v14.18h-.88v-15.08h5.23v.91c-.49,1.92-1.02,3.71-1.57,5.4Z"/>
    </g>
    <g>
      <path class="cls-4" d="M379.84,454.55c.69,0,1.27,.24,1.76,.73,.48,.48,.73,1.07,.73,1.75s-.24,1.26-.73,1.75-1.07,.73-1.76,.73-1.27-.24-1.75-.73-.73-1.07-.73-1.75,.24-1.27,.73-1.75c.49-.48,1.07-.73,1.75-.73Z"/>
      <path class="cls-5" d="M400.03,454.2c-.31,1.78-.79,3.14-1.44,4.09l-.81-.56c.53-.74,.91-1.61,1.12-2.59h-2.04v7.4c0,.33-.14,.63-.41,.9s-1.12,.37-2.55,.31l-.26-.91c1.15,0,1.78,0,1.9-.02,.12-.01,.23-.08,.32-.2,.09-.12,.14-.23,.14-.33v-7.15h-2.83v-.93h3.94c-.73-.8-1.83-1.73-3.3-2.78l.5-.69c.4,.25,1,.69,1.79,1.31,.96-.96,1.67-1.78,2.13-2.46h-4.62v-.89h5.78v.89c-.88,1.19-1.73,2.21-2.56,3.06,.51,.45,.9,.84,1.17,1.19l-.31,.38h2.37Zm8.81-4.81h-4.01c-.13,.65-.32,1.34-.57,2.06h3.72v8.76h-4.71l.56,.57c-.89,1.1-2.14,2.15-3.77,3.16l-.62-.81c1.47-.81,2.68-1.78,3.65-2.92h-2.31v-8.76h2.5c.24-.6,.44-1.28,.6-2.06h-3.73v-.91h8.69v.91Zm-1.79,4.59v-1.63h-5.35v1.63h5.35Zm0,2.61v-1.74h-5.35v1.74h5.35Zm0,2.72v-1.86h-5.35v1.86h5.35Zm1.73,3.79l-.6,.74c-1.1-.97-2.23-1.77-3.41-2.4l.58-.7c1.39,.8,2.53,1.58,3.43,2.36Z"/>
      <path class="cls-5" d="M420.66,450.09h-5.02c-.64,.77-1.31,1.45-2.02,2.03l-.74-.68c1.33-.98,2.35-2.16,3.06-3.53l.83,.36c-.12,.28-.3,.6-.54,.98h4.42v.84Zm7.97,10.8h-4.56v2.84h-.92v-2.84h-4.53c-.37,1.47-1.75,2.43-4.13,2.87l-.45-.88c2.1-.3,3.3-.96,3.59-2h-4.75v-.83h4.87c.04-.38,.05-.74,.04-1.08h.94c0,.35-.01,.71-.04,1.08h4.46v-1.08h.92v1.08h4.56v.83Zm-1.84-2.42h-11.92v-6.21h11.92v6.21Zm-.98-4.32v-1.08h-10v1.08h10Zm0,1.74v-1.05h-10v1.05h10Zm0,1.78v-1.08h-10v1.08h10Zm-7.23-6.22l-.77,.43c-.26-.46-.55-.84-.88-1.13l.76-.46c.38,.36,.67,.75,.9,1.16Zm10.08-1.35h-5.82c-.55,.61-1.08,1.15-1.59,1.62l-.77-.57c1.34-1.11,2.25-2.19,2.72-3.24l.85,.41c-.13,.24-.33,.57-.62,.98h5.23v.81Zm-2.77,1.44l-.77,.43c-.29-.46-.57-.85-.84-1.17l.79-.36c.32,.3,.59,.67,.82,1.1Z"/>
      <path class="cls-5" d="M448.49,460.26c-.09,1.03-.28,1.89-.58,2.59-.3,.69-.66,1.04-1.09,1.04-.46,0-1-.39-1.64-1.16-.63-.77-1.1-1.57-1.38-2.4-1.36,1.38-2.79,2.55-4.29,3.52l-.7-.74c2-1.29,3.53-2.56,4.6-3.82-.58-2.12-.95-4.56-1.12-7.32h-6.67v2.44h4.82c-.02,1.49-.09,2.81-.22,3.98-.13,1.16-.27,1.88-.42,2.15-.16,.27-.37,.48-.66,.64-.28,.16-.81,.23-1.59,.23-.24,0-.54,0-.89-.03l-.3-.98c.42,.06,.82,.1,1.22,.1,.51,0,.85-.04,1.01-.12,.16-.08,.3-.18,.4-.3,.1-.12,.21-.69,.34-1.7,.13-1.01,.19-2.02,.19-3.04h-3.89c-.11,3.3-.82,6.16-2.11,8.57l-.74-.67c1.29-2.31,1.93-5.27,1.93-8.86v-3.35h7.5c-.05-1.31-.07-2.32-.07-3.02h.94c0,.92,.03,1.93,.09,3.02h4.98v.92h-4.94c.09,2.31,.39,4.47,.9,6.46,1.01-1.38,1.82-3.04,2.44-4.98l.95,.31c-.85,2.3-1.86,4.24-3.05,5.81,.33,.93,.75,1.71,1.25,2.33s.84,.93,1,.93c.18,0,.37-.34,.55-1.02,.19-.68,.28-1.35,.28-2.01l.96,.48Zm-.98-10.05l-.81,.58c-.52-.63-1.21-1.26-2.07-1.89l.76-.62c.83,.55,1.54,1.19,2.12,1.92Z"/>
      <path class="cls-5" d="M468.5,460.39l-.66,.76c-3.13-2.3-5.38-5.34-6.73-9.11v7.69h3.93v.93h-3.93v3.23h-1v-3.23h-4.02v-.93h4.02v-7.69c-.77,2-1.68,3.68-2.73,5.05s-2.45,2.7-4.21,4l-.62-.79c3.3-2.4,5.47-5.15,6.51-8.26h-6.08v-.93h7.12v-3.08h1v3.08h6.92v.93h-5.87c1.19,3.39,3.3,6.17,6.34,8.35Z"/>
      <path class="cls-5" d="M480.21,460.37h-3.2v3.44h-.99v-3.44h-3.56v-.9h3.56v-2.23h-3.11v-.86h1.7c-.15-.63-.42-1.59-.81-2.9h-1.34v-.88h3.58v-2.07h-3.14v-.86h3.14v-1.64h.95v1.64h2.82v.86h-2.82v2.07h3.13v.88h-.76l-.92,2.9h1.37v.86h-2.8v2.23h3.2v.9Zm-1.8-6.89h-3.63c.35,1.19,.62,2.16,.79,2.9h1.9c.33-.81,.64-1.78,.93-2.9Zm9.91,7.18c-.05,.81-.2,1.51-.44,2.11s-.57,.9-.99,.9c-.19,0-.37-.05-.54-.14s-.33-.33-.48-.7c-.16-.38-.3-.89-.42-1.53-.12-.65-.2-1.22-.22-1.72-.02-.5-.04-1.28-.04-2.33v-5.22h-1.91c-.06,2.03-.21,3.64-.43,4.81,.73,1.12,1.31,2.09,1.73,2.92l-.74,.61c-.42-.91-.84-1.65-1.26-2.23-.42,1.87-1.33,3.8-2.74,5.78l-.79-.56c1.56-2.1,2.5-4.19,2.84-6.26-.78-1.1-1.41-1.91-1.89-2.43l.74-.55c.28,.31,.73,.87,1.34,1.69,.16-.81,.27-2.07,.31-3.76h-2.24v-.91h2.27c.05-.81,.07-1.86,.07-3.16h.88c0,1.25-.02,2.3-.05,3.16h2.77v4.86c0,1.75,.02,2.97,.05,3.66,.03,.7,.13,1.36,.29,2,.16,.64,.27,.99,.31,1.03,.05,.05,.09,.07,.12,.07,.21,0,.44-.82,.69-2.47l.77,.4Z"/>
      <path class="cls-5" d="M497.86,452.18c-.49,.84-1.08,1.66-1.75,2.47v9.2h-.93v-8.1c-.65,.69-1.43,1.41-2.34,2.16l-.49-.74c2.24-1.97,3.82-3.81,4.73-5.51l.79,.52Zm-.41-3.58c-1.08,1.34-2.59,2.59-4.53,3.74l-.55-.74c1.97-1.21,3.4-2.41,4.3-3.59l.77,.58Zm10.62,5.76h-2.84v8c0,.39-.1,.7-.3,.93-.2,.23-.43,.36-.69,.41-.26,.05-.78,.07-1.56,.07-.67,0-1.21-.01-1.62-.04l-.38-.97c.51,.02,1.05,.04,1.61,.04,1.05,0,1.63-.02,1.75-.07,.12-.04,.18-.15,.18-.31v-8.07h-6.35v-.95h10.21v.95Zm-.88-4.55h-8.57v-.95h8.57v.95Z"/>
      <path class="cls-4" d="M379.84,490.55c.69,0,1.27,.24,1.76,.73,.48,.48,.73,1.07,.73,1.75s-.24,1.26-.73,1.75-1.07,.73-1.76,.73-1.27-.24-1.75-.73-.73-1.07-.73-1.75,.24-1.27,.73-1.75c.49-.48,1.07-.73,1.75-.73Z"/>
      <path class="cls-5" d="M408.92,498.96h-15.76v-.93h7.38v-12.26h-6.62v-.99h14.18v.99h-6.58v12.26h7.4v.93Z"/>
      <path class="cls-5" d="M419.11,492.98l-.65,.72c-.43-.81-.95-1.56-1.55-2.25v8.33h-.94v-8.37c-.85,1.91-1.66,3.39-2.43,4.45l-.63-.74c1.18-1.63,2.18-3.55,3.01-5.76h-2.92v-.91h2.98v-2.66l-2.2,.41-.48-.9c2.1-.25,3.84-.66,5.21-1.24l.55,.83c-.88,.3-1.59,.53-2.14,.69v2.87h2.14v.91h-2.14v.74c1.1,1.22,1.83,2.18,2.2,2.87Zm9.55,6.37h-10.15v-.88h4.63v-2.75h-4v-.91h4v-2.61c-1.93,.12-3.11,.19-3.57,.2l-.43-.92c3.32-.06,6.18-.38,8.58-.95l.61,.81c-1.21,.28-2.62,.53-4.24,.76v2.72h3.87v.91h-3.87v2.75h4.56v.88Zm-1.15-9.86h-7.74v-4.91h7.74v4.91Zm-.96-.91v-3.1h-5.82v3.1h5.82Z"/>
      <path class="cls-5" d="M448.63,498.58l-.21,.92c-2.35,.02-4.49,0-6.4-.05s-3.35-.25-4.31-.61c-.96-.35-1.75-.86-2.37-1.51-.5,.83-1.17,1.64-2.02,2.44l-.7-.59c1.75-1.69,2.9-3.6,3.43-5.74h-2.8v-.89c.79-.94,1.68-2.19,2.69-3.74h-3.09v-.88h4.21v.88c-.67,1.04-1.54,2.29-2.6,3.74h2.54v.89c-.24,1.07-.65,2.11-1.22,3.13,.41,.43,.89,.78,1.44,1.06,.55,.28,1.08,.48,1.61,.6s1.43,.22,2.71,.28c1.29,.06,2.81,.09,4.56,.09,.89,0,1.73-.01,2.54-.04Zm-12.13-12.06l-.65,.65c-.69-.89-1.52-1.73-2.5-2.52l.59-.67c1.1,.86,1.95,1.71,2.56,2.54Zm11.74,10.2h-9.38v-7.68c-.51,.73-.91,1.23-1.19,1.51l-.61-.74c1.44-1.72,2.51-3.7,3.21-5.92l.9,.24c-.3,.88-.63,1.73-1,2.56h3.19c-.18-.7-.45-1.45-.81-2.25l.91-.29c.41,1.05,.72,1.9,.92,2.54h3.72v.88h-4.06v2.01h3.66v.87h-3.66v2.14h3.66v.89h-3.66v2.39h4.22v.86Zm-5.15-7.15v-2.01h-3.28v2.01h3.28Zm0,3.01v-2.14h-3.28v2.14h3.28Zm0,3.28v-2.39h-3.28v2.39h3.28Z"/>
      <path class="cls-5" d="M468.16,486.44h-13.02v5.02c0,3.26-.66,5.96-1.98,8.09l-.82-.6c1.26-1.96,1.89-4.76,1.89-8.4v-5.01h6.66c-.26-.49-.56-.93-.88-1.34l1.05-.25c.38,.58,.69,1.11,.93,1.6h6.17v.91Zm.41,12.56l-.58,.87c-2.46-.4-4.48-.98-6.06-1.71-1.83,.82-4.06,1.37-6.69,1.63l-.47-.93c2.58-.2,4.6-.61,6.06-1.24-1.4-.86-2.48-1.96-3.23-3.31h-.68v-.94h9.12v.94c-.7,1.37-1.74,2.46-3.12,3.28,1.35,.59,3.23,1.06,5.64,1.42Zm-.41-9.68h-3.11v2.93h-6.47v-2.93h-2.74v-.89h2.74v-1.48h.94v1.48h4.6v-1.48h.93v1.48h3.11v.89Zm-3.25,4.98h-6.19c.76,1.23,1.81,2.17,3.14,2.8,1.4-.77,2.41-1.7,3.05-2.8Zm-.79-2.95v-2.03h-4.6v2.03h4.6Z"/>
      <path class="cls-5" d="M488.18,497.33h-7.32v.97c0,.36-.08,.66-.22,.9-.15,.24-.37,.39-.67,.46s-.79,.1-1.49,.1h-1.05l-.33-.95c.84,.02,1.64,.04,2.4,.04,.28,0,.41-.13,.41-.4v-1.12h-7.38v-.88h7.38v-1.21h-6.38v-.84h6.38v-1.15c-.9,.02-2.71,.04-5.41,.04l-.33-.86c.55,.01,1.14,.02,1.76,.02,3.79,0,7.14-.18,10.05-.53l.4,.83c-1.56,.18-3.4,.33-5.51,.43v1.22h6.3v.84h-6.3v1.21h7.32v.88Zm-.52-7.29h-.92v-2.91h-12.77v2.91h-.92v-3.78h6.83v-2.23h.93v2.23h6.84v3.78Zm-10.27-4.69l-.72,.59c-.56-.49-1.2-.91-1.93-1.27l.76-.63c.77,.42,1.4,.86,1.89,1.32Zm7.6,5.85h-9.24v-3.01h9.24v3.01Zm-.92-.85v-1.29h-7.38v1.29h7.38Zm1.89-5.7c-.63,.49-1.28,.88-1.95,1.15l-.81-.63c.54-.21,1.19-.58,1.95-1.1l.81,.58Z"/>
      <path class="cls-5" d="M497.64,491.89c-.81,.36-1.48,.65-2,.85v5.6c0,.55-.13,.93-.38,1.15-.25,.21-.78,.32-1.58,.32-.25,0-.52,0-.81-.02l-.31-.95c.38,.02,.73,.04,1.05,.04,.47,0,.77-.04,.9-.13,.13-.09,.2-.24,.2-.45v-5.14c-.59,.24-1.31,.51-2.17,.81l-.31-.94c.78-.25,1.61-.55,2.47-.9v-4h-2.37v-.9h2.37v-3.19h.93v3.19h1.72v.9h-1.72v3.62c.75-.3,1.36-.57,1.84-.79l.16,.93Zm10.37,7.58h-10.69v-.89h5.08v-4.14h-4.29v-.93h9.64v.93h-4.43v4.14h4.68v.89Zm-.02-7.58h-2.77c-.92,0-1.37-.44-1.37-1.33v-3.62h-1.75c-.15,2.53-1.24,4.4-3.28,5.62l-.67-.72c1.87-1.01,2.87-2.65,2.99-4.9h-2.2v2.13h-.92v-3.04h4.42c-.27-.6-.57-1.15-.9-1.66l.85-.36c.41,.6,.76,1.27,1.05,2.02h4.32v3.08h-.9v-2.16h-2.11v3.52c0,.35,.19,.52,.58,.52h2.67v.91Z"/>
      <path class="cls-4" d="M379.84,526.55c.69,0,1.27,.24,1.76,.73,.48,.48,.73,1.07,.73,1.75s-.24,1.26-.73,1.75-1.07,.73-1.76,.73-1.27-.24-1.75-.73-.73-1.07-.73-1.75,.24-1.27,.73-1.75c.49-.48,1.07-.73,1.75-.73Z"/>
      <path class="cls-5" d="M398.41,521.59h-.72v14.24h-.85v-2.97c-1.43,.64-2.6,1.1-3.5,1.4l-.29-.79c.5-.18,.84-.3,1.03-.38v-11.5h-.77v-.87h5.1v.87Zm-1.57,2.8v-2.8h-1.89v2.8h1.89Zm0,3.96v-3.1h-1.89v3.1h1.89Zm0,3.59v-2.75h-1.89v3.54c.33-.11,.96-.38,1.89-.79Zm12.05,.62c-.19,2.12-.67,3.18-1.46,3.18-.69,0-1.27-.8-1.73-2.39-.9,.98-1.76,1.71-2.58,2.16l-.48-.67c1-.69,1.93-1.55,2.79-2.58-.26-1.66-.41-3.7-.45-6.12h-6.52v-.87h1.72c-.15-.92-.35-1.82-.58-2.7h-.63v-.83h2.27c-.09-.32-.32-.77-.69-1.35l.79-.43c.31,.5,.6,1.1,.86,1.78h2.1v.83h-.72c-.09,.96-.24,1.86-.45,2.7h1.8v-5.18h.88c-.02,2.25-.04,3.98-.04,5.2h2.99v.84h-2.94c0,2.01,.1,3.64,.31,4.9,.52-.93,.99-2.17,1.43-3.74l.77,.29c-.52,1.97-1.19,3.57-1.99,4.82,.11,.64,.28,1.19,.52,1.64s.42,.68,.56,.68c.1,0,.22-.25,.36-.74,.14-.49,.24-1.13,.3-1.92l.79,.48Zm-5.21,.79h-4.36v-5.96h4.36v5.96Zm-.86-3.47v-1.66h-2.63v1.66h2.63Zm0,2.65v-1.82h-2.63v1.82h2.63Zm-.12-9.94h-2.18c.26,1.02,.44,1.92,.55,2.7h1.2c.15-.71,.3-1.61,.43-2.7Zm5.77,1.35l-.81,.34c-.23-.87-.56-1.75-.98-2.63l.79-.34c.48,1,.81,1.87,1,2.63Z"/>
      <path class="cls-5" d="M428.68,531.27h-7.32v4.58h-.96v-4.58h-7.41v-.9h7.41v-1.48h-6.62v-.84h6.62v-1.41h-7v-.88h4.71c-.29-.52-.63-.99-1.01-1.41l.69-.43h-4.8v-.91h5.95v-2.91h.92v2.91h2.03v-2.91h.9v2.91h5.85v.91h-4.69l.65,.45c-.21,.45-.5,.91-.9,1.39h4.56v.88h-6.9v1.41h6.47v.84h-6.47v1.48h7.32v.9Zm-9.88,1.37c-1.33,1.04-3.05,1.96-5.16,2.75l-.6-.79c2.27-.81,3.96-1.67,5.07-2.58l.69,.62Zm-1.7-10.48l-.79,.47c-.44-.58-1.03-1.18-1.77-1.81l.82-.56c.7,.65,1.29,1.29,1.74,1.91Zm6.62,1.77h-5.71c.55,.76,.95,1.37,1.19,1.84h3.39c.58-.74,.95-1.36,1.14-1.84Zm4.97,10.89l-.54,.74c-1.84-1.2-3.6-2.14-5.27-2.85l.54-.72c2.03,.88,3.79,1.82,5.27,2.83Zm-1.46-14.12c-.5,.7-1.11,1.33-1.82,1.87l-.83-.47c.8-.69,1.41-1.29,1.8-1.82l.85,.41Z"/>
      <path class="cls-5" d="M448.52,527.89h-4.27c-.62,1.75-1.47,3.21-2.54,4.39,3.65,1.46,5.81,2.4,6.49,2.81l-.57,.81c-.9-.52-3.13-1.49-6.69-2.9-1.97,1.41-4.45,2.37-7.45,2.87l-.52-.92c2.65-.38,4.94-1.15,6.85-2.34-1.39-.56-3.09-1.14-5.11-1.75,.92-.96,1.71-1.95,2.37-2.97h-4.28v-.93h4.87c.6-.94,1.21-2.06,1.84-3.35l.92,.34c-.43,.9-.98,1.9-1.63,3.01h4.73c.21-.56,.36-1.06,.45-1.51l.92,.29-.33,1.22h3.96v.93Zm-.65-2.55h-.95v-2.45h-12.49v2.45h-1v-3.38h6.83c-.25-.54-.54-1.07-.86-1.57l.86-.41c.33,.52,.67,1.18,1.01,1.99h6.6v3.38Zm-4.7,2.55h-4.92c-.59,.91-1.19,1.74-1.82,2.5,1.12,.32,2.54,.81,4.29,1.48,1.02-.98,1.84-2.31,2.46-3.98Z"/>
      <path class="cls-5" d="M468.27,525.48l-.51,.84c-3.44-1.51-5.88-3.16-7.33-4.95-1.43,1.95-3.9,3.59-7.43,4.95l-.48-.9c3.09-1.09,5.33-2.46,6.73-4.12h-1.75v-.92h3.42c1.33,1.95,3.78,3.64,7.36,5.1Zm-.43,9.91h-14.88v-.9h6.98v-3.45h-4.97v-.91h4.97v-3.33h-4.94v-.88h10.79v.88h-4.92v3.33h4.9v.91h-4.9v3.45h6.96v.9Z"/>
      <path class="cls-5" d="M476.18,525.05l-.86,1.63v9.09h-.89v-7.65c-.49,.75-.97,1.37-1.42,1.85l-.69-.65c1.16-1.27,2.21-2.86,3.15-4.79l.7,.51Zm.26-4.63c-1.23,1.8-2.33,3.14-3.32,4l-.76-.55c1.14-1.01,2.24-2.29,3.3-3.82l.77,.38Zm8,13.27h-3.23v2.1h-.9v-2.1h-3.5l.36-2.56h-.7v-.84h3.84v-1.25h-3.05v-3.2h6.37v3.2h-2.42v1.25h2.94v.84h-2.94v1.71h3.23v.84Zm.14-9.13h-8.07v-.84h2.49l.43-1.55h-2.2v-.86h2.38l.31-1.2h.9l-.28,1.2h2.86v2.41h1.19v.84Zm-4.27,8.29v-1.71h-2.24l-.23,1.71h2.47Zm2.38-4.68v-1.49h-4.53v1.49h4.53Zm-.19-4.45v-1.55h-2.15l-.38,1.55h2.53Zm5.64,2.52h-1.08v8.26c0,.36-.09,.65-.28,.87-.19,.22-.38,.33-.58,.36-.2,.02-.7,.03-1.52,.03l-.26-.91c.23,.02,.46,.03,.69,.03,.48,0,.78-.04,.9-.11,.12-.07,.18-.21,.18-.4v-8.12h-1.86v-.91h3.8v.91Zm-.22-4.62h-3.29v-.92h3.29v.92Z"/>
      <path class="cls-5" d="M508.05,535.32h-15.71v-.91h7.63v-4.86h-5.78v-.96h5.78v-4.1h-4.89c-.68,1.25-1.43,2.29-2.25,3.12l-.76-.65c1.6-1.65,2.76-3.76,3.5-6.32l.93,.24c-.24,.87-.55,1.75-.93,2.65h4.4v-3.53h.97v3.53h6.85v.97h-6.85v4.1h6.02v.96h-6.02v4.86h7.11v.91Z"/>
      <path class="cls-4" d="M379.84,562.55c.69,0,1.27,.24,1.76,.73,.48,.48,.73,1.07,.73,1.75s-.24,1.26-.73,1.75-1.07,.73-1.76,.73-1.27-.24-1.75-.73-.73-1.07-.73-1.75,.24-1.27,.73-1.75c.49-.48,1.07-.73,1.75-.73Z"/>
      <path class="cls-5" d="M399.54,559.37h-3.72c0,.25-.02,1.21-.05,2.9h3.28c.01,1.77-.04,3.5-.17,5.2-.12,1.7-.25,2.74-.37,3.13-.12,.39-.32,.69-.6,.89s-.63,.3-1.04,.3c-.39,0-.72-.02-1-.07l-.36-.91c.63,.05,1.13,.07,1.5,.07,.22,0,.39-.09,.52-.29,.13-.19,.27-1.07,.41-2.63,.14-1.56,.22-3.17,.22-4.81h-2.44c-.09,3.66-.69,6.55-1.81,8.66l-.76-.62c.48-.86,.86-1.9,1.14-3.11s.45-2.57,.5-4.08c.05-1.51,.07-3.05,.07-4.62h-1.7v-.84h3.01c-.11-.69-.34-1.46-.7-2.34l.88-.24c.38,.97,.65,1.83,.79,2.58h2.38v.84Zm9.36-.3h-6.73c-.8,1.27-1.58,2.25-2.32,2.96l-.67-.57c1.35-1.37,2.55-3.19,3.59-5.46l.86,.29c-.38,.8-.69,1.43-.95,1.91h6.22v.87Zm.02,9.71c-.09,.8-.22,1.39-.39,1.77-.17,.38-.37,.63-.62,.76-.24,.13-.67,.19-1.26,.19h-4.32c-.9,0-1.36-.44-1.36-1.32v-5.99l-1.19,.31-.04-.88,1.22-.33v-2.06h.9v1.8l2.22-.5v-2.68h.91v2.43l3.35-.81c-.16,2.27-.48,4.29-.96,6.05l-.92-.22c.38-1.32,.66-2.88,.86-4.68l-2.34,.58v5.76h-.91v-5.51l-2.22,.51v6.13c0,.13,.06,.25,.17,.36,.11,.11,.23,.16,.36,.16h4.7c.22,0,.42-.18,.58-.55,.16-.37,.27-.9,.33-1.6l.92,.32Z"/>
      <path class="cls-5" d="M428.76,570.96h-15.76v-.93h7.38v-12.26h-6.62v-.99h14.18v.99h-6.58v12.26h7.4v.93Z"/>
      <path class="cls-5" d="M439.61,571.77h-.93v-1.27h-3.99v1.27h-.97v-7.88h5.89v7.88Zm-.95-2.19v-4.75h-3.97v4.75h3.97Zm7.57-7.74h-10.62v-5.34h10.62v5.34Zm-.94-.9v-3.53h-8.73v3.53h8.73Zm2.39,10.83h-.96v-1.27h-4.02v1.27h-.96v-7.88h5.93v7.88Zm-.96-2.19v-4.75h-4.02v4.75h4.02Z"/>
      <path class="cls-5" d="M460.2,559.76h-2.03v1.71h-.94v-1.71h-2.4c-.29,1.21-.81,2.11-1.55,2.69l-.65-.65c.95-.76,1.42-2.06,1.42-3.89,0-.29,0-.62-.03-1,2.12-.13,3.86-.38,5.23-.76l.5,.79c-1.43,.37-3.02,.62-4.78,.76,0,.13-.02,.54-.05,1.22h5.28v.84Zm5.92,9.25h-7.68l.45,.65c-1.64,1-3.57,1.69-5.79,2.08l-.47-.79c2.35-.47,4.2-1.12,5.54-1.94h-3.2v-6.93h11.15v6.93Zm-.92-4.93v-1.13h-9.27v1.13h9.27Zm0,2.01v-1.19h-9.27v1.19h9.27Zm0,2.09v-1.28h-9.27v1.28h9.27Zm3.03-8.43h-2.78v1.73h-.9v-1.73h-2.7c-.29,.87-.68,1.52-1.17,1.95l-.69-.62c.8-.67,1.21-1.82,1.21-3.44,0-.22,0-.46-.02-.72,1.83-.05,3.75-.32,5.77-.81l.49,.79c-1.97,.43-3.76,.7-5.36,.81,0,.52-.02,.91-.05,1.19h6.21v.84Zm.12,11.29l-.48,.78c-1.61-.6-3.47-1.1-5.57-1.49l.52-.83c2.37,.49,4.22,1,5.54,1.55Z"/>
      <path class="cls-5" d="M480.21,558.13h-5.05c-.59,.74-1.25,1.42-1.98,2.03l-.72-.57c1.28-1.04,2.28-2.27,2.99-3.67l.88,.36c-.13,.28-.33,.62-.59,1.05h4.47v.81Zm7.54,6.03h-.91v-2.5h-12.94v2.49h-.92v-3.35h6.8c-.06-.25-.2-.58-.43-.99l.81-.3c.25,.39,.44,.82,.57,1.29h7.02v3.37Zm-1.64,6.84h-10.13v.74h-.94v-8.73h10.55v3.09h-9.61v1.42h10.13v3.47Zm-1.46-5.76v-1.39h-8.67v1.39h8.67Zm.54,4.9v-1.75h-9.21v1.75h9.21Zm-6.85-10.22l-.83,.36c-.22-.43-.55-.93-1.01-1.49l.81-.33c.43,.5,.78,.98,1.03,1.46Zm9.84-1.77h-5.77c-.39,.47-.85,.94-1.37,1.41l-.74-.53c1.3-1.24,2.12-2.27,2.47-3.08l.88,.34c-.15,.3-.35,.64-.6,1.01h5.12v.84Zm-2.63,1.87l-.79,.31c-.41-.78-.72-1.3-.92-1.56l.85-.31c.36,.53,.65,1.05,.86,1.56Z"/>
      <path class="cls-5" d="M502.13,562.66h-4.43v2.13h3.84v5.05c0,.74-.42,1.12-1.27,1.12h-1.31l-.34-.93h1.6c.12,0,.22-.05,.3-.15s.13-.21,.13-.34v-3.85h-2.95v6.03h-.91v-6.03h-2.86v5.36h-.91v-6.26h3.77v-2.13h-4.6v-.9h4.6v-2.43h-2.92c-.32,.65-.65,1.2-.99,1.64l-.81-.44c.87-1.18,1.55-2.6,2.02-4.25l.92,.17c-.21,.69-.45,1.35-.72,1.98h2.51v-2.42h.91v2.42h4.05v.9h-4.05v2.43h4.43v.9Zm2.17,5.94h-.93v-11.21h.93v11.21Zm3.18,1.87c0,.34-.13,.62-.38,.86-.25,.23-.57,.35-.94,.35h-2.31l-.33-.95h2.6c.11,0,.2-.06,.29-.17,.09-.11,.14-.23,.14-.34v-14.2h.92v14.46Z"/>
    </g>
    <rect class="cls-3" x="550.33" y="391.57" width="148.87" height="36.24" rx="18.12" ry="18.12"/>
    <g>
      <path class="cls-2" d="M613.23,412.86h-7.32v4.58h-.96v-4.58h-7.41v-.9h7.41v-1.48h-6.62v-.84h6.62v-1.41h-7v-.88h4.71c-.29-.52-.63-.99-1.01-1.41l.69-.43h-4.8v-.91h5.95v-2.91h.92v2.91h2.03v-2.91h.9v2.91h5.85v.91h-4.69l.65,.45c-.21,.45-.5,.91-.9,1.39h4.56v.88h-6.9v1.41h6.47v.84h-6.47v1.48h7.32v.9Zm-9.88,1.37c-1.33,1.04-3.05,1.96-5.16,2.75l-.6-.79c2.27-.81,3.96-1.67,5.07-2.58l.69,.62Zm-1.7-10.48l-.79,.47c-.44-.58-1.03-1.18-1.77-1.81l.82-.56c.7,.65,1.29,1.29,1.74,1.91Zm6.62,1.77h-5.71c.55,.76,.95,1.37,1.19,1.84h3.39c.58-.74,.95-1.36,1.14-1.84Zm4.97,10.89l-.54,.74c-1.84-1.2-3.6-2.14-5.27-2.85l.54-.72c2.03,.88,3.79,1.82,5.27,2.83Zm-1.46-14.12c-.5,.7-1.11,1.33-1.82,1.87l-.83-.47c.8-.69,1.41-1.29,1.8-1.82l.85,.41Z"/>
      <path class="cls-2" d="M624.23,407.46c-.08,1.54-.55,2.92-1.41,4.14l-.69-.65c.52-.78,.88-1.64,1.08-2.59h-1.68v7.9c0,.23-.1,.48-.29,.73-.19,.26-.68,.38-1.46,.38-.3,0-.58-.02-.83-.05l-.53-.97c.76,.06,1.36,.09,1.79,.09,.09,0,.18-.04,.28-.13,.1-.09,.15-.18,.15-.26v-6.5c-.88,2.2-1.79,3.92-2.74,5.16l-.62-.72c1.06-1.37,2.01-3.25,2.87-5.63h-2.8v-.9h3.99c-.75-.86-1.68-1.67-2.77-2.43l.66-.6c.43,.29,.97,.71,1.63,1.26,.83-.95,1.49-1.85,1.98-2.72h-4.85v-.9h5.88v.9c-.59,1.09-1.36,2.19-2.32,3.31l.62,.69-.56,.48h2.6Zm7.75,4.12c-.04,1.22-.13,2.33-.29,3.31-.16,.98-.32,1.58-.48,1.78s-.36,.38-.61,.53c-.24,.15-1.02,.2-2.32,.16l-.43-.97c.37,.03,.77,.04,1.21,.04,.66,0,1.05-.03,1.18-.1,.13-.06,.22-.16,.3-.29,.07-.13,.15-.52,.25-1.19,.09-.67,.18-1.47,.26-2.4h-3.01c-.5,2.31-2,3.97-4.47,4.96l-.69-.74c.99-.3,1.89-.85,2.69-1.64,.8-.79,1.32-1.65,1.54-2.58h-2.86v-.9h3.08c.09-.47,.14-1.08,.16-1.8l.91,.04c0,.44-.05,1.03-.15,1.77h3.75Zm1.07-2.18l-.52,.81c-1.39-.41-2.68-1.05-3.88-1.92-1.13,.83-2.28,1.46-3.46,1.89l-.63-.77c1.13-.34,2.25-.91,3.35-1.71-.74-.74-1.28-1.41-1.62-2l.79-.45c.41,.71,.92,1.33,1.53,1.87,.82-.7,1.46-1.67,1.91-2.9h-3.86c-.77,.97-1.47,1.71-2.11,2.21l-.7-.64c1.34-1.05,2.47-2.47,3.39-4.24l.9,.34c-.22,.45-.5,.92-.85,1.42h5.48v.9h-1.28c-.47,1.39-1.18,2.55-2.13,3.46,1.11,.78,2.34,1.35,3.68,1.72Z"/>
      <path class="cls-2" d="M646.36,409.27h-9.15v-.89h2.53c-.22-1.01-.57-2.11-1.05-3.29l.7-.53h-1.81v-.9h3.99c-.19-.49-.53-1.09-1.01-1.82l.85-.33c.39,.53,.77,1.25,1.15,2.14h3.5v.9h-1.82l.69,.47c-.33,1.18-.74,2.3-1.21,3.34h2.65v.89Zm-1.07,8.08h-.96v-1.2h-5.03v1.2h-.94v-6.29h6.93v6.29Zm-.96-2.12v-3.26h-5.03v3.26h5.03Zm-.31-10.66h-4.51c.53,1.32,.92,2.6,1.18,3.81h2.05c.53-1.09,.95-2.36,1.28-3.81Zm6.91,4c1.22,1.5,1.83,3,1.83,4.51,0,.78-.18,1.35-.55,1.71-.37,.36-1.11,.54-2.22,.54-.19,0-.39,0-.59-.02l-.26-.96c.28,.04,.62,.05,1.02,.05,.52,0,.87-.03,1.06-.1,.18-.06,.34-.21,.46-.42,.13-.22,.19-.53,.19-.95,0-1.34-.63-2.74-1.9-4.2,.63-1.8,1.18-3.65,1.63-5.55h-3.45v14.18h-.88v-15.08h5.23v.91c-.49,1.92-1.02,3.71-1.57,5.4Z"/>
    </g>
    <g>
      <path class="cls-4" d="M582.46,454.55c.69,0,1.27,.24,1.76,.73,.48,.48,.73,1.07,.73,1.75s-.24,1.26-.73,1.75-1.07,.73-1.76,.73-1.27-.24-1.75-.73-.73-1.07-.73-1.75,.24-1.27,.73-1.75c.49-.48,1.07-.73,1.75-.73Z"/>
      <path class="cls-5" d="M602.76,453.91h-5.32v9.79h-.92v-15.19h6.24v5.4Zm-.94-3.18v-1.35h-4.38v1.35h4.38Zm0,2.32v-1.48h-4.38v1.48h4.38Zm7,6.05h-2.85v4.23h-.93v-4.23h-2.74c-.08,1.67-.82,3.11-2.24,4.32l-.91-.52c1.4-1.17,2.14-2.44,2.22-3.8h-2.92v-.9h2.99v-2.07h-2.38v-.86h9.05v.86h-2.15v2.07h2.85v.9Zm-3.79-.9v-2.07h-2.65v2.07h2.65Zm5.64,4.17c0,.5-.14,.84-.43,1.02s-.79,.27-1.53,.27c-.31,0-.64,0-1-.02l-.36-.95c.3,.05,.96,.07,1.98,.07,.26,0,.4-.13,.4-.4v-8.46h-5.27v-5.4h6.21v13.86Zm-.94-11.65v-1.35h-4.31v1.35h4.31Zm0,2.32v-1.48h-4.31v1.48h4.31Z"/>
      <path class="cls-5" d="M623.01,449.36c-1.13,1.46-2.8,2.75-5.01,3.87h4.15v3.69h-3.61l-.24,1.98h3.85c0,1.44-.06,2.46-.17,3.04-.11,.59-.27,1-.48,1.24-.21,.24-.44,.4-.7,.47-.26,.07-.97,.11-2.15,.11-.48,0-.95-.01-1.43-.04l-.22-.93,3.03,.05c.45,.02,.76-.19,.93-.62,.17-.43,.25-1.24,.24-2.44h-3.91l.38-3.74h3.57v-1.91h-3.46v-.81c-.59,.28-1.16,.52-1.71,.71l-.55-.81c.97-.28,1.98-.72,3.01-1.33-.39-.39-.94-.78-1.66-1.17l.5-.69c.79,.46,1.45,.92,1.96,1.38,1.1-.71,1.92-1.4,2.46-2.07h-4.53v-.9h5.73v.9Zm8.1,13.79l-.63,.7c-1.02-.83-2.1-1.6-3.23-2.31-1.24,1-2.55,1.77-3.94,2.31l-.65-.7c1.12-.36,2.4-1.07,3.84-2.11l-2.96-1.77,.53-.64h-.79v-.92h6.58c-.42,1.25-1.07,2.33-1.93,3.24,.93,.52,1.99,1.25,3.2,2.2Zm-.49-6.32h-1.96c-.27,0-.5-.09-.7-.26-.2-.18-.3-.41-.3-.71v-1.72h-2.24c-.09,1.32-.65,2.35-1.67,3.08l-.77-.63c1.07-.7,1.61-1.82,1.6-3.35h3.99v2.38c0,.21,.13,.32,.4,.32h1.66v.91Zm.62-3.66l-.43,.81c-3.1-1.07-5.4-2.96-6.91-5.67l.85-.36c.36,.63,.77,1.2,1.21,1.71,.56-.47,1.07-.98,1.53-1.53l.83,.38c-.49,.63-1.07,1.23-1.75,1.82,.48,.5,.89,.86,1.22,1.05,.74-.54,1.38-1.1,1.93-1.67l.74,.48c-.62,.68-1.25,1.25-1.88,1.71,.81,.5,1.7,.92,2.67,1.26Zm-2.74,5.46h-4.31c1.13,.63,2.13,1.22,2.99,1.79,.49-.46,.93-1.06,1.32-1.79Z"/>
      <path class="cls-5" d="M642.23,455.97h-2.77c-.19,2.66-1.23,5.03-3.13,7.11l-.79-.58c1.83-1.94,2.82-4.12,2.97-6.53h-3.01v-.94h3.09c.06-1.21,.09-2.29,.09-3.26h-2.78v-.88h2.8v-2.75h.9v2.75h2.37v.88h-2.37c-.02,1.14-.05,2.23-.09,3.26h2.74v.94Zm.02,4.69l-.72,.65c-.5-1.17-1.11-2.24-1.83-3.23l.7-.59c.73,1.05,1.35,2.1,1.86,3.16Zm8.91-.52c0,1.55-.15,2.52-.45,2.91-.3,.39-.85,.58-1.63,.58-.87,0-1.42-.14-1.63-.43s-.32-.56-.32-.81v-4.34h-1.73c-.06,2.79-1.51,4.71-4.35,5.76l-.59-.76c2.74-.98,4.06-2.65,3.96-5h-1.64v-9.55h7.41v9.55h-2.15v4.17c0,.14,.05,.27,.15,.37,.1,.11,.39,.16,.87,.16,.43,0,.73-.11,.9-.33,.16-.22,.25-.81,.25-1.78,0-.24,0-.49-.02-.75l.97,.24Zm-1.91-8.74v-2.05h-5.54v2.05h5.54Zm0,2.85v-2h-5.54v2h5.54Zm0,2.97v-2.11h-5.54v2.11h5.54Z"/>
      <path class="cls-5" d="M665.85,451.71h-1.31v1.87h-3.56v1.08h4.04v.69h-4.04v1.08h4.42v.72h-9.86v-.72h4.56v-1.08h-4.11v-.69h4.11v-1.08h-3.75v-.7h3.75v-1.17h-4.78v-.69h4.78v-1.19h-3.77v-.69h3.77v-1.07h.88v1.07h3.56v1.87h1.31v.69Zm-.23,11.74h-10.26v-.76h10.26v.76Zm-1.05-1.66h-8.12v-3.67h8.12v3.67Zm-4.51-2.16v-.81h-2.74v.81h2.74Zm0,1.48v-.81h-2.72v.81h2.72Zm3.55-10.08v-1.19h-2.63v1.19h2.63Zm0,1.84v-1.15h-2.63v1.15h2.63Zm.06,6.77v-.81h-2.69v.81h2.69Zm0,1.48v-.81h-2.69v.81h2.69Zm3.82-.64h-.91v-11.16h.91v11.16Zm3.05,2.12c0,.4-.11,.7-.34,.9-.23,.2-.76,.3-1.58,.3l-1.44-.04-.31-.88c1.4,.04,2.22,.02,2.46-.05,.24-.07,.36-.24,.36-.5v-14.24h.86v14.5Z"/>
      <path class="cls-4" d="M582.46,490.55c.69,0,1.27,.24,1.76,.73,.48,.48,.73,1.07,.73,1.75s-.24,1.26-.73,1.75-1.07,.73-1.76,.73-1.27-.24-1.75-.73-.73-1.07-.73-1.75,.24-1.27,.73-1.75c.49-.48,1.07-.73,1.75-.73Z"/>
      <path class="cls-5" d="M600.45,489.35h-1.86v10.36h-.92v-10.36h-2.09v-.92h2.09v-4.38h.92v4.38h1.86v.92Zm4.77,3.01c-.09,3.67-.27,5.82-.54,6.42s-.74,.91-1.4,.91l-1.17,.02-.23-.95c.56,.02,1.02,.04,1.38,.04,.33,0,.56-.21,.68-.64,.12-.42,.24-2.07,.35-4.94h-1.79c-.21,2.79-1.15,4.98-2.81,6.58l-.76-.55c1.66-1.63,2.54-3.64,2.65-6.03h-1.82v-.86h1.88c.05-.83,.07-1.31,.07-1.46h.88c.02,.35,0,.84-.07,1.46h2.7Zm5.59-6.7c-.08,1.72-.22,2.88-.43,3.46-.21,.58-.48,.96-.81,1.12s-.86,.25-1.58,.25c-.48,0-.99-.01-1.53-.04l-.36-.96c.78,.04,1.38,.05,1.8,.05,.66,0,1.09-.06,1.29-.19,.2-.13,.34-.38,.43-.76s.16-1.07,.22-2.07h-3.7c-.69,1.98-2.25,3.31-4.68,4l-.59-.77c2.18-.51,3.6-1.58,4.25-3.23h-4.34v-.86h4.56c.03-.16,.09-.7,.18-1.61h.91c-.02,.56-.07,1.09-.15,1.61h4.54Zm.4,6.73c0,.52-.06,1.66-.18,3.42-.12,1.77-.25,2.76-.39,2.99-.14,.23-.33,.43-.56,.62s-.76,.28-1.56,.28c-.18,0-.33,0-.46-.03l-.34-.95c.51,.05,.95,.07,1.32,.07,.57,0,.89-.33,.97-1,.08-.66,.17-2.18,.27-4.55h-1.75c-.12,1.25-.37,2.35-.73,3.3-.36,.95-1,2.04-1.91,3.29l-.77-.62c1.55-1.89,2.38-3.88,2.49-5.98h-1.68v-.86h1.73c.02-.19,.04-.69,.07-1.49h.88l-.05,1.49h2.65Z"/>
      <path class="cls-5" d="M621.26,486.78h-5.64v-.83h2.61c-.21-.54-.46-1.06-.76-1.57l.85-.4c.45,.81,.75,1.47,.92,1.97h2.02v.83Zm-.5,2.58h-4.75v-.85h4.75v.85Zm0,2.68h-4.75v-.83h4.75v.83Zm-.26,7.42h-.88v-.99h-2.46v1.37h-.92v-5.98h4.25v5.6Zm-.9-1.85v-2.87h-2.44v2.87h2.44Zm11.25,.86c0,.49-.16,.84-.48,1.03-.32,.2-.8,.29-1.46,.29h-.99l-.34-.9c.37-.01,1.01-.02,1.93-.02,.09,0,.19-.04,.28-.13,.09-.09,.14-.18,.14-.28v-6.92h-6.85c.08,3.63-.33,6.38-1.22,8.24l-.79-.48c.73-1.83,1.1-4.03,1.1-6.58v-8.23h8.69v13.97Zm-4.83-10.87v-2.23h-2.94v2.23h2.94Zm0,3.08v-2.21h-2.94v2.21h2.94Zm2.63,6.87h-4.4v-4.57h4.4v4.57Zm-.88-.9v-2.8h-2.63v2.8h2.63Zm2.16-9.05v-2.23h-2.99v2.23h2.99Zm0,3.08v-2.21h-2.97v2.21h2.97Z"/>
      <path class="cls-5" d="M643.9,485.97h-3.59v1.15h2.94v2.99h-2.94v.38c1.08,.46,1.96,.91,2.65,1.34l-.4,.81c-.8-.51-1.56-.92-2.25-1.24v1.84h-.88v-2.2c-1.11,.94-2.24,1.69-3.39,2.27l-.62-.76c1.34-.59,2.58-1.4,3.72-2.44h-2.81v-2.99h3.1v-1.15h-3.86v-.87h3.86v-.97h.88v.97h3.59v.87Zm7.25,13.55h-15.69v-.85h3.16v-2.84h.9v2.84h3.42v-3.8h-7.05v-.84h14.9v.84h-6.89v1.39h6.22v.81h-6.22v1.6h7.25v.85Zm-11.72-10.28v-1.29h-2.17v1.29h2.17Zm2.92,0v-1.29h-2.04v1.29h2.04Zm8.88,3.19l-.48,.84c-1.13-.3-2.19-.84-3.19-1.62-1.25,.76-2.41,1.31-3.47,1.65l-.64-.77c1.37-.4,2.53-.91,3.48-1.55-.59-.73-1.01-1.42-1.24-2.07l.81-.4c.32,.79,.7,1.42,1.15,1.89,.87-.84,1.4-1.99,1.58-3.45h-2.91c-.63,1.01-1.31,1.82-2.05,2.43l-.65-.6c1.4-1.15,2.42-2.73,3.08-4.74l.81,.34c-.12,.48-.35,1.05-.7,1.7h4.25v.86h-.96c-.26,1.88-.88,3.24-1.84,4.09,.86,.66,1.85,1.12,2.96,1.39Z"/>
      <path class="cls-5" d="M671.05,489.24l-.61,.79c-3.03-1.26-5.48-2.86-7.34-4.8-1.63,1.63-4.06,3.24-7.3,4.82l-.6-.81c3.29-1.39,5.91-3.19,7.88-5.38l.92,.36c-.05,.13-.14,.27-.26,.4,1.88,1.89,4.32,3.43,7.32,4.62Zm-2.27,10.59h-.95v-1.2h-9.43v1.2h-.98v-7.15h11.36v7.15Zm-.95-2.14v-4.05h-9.43v4.05h9.43Zm-.04-7.51h-9.34v-.96h9.34v.96Z"/>
      <path class="cls-4" d="M582.46,526.55c.69,0,1.27,.24,1.76,.73,.48,.48,.73,1.07,.73,1.75s-.24,1.26-.73,1.75-1.07,.73-1.76,.73-1.27-.24-1.75-.73-.73-1.07-.73-1.75,.24-1.27,.73-1.75c.49-.48,1.07-.73,1.75-.73Z"/>
      <path class="cls-5" d="M598.49,524.9c-.59,.97-1.28,1.81-2.06,2.5l-.69-.63c.8-.73,1.49-1.52,2.04-2.39l.7,.52Zm5.2-1.02h-3.44v3.45h-.9v-3.45h-3.37v-.79h3.17v-2.95h.89v.81h3.03v.83h-3.03v1.32h3.65v.79Zm5.34,12.01h-.89v-.77h-8.98v.77h-.92v-7.96h10.79v7.96Zm-.89-5.85v-1.26h-8.98v1.26h8.98Zm0,2.13v-1.28h-8.98v1.28h8.98Zm0,2.14v-1.33h-8.98v1.33h8.98Zm-4.99-8.11l-.74,.54c-.47-.77-.9-1.37-1.28-1.8l.74-.5c.39,.45,.81,1.03,1.28,1.77Zm8.33,.55l-.52,.77c-1.16-.39-2.28-.98-3.35-1.76-1.13,.79-2.32,1.37-3.58,1.76l-.64-.74c1.23-.33,2.38-.87,3.46-1.6-1-1-1.76-2.24-2.27-3.73h-.55v-.86h6.53v.86c-.6,1.59-1.36,2.84-2.27,3.73,.83,.61,1.9,1.13,3.19,1.56Zm-1.89-5.29h-4.06c.48,1.3,1.16,2.36,2.04,3.17,.89-.85,1.56-1.91,2.02-3.17Z"/>
      <path class="cls-5" d="M631.31,529.78l-.24,.8h-6.38c-2.07,0-3.54-.15-4.39-.44-.85-.29-1.52-.64-1.99-1.03-.56,.58-1.29,1.15-2.17,1.72l-.56-.7c1.51-.9,2.6-2,3.28-3.29h-2.89v-.85c.97-.73,1.85-1.46,2.62-2.2h-2.84v-.84h3.98v.84c-.76,.8-1.58,1.54-2.45,2.21h2.45v.83c-.23,.61-.55,1.17-.95,1.67,.46,.38,1.07,.69,1.82,.92s2.2,.35,4.36,.35h6.37Zm-.05,2.78h-3.37v1.82c0,.46-.15,.81-.44,1.04s-.85,.34-1.69,.34h-1.25l-.29-.88c1.19,.01,1.95,0,2.27-.02s.48-.16,.48-.41v-1.89h-11.3v-.89h11.3v-.61h.92v.61h3.37v.89Zm-11.99-10.64l-.65,.6c-.69-.64-1.53-1.27-2.52-1.89l.68-.58c.95,.57,1.78,1.2,2.49,1.87Zm3.17,12.48l-.57,.72c-.73-.47-1.7-.93-2.91-1.37l.56-.72c.95,.32,1.92,.78,2.91,1.37Zm8.79-12.16h-4.92c-.22,.44-.4,.75-.53,.94h4.53v5.53h-9.12v-5.53h3.63c.25-.36,.43-.67,.54-.94h-5.2v-.81h11.08v.81Zm-7.19-1.48l-.77,.47c-.34-.29-.75-.55-1.22-.79l.77-.49c.46,.21,.86,.48,1.22,.81Zm5.35,3.98v-.83h-7.26v.83h7.26Zm0,1.62v-.91h-7.26v.91h7.26Zm0,1.59v-.92h-7.26v.92h7.26Zm0-7.57c-.38,.28-.82,.54-1.32,.79l-.76-.54c.45-.17,.9-.42,1.34-.74l.74,.48Z"/>
      <path class="cls-5" d="M641.59,529.1l-.53,.72c-.47-.8-1.08-1.58-1.82-2.35v8.31h-.88v-8.2c-.74,1.78-1.52,3.23-2.34,4.37l-.63-.74c1.13-1.49,2.11-3.41,2.94-5.76h-2.83v-.84h2.87v-2.74c-.67,.18-1.42,.3-2.24,.38l-.38-.84c1.78-.11,3.45-.51,4.99-1.22l.48,.74c-.62,.32-1.27,.56-1.97,.72v2.97h1.63v.84h-1.63v.88c.9,.85,1.69,1.77,2.35,2.76Zm9.54-5.3c-.11,.73-.3,1.19-.57,1.38s-.6,.28-1,.28l-1.79,.02c-.43,0-.78-.08-1.04-.25-.27-.17-.4-.52-.4-1.05v-1.6h-.97c-.66,1.41-1.8,2.44-3.42,3.09l-.58-.71c1.35-.49,2.34-1.28,2.98-2.38h-2.85v-.79h3.2c.18-.62,.29-1.2,.33-1.75l.92,.1c-.04,.59-.14,1.14-.29,1.65h5.25v.79h-3.65v1.64c0,.16,.06,.27,.18,.33s.45,.09,.98,.09c.85,0,1.37-.07,1.57-.21,.2-.14,.3-.46,.3-.96l.88,.33Zm-.77,11.99h-.88v-.69h-6.31v.69h-.89v-5.45h8.08v5.45Zm.31-6.62h-6.89c-.29,0-.53-.09-.73-.28-.2-.19-.29-.44-.29-.76v-2.47h.88v.77h6.44v.82h-6.44v.76c0,.09,.05,.17,.14,.25,.09,.08,.18,.11,.26,.11h6.64v.81Zm-1.19,3.08v-1.06h-6.31v1.06h6.31Zm0,1.98v-1.15h-6.31v1.15h6.31Zm-.2-13.23l-.62,.54c-.33-.35-.78-.65-1.35-.91l.61-.58c.47,.22,.92,.54,1.36,.96Z"/>
      <path class="cls-5" d="M661.19,527.92l-.72,.67c-.48-.93-.93-1.68-1.37-2.27v9.47h-.92v-9.05c-.73,1.66-1.53,3.04-2.38,4.14l-.63-.77c1.14-1.48,2.1-3.29,2.87-5.45h-2.44v-.89h2.58v-3.74h.92v3.74h2.02v.89h-2.02v.19c.68,.83,1.38,1.86,2.1,3.08Zm9.9,7.21l-.66,.7c-1.17-1.2-2.41-2.26-3.73-3.19-1.87,1.46-3.79,2.52-5.78,3.16l-.52-.76c4.35-1.51,7.51-4.12,9.48-7.86l.88,.38c-.94,1.71-2.05,3.18-3.35,4.4,1.47,1.1,2.7,2.15,3.67,3.16Zm-.09-12.14h-4.82c-.8,1.38-1.72,2.66-2.77,3.84,1.04-.08,2.28-.22,3.73-.44,.5-.71,.88-1.34,1.15-1.89l.85,.4c-1.67,3.4-4.31,5.75-7.9,7.06l-.52-.81c2.47-.9,4.37-2.16,5.7-3.76-1.91,.24-3.4,.4-4.47,.47l-.29-.93c.68-.04,1.82-1.34,3.43-3.93h-3.91v-.91h4.67c-.22-.45-.55-1.04-1-1.77l.9-.34c.41,.64,.8,1.35,1.15,2.11h4.11v.91Z"/>
      <path class="cls-4" d="M582.46,562.55c.69,0,1.27,.24,1.76,.73,.48,.48,.73,1.07,.73,1.75s-.24,1.26-.73,1.75-1.07,.73-1.76,.73-1.27-.24-1.75-.73-.73-1.07-.73-1.75,.24-1.27,.73-1.75c.49-.48,1.07-.73,1.75-.73Z"/>
      <path class="cls-5" d="M611.58,565.65l-.4,.92c-3.06-.39-5.54-1.05-7.45-1.99-2.07,.86-4.52,1.51-7.35,1.94l-.58-.9c2.74-.38,5.02-.91,6.84-1.62-1.04-.63-1.94-1.32-2.69-2.06-.89,.69-1.73,1.27-2.52,1.73l-.65-.72c2.17-1.17,3.74-2.55,4.7-4.14l.94,.38c-.3,.49-.58,.88-.85,1.17h6.99v.9c-.87,.97-2.14,1.91-3.82,2.83,1.81,.77,4.09,1.28,6.83,1.55Zm-.77-4.38h-.92v-2.87h-12.54v2.82h-.95v-3.71h6.94c-.13-.35-.39-.78-.79-1.27l1.01-.31c.33,.53,.63,1.06,.88,1.58h6.37v3.76Zm-1.82,10.49h-.93v-.79h-8.84v.79h-.93v-4.98h10.71v4.98Zm-.93-1.72v-2.34h-8.84v2.34h8.84Zm-.85-8.77h-6.44l-.1,.1c.85,.87,1.85,1.61,3.01,2.21,1.47-.69,2.65-1.46,3.52-2.31Z"/>
      <path class="cls-5" d="M630.55,557c-4.2,.84-8.07,1.26-11.6,1.26v2.38h11.56v5.79h-11.74c-.32,2.26-1.18,4.1-2.56,5.51l-.69-.81c.97-.94,1.63-2.02,1.97-3.23,.34-1.22,.51-3.34,.51-6.36v-4.17c3.97,.02,7.97-.39,12.01-1.22l.54,.86Zm-1.01,8.46v-3.88h-10.57c0,.68-.03,1.97-.09,3.88h10.65Z"/>
      <path class="cls-5" d="M641.49,570.5c0,.35-.1,.64-.3,.9s-.65,.38-1.36,.38c-.36,0-.76-.02-1.22-.07l-.31-.93c.5,.05,.98,.08,1.44,.08,.38,0,.62-.04,.73-.11,.11-.07,.16-.22,.16-.44v-4.68h-3.1c-.21,2.58-.65,4.65-1.32,6.19l-.81-.61c.9-2.04,1.36-4.71,1.36-8.01v-6.7h4.74v14Zm-.86-5.76v-3.31h-2.96l-.05,3.31h3.01Zm0-4.22v-3.13h-2.96v3.13h2.96Zm10.62,10.57l-.55,.81c-1.27-.7-2.3-1.43-3.08-2.2-.65,.66-1.53,1.36-2.65,2.1l-.7-.66c1.19-.73,2.09-1.43,2.72-2.09-1.12-1.37-1.96-3.25-2.53-5.65h-.5v8.4h-.9v-15.29h7.73c-.14,1.88-.29,3.1-.47,3.67-.18,.56-.5,.92-.96,1.07-.46,.15-1.3,.2-2.52,.16l-.31-.94c.34,.03,.68,.04,1.03,.04,.72,0,1.2-.04,1.45-.12,.24-.08,.41-.28,.49-.6,.08-.32,.17-1.12,.27-2.4h-5.82v5.12h6.54c-.26,2.76-1.01,4.92-2.25,6.5,.76,.76,1.77,1.46,3.01,2.09Zm-1.8-7.69h-4.08c.5,2.07,1.24,3.71,2.22,4.9,.98-1.28,1.6-2.91,1.86-4.9Z"/>
      <path class="cls-5" d="M662.15,561.87c-.08,1.54-.55,2.92-1.41,4.14l-.69-.65c.52-.78,.88-1.64,1.08-2.59h-1.68v7.9c0,.23-.1,.48-.29,.73-.19,.26-.68,.38-1.46,.38-.3,0-.58-.02-.83-.05l-.53-.97c.76,.06,1.36,.09,1.79,.09,.09,0,.18-.04,.28-.13,.1-.09,.15-.18,.15-.26v-6.5c-.88,2.2-1.79,3.92-2.74,5.16l-.62-.72c1.06-1.37,2.01-3.25,2.87-5.63h-2.8v-.9h3.99c-.75-.86-1.68-1.67-2.77-2.43l.66-.6c.43,.29,.97,.71,1.63,1.26,.83-.95,1.49-1.85,1.98-2.72h-4.85v-.9h5.88v.9c-.59,1.09-1.36,2.19-2.32,3.31l.62,.69-.56,.48h2.6Zm7.75,4.12c-.04,1.22-.13,2.33-.29,3.31-.16,.98-.32,1.58-.48,1.78s-.36,.38-.61,.53c-.24,.15-1.02,.2-2.32,.16l-.43-.97c.37,.03,.77,.04,1.21,.04,.66,0,1.05-.03,1.18-.1,.13-.06,.22-.16,.3-.29,.07-.13,.15-.52,.25-1.19,.09-.67,.18-1.47,.26-2.4h-3.01c-.5,2.31-2,3.97-4.47,4.96l-.69-.74c.99-.3,1.89-.85,2.69-1.64,.8-.79,1.32-1.65,1.54-2.58h-2.86v-.9h3.08c.09-.47,.14-1.08,.16-1.8l.91,.04c0,.44-.05,1.03-.15,1.77h3.75Zm1.07-2.18l-.52,.81c-1.39-.41-2.68-1.05-3.88-1.92-1.13,.83-2.28,1.46-3.46,1.89l-.63-.77c1.13-.34,2.25-.91,3.35-1.71-.74-.74-1.28-1.41-1.62-2l.79-.45c.41,.71,.92,1.33,1.53,1.87,.82-.7,1.46-1.67,1.91-2.9h-3.86c-.77,.97-1.47,1.71-2.11,2.21l-.7-.64c1.34-1.05,2.47-2.47,3.39-4.24l.9,.34c-.22,.45-.5,.92-.85,1.42h5.48v.9h-1.28c-.47,1.39-1.18,2.55-2.13,3.46,1.11,.78,2.34,1.35,3.68,1.72Z"/>
    </g>
    <rect class="cls-3" x="183.76" y="391.85" width="148.87" height="36.24" rx="18.12" ry="18.12"/>
    <g>
      <path class="cls-2" d="M235.49,405.77c-.49,.84-1.08,1.66-1.75,2.47v9.2h-.93v-8.1c-.65,.69-1.43,1.41-2.34,2.16l-.49-.74c2.24-1.97,3.82-3.81,4.73-5.51l.79,.52Zm-.41-3.58c-1.08,1.34-2.59,2.59-4.53,3.74l-.55-.74c1.97-1.21,3.4-2.41,4.3-3.59l.77,.58Zm10.62,5.76h-2.84v8c0,.39-.1,.7-.3,.93-.2,.23-.43,.36-.69,.41-.26,.05-.78,.07-1.56,.07-.67,0-1.21-.01-1.62-.04l-.38-.97c.51,.02,1.05,.04,1.61,.04,1.05,0,1.63-.02,1.75-.07,.12-.04,.18-.15,.18-.31v-8.07h-6.35v-.95h10.21v.95Zm-.88-4.55h-8.57v-.95h8.57v.95Z"/>
      <path class="cls-2" d="M257.85,413.63c-2.94,1.22-5.51,2.2-7.72,2.94l-.36-.88c.55-.17,.91-.3,1.1-.4v-8.86h.94v8.53c.31-.1,.89-.3,1.73-.62v-11h-3.53v-.93h7.61v.93h-3.13v4.54h2.47v.91h-2.47v5.16c.8-.28,1.87-.7,3.21-1.26l.17,.93Zm7.81,2.99l-.56,.82c-1.76-.94-3.08-2-3.99-3.16-1.27,1.27-2.69,2.32-4.27,3.17l-.62-.74c1.91-1.02,3.36-2.08,4.33-3.17-.73-1.16-1.32-2.57-1.77-4.23l.87-.33c.41,1.59,.91,2.85,1.5,3.78,1.14-1.72,1.81-4.16,1.98-7.32h-3.35c-.42,1.39-.98,2.71-1.66,3.97l-.74-.64c1.13-1.99,1.88-4.39,2.25-7.21l.96,.18c-.16,1-.36,1.92-.58,2.77h5.18v.92h-1.14c-.24,3.7-1.03,6.42-2.36,8.17,.99,1.22,2.32,2.22,3.97,3.01Z"/>
      <path class="cls-2" d="M278.79,409.27h-9.15v-.89h2.53c-.22-1.01-.57-2.11-1.05-3.29l.7-.53h-1.81v-.9h3.99c-.19-.49-.53-1.09-1.01-1.82l.85-.33c.39,.53,.77,1.25,1.15,2.14h3.5v.9h-1.82l.69,.47c-.33,1.18-.74,2.3-1.21,3.34h2.65v.89Zm-1.07,8.08h-.96v-1.2h-5.03v1.2h-.94v-6.29h6.93v6.29Zm-.96-2.12v-3.26h-5.03v3.26h5.03Zm-.31-10.66h-4.51c.53,1.32,.92,2.6,1.18,3.81h2.05c.53-1.09,.95-2.36,1.28-3.81Zm6.91,4c1.22,1.5,1.83,3,1.83,4.51,0,.78-.18,1.35-.55,1.71-.37,.36-1.11,.54-2.22,.54-.19,0-.39,0-.59-.02l-.26-.96c.28,.04,.62,.05,1.02,.05,.52,0,.87-.03,1.06-.1,.18-.06,.34-.21,.46-.42,.13-.22,.19-.53,.19-.95,0-1.34-.63-2.74-1.9-4.2,.63-1.8,1.18-3.65,1.63-5.55h-3.45v14.18h-.88v-15.08h5.23v.91c-.49,1.92-1.02,3.71-1.57,5.4Z"/>
    </g>
    <g>
      <path class="cls-4" d="M214.75,454.83c.69,0,1.27,.24,1.76,.73,.48,.48,.73,1.07,.73,1.75s-.24,1.26-.73,1.75-1.07,.73-1.76,.73-1.27-.24-1.75-.73-.73-1.07-.73-1.75,.24-1.27,.73-1.75c.49-.48,1.07-.73,1.75-.73Z"/>
      <path class="cls-5" d="M243.73,460.54c-.09,1.03-.28,1.89-.58,2.59-.3,.69-.66,1.04-1.09,1.04-.46,0-1-.39-1.64-1.16-.63-.77-1.1-1.57-1.38-2.4-1.36,1.38-2.79,2.55-4.29,3.52l-.7-.74c2-1.29,3.53-2.56,4.6-3.82-.58-2.12-.95-4.56-1.12-7.32h-6.67v2.44h4.82c-.02,1.49-.09,2.81-.22,3.98-.13,1.16-.27,1.88-.42,2.15-.16,.27-.37,.48-.66,.64-.28,.16-.81,.23-1.59,.23-.24,0-.54,0-.89-.03l-.3-.98c.42,.06,.82,.1,1.22,.1,.51,0,.85-.04,1.01-.12,.16-.08,.3-.18,.4-.3,.1-.12,.21-.69,.34-1.7,.13-1.01,.19-2.02,.19-3.04h-3.89c-.11,3.3-.82,6.16-2.11,8.57l-.74-.67c1.29-2.31,1.93-5.27,1.93-8.86v-3.35h7.5c-.05-1.31-.07-2.32-.07-3.02h.94c0,.92,.03,1.93,.09,3.02h4.98v.92h-4.94c.09,2.31,.39,4.47,.9,6.46,1.01-1.38,1.82-3.04,2.44-4.98l.95,.31c-.85,2.3-1.86,4.24-3.05,5.81,.33,.93,.75,1.71,1.25,2.33s.84,.93,1,.93c.18,0,.37-.34,.55-1.02,.19-.68,.28-1.35,.28-2.01l.96,.48Zm-.98-10.05l-.81,.58c-.52-.63-1.21-1.26-2.07-1.89l.76-.62c.83,.55,1.54,1.19,2.12,1.92Z"/>
      <path class="cls-5" d="M263.74,460.66l-.66,.76c-3.13-2.3-5.38-5.34-6.73-9.11v7.69h3.93v.93h-3.93v3.23h-1v-3.23h-4.02v-.93h4.02v-7.69c-.77,2-1.68,3.68-2.73,5.05s-2.45,2.7-4.21,4l-.62-.79c3.3-2.4,5.47-5.15,6.51-8.26h-6.08v-.93h7.12v-3.08h1v3.08h6.92v.93h-5.87c1.19,3.39,3.3,6.17,6.34,8.35Z"/>
      <path class="cls-5" d="M273.04,456.16c-.81,.36-1.48,.65-2,.85v5.6c0,.55-.13,.93-.38,1.15-.25,.21-.78,.32-1.58,.32-.25,0-.52,0-.81-.02l-.31-.95c.38,.02,.73,.04,1.05,.04,.47,0,.77-.04,.9-.13,.13-.09,.2-.24,.2-.45v-5.14c-.59,.24-1.31,.51-2.17,.81l-.31-.94c.78-.25,1.61-.55,2.47-.9v-4h-2.37v-.9h2.37v-3.19h.93v3.19h1.72v.9h-1.72v3.62c.75-.3,1.36-.57,1.84-.79l.16,.93Zm10.37,7.58h-10.69v-.89h5.08v-4.14h-4.29v-.93h9.64v.93h-4.43v4.14h4.68v.89Zm-.02-7.58h-2.77c-.92,0-1.37-.44-1.37-1.33v-3.62h-1.75c-.15,2.53-1.24,4.4-3.28,5.62l-.67-.72c1.87-1.01,2.87-2.65,2.99-4.9h-2.2v2.13h-.92v-3.04h4.42c-.27-.6-.57-1.15-.9-1.66l.85-.36c.41,.6,.76,1.27,1.05,2.02h4.32v3.08h-.9v-2.16h-2.11v3.52c0,.35,.19,.52,.58,.52h2.67v.91Z"/>
      <path class="cls-5" d="M297.37,454.94h-4.43v2.13h3.84v5.05c0,.74-.42,1.12-1.27,1.12h-1.31l-.34-.93h1.6c.12,0,.22-.05,.3-.15s.13-.21,.13-.34v-3.85h-2.95v6.03h-.91v-6.03h-2.86v5.36h-.91v-6.26h3.77v-2.13h-4.6v-.9h4.6v-2.43h-2.92c-.32,.65-.65,1.2-.99,1.64l-.81-.44c.87-1.18,1.55-2.6,2.02-4.25l.92,.17c-.21,.69-.45,1.35-.72,1.98h2.51v-2.42h.91v2.42h4.05v.9h-4.05v2.43h4.43v.9Zm2.17,5.94h-.93v-11.21h.93v11.21Zm3.18,1.87c0,.34-.13,.62-.38,.86-.25,.23-.57,.35-.94,.35h-2.31l-.33-.95h2.6c.11,0,.2-.06,.29-.17,.09-.11,.14-.23,.14-.34v-14.2h.92v14.46Z"/>
      <path class="cls-4" d="M214.75,490.83c.69,0,1.27,.24,1.76,.73,.48,.48,.73,1.07,.73,1.75s-.24,1.26-.73,1.75-1.07,.73-1.76,.73-1.27-.24-1.75-.73-.73-1.07-.73-1.75,.24-1.27,.73-1.75c.49-.48,1.07-.73,1.75-.73Z"/>
      <path class="cls-5" d="M233.2,488.45h-1.93v3.5c.6-.25,1.17-.54,1.71-.87l.2,.96c-.72,.38-1.36,.69-1.91,.91v5.66c0,.59-.17,.97-.52,1.15-.35,.18-.79,.27-1.34,.27h-.81l-.34-.88,1.64-.04c.3,0,.45-.16,.45-.47v-5.27c-.56,.29-1.23,.54-2,.76l-.27-.82c.71-.26,1.47-.56,2.27-.91v-3.95h-2.34v-.9h2.34v-3.28h.92v3.28h1.93v.9Zm10.73,10.01l-.62,.83c-1.95-1.49-3.46-3.17-4.54-5.05v5.84h-.96v-5.76c-1.07,1.81-2.69,3.45-4.83,4.91l-.64-.76c2.33-1.51,3.96-3.16,4.89-4.95h-3.92v-.88h4.51v-1.75h.96v1.75h4.98v.88h-4.29c.93,1.82,2.42,3.46,4.47,4.93Zm-1.08-13.48c-2.22,.9-5.21,1.44-8.98,1.63l-.41-.87c3.7-.16,6.66-.67,8.88-1.55l.51,.79Zm-6.76,5.72l-.82,.4c-.42-1.08-.91-2.07-1.45-2.97l.77-.49c.63,1.01,1.13,2.03,1.5,3.06Zm3.19-.76l-.88,.29c-.23-.98-.57-1.95-1.01-2.92l.83-.35c.46,.94,.81,1.94,1.07,2.98Zm4.15-2.8c-.49,1.47-1.1,2.78-1.84,3.92l-.86-.32c.77-1.29,1.37-2.6,1.8-3.91l.9,.31Z"/>
      <path class="cls-5" d="M252.76,495.61h-2.74l.5,.41c-.52,1.55-1.18,2.92-1.98,4.1l-.67-.58c.64-1.02,1.26-2.33,1.86-3.94h-1.14v-10.64h4.17v10.64Zm-.88-7.44v-2.38h-2.38v2.38h2.38Zm0,3.22v-2.36h-2.38v2.36h2.38Zm0,3.37v-2.48h-2.38v2.48h2.38Zm1.26,4.25l-.77,.36c-.26-.81-.67-1.72-1.21-2.74l.79-.36c.53,1.01,.92,1.92,1.19,2.74Zm10.5-2.02h-1.22v1.8c0,.34-.07,.61-.22,.8-.15,.19-.33,.32-.55,.39-.22,.06-.66,.1-1.32,.1-.33,0-.63,0-.92-.03l-.34-.91c.39,.01,1.07,.02,2.02,.02,.32,0,.48-.17,.48-.5v-1.66h-6v3.12h-.87v-3.12h-1.46v-.79h1.46v-4.25h3.35v-1.35h-4.6v-.77h2.67v-1.39h-1.93v-.79h1.93v-1.2h-2.53v-.79h2.53v-1.32h.88v1.32h2.98v-1.32h.89v1.32h2.48v.79h-2.48v1.2h1.89v.79h-1.89v1.39h2.76v.77h-4.67v1.35h3.48v4.25h1.22v.79Zm-5.61-2.89v-1.32h-2.48v1.32h2.48Zm0,2.1v-1.27h-2.48v1.27h2.48Zm1.93-8.55v-1.2h-2.98v1.2h2.98Zm0,2.18v-1.39h-2.98v1.39h2.98Zm1.59,4.27v-1.32h-2.61v1.32h2.61Zm0,2.1v-1.27h-2.61v1.27h2.61Z"/>
      <path class="cls-5" d="M275.14,485.63c-1.13,1.46-2.8,2.75-5.01,3.87h4.15v3.69h-3.61l-.24,1.98h3.85c0,1.44-.06,2.46-.17,3.04-.11,.59-.27,1-.48,1.24-.21,.24-.44,.4-.7,.47-.26,.07-.97,.11-2.15,.11-.48,0-.95-.01-1.43-.04l-.22-.93,3.03,.05c.45,.02,.76-.19,.93-.62,.17-.43,.25-1.24,.24-2.44h-3.91l.38-3.74h3.57v-1.91h-3.46v-.81c-.59,.28-1.16,.52-1.71,.71l-.55-.81c.97-.28,1.98-.72,3.01-1.33-.39-.39-.94-.78-1.66-1.17l.5-.69c.79,.46,1.45,.92,1.96,1.38,1.1-.71,1.92-1.4,2.46-2.07h-4.53v-.9h5.73v.9Zm8.1,13.79l-.63,.7c-1.02-.83-2.1-1.6-3.23-2.31-1.24,1-2.55,1.77-3.94,2.31l-.65-.7c1.12-.36,2.4-1.07,3.84-2.11l-2.96-1.77,.53-.64h-.79v-.92h6.58c-.42,1.25-1.07,2.33-1.93,3.24,.93,.52,1.99,1.25,3.2,2.2Zm-.49-6.32h-1.96c-.27,0-.5-.09-.7-.26-.2-.18-.3-.41-.3-.71v-1.72h-2.24c-.09,1.32-.65,2.35-1.67,3.08l-.77-.63c1.07-.7,1.61-1.82,1.6-3.35h3.99v2.38c0,.21,.13,.32,.4,.32h1.66v.91Zm.62-3.66l-.43,.81c-3.1-1.07-5.4-2.96-6.91-5.67l.85-.36c.36,.63,.77,1.2,1.21,1.71,.56-.47,1.07-.98,1.53-1.53l.83,.38c-.49,.63-1.07,1.23-1.75,1.82,.48,.5,.89,.86,1.22,1.05,.74-.54,1.38-1.1,1.93-1.67l.74,.48c-.62,.68-1.25,1.25-1.88,1.71,.81,.5,1.7,.92,2.67,1.26Zm-2.74,5.46h-4.31c1.13,.63,2.13,1.22,2.99,1.79,.49-.46,.93-1.06,1.32-1.79Z"/>
      <path class="cls-5" d="M302.5,486.3c-.1,5.37-.28,8.36-.54,8.98s-.93,.93-2.02,.93c-.25,0-.57-.02-.95-.05l-.27-.99c.44,.05,.8,.07,1.07,.07,.54,0,.89-.05,1.05-.16,.16-.11,.28-.44,.36-.98,.08-.55,.15-1.5,.2-2.86s.08-2.7,.08-4.02h-10.19c-1.03,1.3-2.05,2.33-3.08,3.09l-.74-.68c1.8-1.32,3.33-3.13,4.58-5.41l.91,.49c-.18,.32-.52,.84-1.01,1.58h10.55Zm.77,10.56c-.19,1.76-.6,2.71-1.23,2.85-.63,.14-2.98,.21-7.05,.21-1.03,0-1.94,0-2.72-.01-.78,0-1.28-.06-1.52-.15-.23-.09-.42-.23-.56-.43-.14-.19-.21-.47-.21-.82v-8.87h7.88v5.2h-6.93v3.49c0,.33,.14,.52,.41,.57,.28,.05,1.65,.08,4.13,.08,3.67,0,5.71-.06,6.12-.17,.41-.11,.65-.88,.73-2.32l.95,.36Zm-6.38-2.97v-3.3h-5.95v3.3h5.95Z"/>
      <path class="cls-4" d="M214.75,526.83c.69,0,1.27,.24,1.76,.73,.48,.48,.73,1.07,.73,1.75s-.24,1.26-.73,1.75-1.07,.73-1.76,.73-1.27-.24-1.75-.73-.73-1.07-.73-1.75,.24-1.27,.73-1.75c.49-.48,1.07-.73,1.75-.73Z"/>
      <path class="cls-5" d="M235.61,522.48h-4.77c-.75,.93-1.5,1.65-2.27,2.16l-.6-.62c1.57-1.21,2.62-2.5,3.15-3.85l.85,.29c-.16,.41-.35,.78-.55,1.1h4.18v.91Zm-.47,12.71l-.57,.69c-.77-.7-1.62-1.36-2.53-1.96-.93,.96-2.11,1.66-3.56,2.12l-.5-.74c2.21-.71,3.59-1.8,4.15-3.27h-2.11v-3.42h4.97v3.42h-1.89c-.11,.32-.31,.72-.6,1.22,1.1,.69,1.99,1.33,2.65,1.94Zm8.69-7.92l-.48,.83c-1.48-.35-2.9-.81-4.23-1.41v.76h-6.35v-.77c-1.6,.74-3.05,1.22-4.35,1.44l-.41-.81c3.14-.64,5.76-1.86,7.86-3.66l1.01,.27-.34,.29c2.09,1.47,4.52,2.49,7.3,3.06Zm-9.76,3.9v-1.72h-3.12v1.72h3.12Zm-.48-6.77l-.86,.34c-.32-.64-.62-1.15-.92-1.51l.79-.33c.22,.21,.56,.71,1,1.49Zm5.27,2.18c-1.04-.49-2.05-1.08-3.03-1.78-.82,.64-1.77,1.24-2.85,1.78h5.88Zm4.83,8.71l-.48,.79c-1.1-.75-2.48-1.46-4.13-2.14-.93,1.01-1.96,1.71-3.09,2.08l-.5-.74c1.96-.71,3.15-1.8,3.58-3.27h-2.25v-3.42h4.92v3.42h-1.72c-.11,.36-.28,.75-.5,1.19,1.69,.69,3.08,1.39,4.18,2.08Zm-.12-12.81h-6.14c-.13,.16-.43,.5-.9,.99l-.79-.43c.93-.88,1.62-1.82,2.09-2.83l.83,.22c-.12,.37-.31,.75-.55,1.13h5.47v.91Zm-2.76,8.69v-1.72h-3.06v1.72h3.06Zm.47-6.69l-.77,.33c-.45-.76-.79-1.27-1.04-1.55l.76-.38c.29,.28,.65,.81,1.06,1.59Z"/>
      <path class="cls-5" d="M253.25,523.65h-.96l.58,.43c-.3,1.44-.58,2.58-.85,3.43h1.23v.91h-2.03c0,1.06-.04,1.94-.11,2.63h1.75v.86h-1.88c-.32,1.48-.97,2.86-1.95,4.12l-.7-.52c.9-1.19,1.49-2.39,1.75-3.6h-1.86v-.86h2.02c.1-.77,.14-1.64,.12-2.63h-2.49v-.91h1.32c-.16-1.1-.4-2.24-.7-3.43l.62-.43h-1.03v-.9h2.31c-.18-.71-.41-1.45-.7-2.21l.85-.29c.29,.73,.55,1.56,.77,2.5h1.94v.9Zm-1.23,0h-2.65c.27,1.25,.5,2.53,.69,3.86h1.03c.4-1.32,.71-2.61,.93-3.86Zm5.43,.53c.03,1.88,0,4.03-.1,6.44-.1,2.41-.19,3.8-.29,4.16-.09,.36-.28,.65-.55,.88-.27,.23-.77,.34-1.51,.34-.18,0-.38,0-.58-.03l-.31-.9c.33,.02,.6,.04,.83,.04,.47,0,.77-.04,.89-.12,.12-.08,.22-.18,.29-.31s.14-.62,.2-1.47,.12-2.03,.17-3.52c.05-1.49,.08-3.05,.1-4.66h-1.26c-.17,5.08-1.05,8.73-2.65,10.96l-.76-.47c.73-1.03,1.31-2.31,1.73-3.83,.42-1.52,.67-3.74,.77-6.67h-.98v-.86h1c.08-1.44,.12-2.73,.12-3.86h.86c0,1.49-.03,2.77-.09,3.86h2.11Zm6.11,4.28h-2.49v2.63h2.13v.89h-2.13v4.1h-.9v-4.1h-2.02v-.89h2.02v-2.63h-2.03v-.91h1.14c-.25-1.19-.55-2.32-.89-3.4l.6-.44h-.98v-.9h2.42c-.39-1.29-.63-2.06-.74-2.32l.86-.24c.13,.3,.41,1.16,.83,2.56h1.98v.9h-.99l.69,.46c-.28,1.15-.62,2.28-1.01,3.38h1.51v.91Zm-1.34-4.75h-3.03c.4,1.29,.74,2.58,1.01,3.84h.94c.45-1.37,.81-2.65,1.07-3.84Z"/>
      <path class="cls-5" d="M273.44,536.11h-.93v-4.94c-1.27,.68-2.64,1.29-4.11,1.84l-.41-1.15c.24-.15,.36-.37,.36-.65v-9.26h.93v9.69c1.26-.46,2.33-.97,3.23-1.51v-9.83h.93v15.83Zm9.98-.82l-.62,.85c-1.83-.93-3.22-1.97-4.17-3.12-1.19,1.25-2.54,2.27-4.05,3.06l-.67-.76c1.74-.88,3.12-1.91,4.15-3.08-.8-1.23-1.45-2.77-1.93-4.62l.9-.27c.49,1.81,1.03,3.18,1.64,4.1,1.17-1.72,1.86-4.26,2.08-7.61h-3.7c-.53,1.65-1.28,3.18-2.24,4.59l-.72-.72c1.43-2.1,2.39-4.59,2.87-7.47l.93,.17c-.1,.7-.28,1.54-.55,2.51h5.93v.92h-1.55c-.37,4-1.19,6.81-2.47,8.42,.97,1.21,2.36,2.21,4.17,3.02Z"/>
      <path class="cls-5" d="M294.98,521.63c-1.13,1.46-2.8,2.75-5.01,3.87h4.15v3.69h-3.61l-.24,1.98h3.85c0,1.44-.06,2.46-.17,3.04-.11,.59-.27,1-.48,1.24-.21,.24-.44,.4-.7,.47-.26,.07-.97,.11-2.15,.11-.48,0-.95-.01-1.43-.04l-.22-.93,3.03,.05c.45,.02,.76-.19,.93-.62,.17-.43,.25-1.24,.24-2.44h-3.91l.38-3.74h3.57v-1.91h-3.46v-.81c-.59,.28-1.16,.52-1.71,.71l-.55-.81c.97-.28,1.98-.72,3.01-1.33-.39-.39-.94-.78-1.66-1.17l.5-.69c.79,.46,1.45,.92,1.96,1.38,1.1-.71,1.92-1.4,2.46-2.07h-4.53v-.9h5.73v.9Zm8.1,13.79l-.63,.7c-1.02-.83-2.1-1.6-3.23-2.31-1.24,1-2.55,1.77-3.94,2.31l-.65-.7c1.12-.36,2.4-1.07,3.84-2.11l-2.96-1.77,.53-.64h-.79v-.92h6.58c-.42,1.25-1.07,2.33-1.93,3.24,.93,.52,1.99,1.25,3.2,2.2Zm-.49-6.32h-1.96c-.27,0-.5-.09-.7-.26-.2-.18-.3-.41-.3-.71v-1.72h-2.24c-.09,1.32-.65,2.35-1.67,3.08l-.77-.63c1.07-.7,1.61-1.82,1.6-3.35h3.99v2.38c0,.21,.13,.32,.4,.32h1.66v.91Zm.62-3.66l-.43,.81c-3.1-1.07-5.4-2.96-6.91-5.67l.85-.36c.36,.63,.77,1.2,1.21,1.71,.56-.47,1.07-.98,1.53-1.53l.83,.38c-.49,.63-1.07,1.23-1.75,1.82,.48,.5,.89,.86,1.22,1.05,.74-.54,1.38-1.1,1.93-1.67l.74,.48c-.62,.68-1.25,1.25-1.88,1.71,.81,.5,1.7,.92,2.67,1.26Zm-2.74,5.46h-4.31c1.13,.63,2.13,1.22,2.99,1.79,.49-.46,.93-1.06,1.32-1.79Z"/>
      <path class="cls-4" d="M214.75,562.83c.69,0,1.27,.24,1.76,.73,.48,.48,.73,1.07,.73,1.75s-.24,1.26-.73,1.75-1.07,.73-1.76,.73-1.27-.24-1.75-.73-.73-1.07-.73-1.75,.24-1.27,.73-1.75c.49-.48,1.07-.73,1.75-.73Z"/>
      <path class="cls-5" d="M243.76,559.92h-1.64v1.92h-5.78v1.12h6.06v.76h-6.06v1.19h7.41v.77h-15.67v-.77h7.36v-1.19h-5.97v-.76h5.97v-1.12h-5.71v-.72h5.71v-1.2h-7.36v-.74h7.36v-1.17h-5.71v-.77h5.71v-.92h.9v.92h5.78v1.94h1.64v.74Zm-1.75,12.13h-.93v-.59h-10.26v.59h-.94v-5.24h12.13v5.24Zm-.93-3.3v-1.18h-10.26v1.18h10.26Zm0,1.94v-1.19h-10.26v1.19h10.26Zm.12-11.5v-1.17h-4.85v1.17h4.85Zm0,1.94v-1.2h-4.85v1.2h4.85Z"/>
      <path class="cls-5" d="M262.84,572.06h-.93v-1.17h-12.28v1.17h-.96v-15.12h14.18v15.12Zm-.93-2.01v-12.28h-12.28v12.28h12.28Zm-.92-7.15h-10.46v-.74h4.8v-.88h-3.7v-2.52h8.29v2.52h-3.65v.88h4.72v.74Zm-.83,6.17h-8.78v-5.34h8.78v5.34Zm-.9-.73v-3.89h-6.96v3.89h6.96Zm-.24-7.8v-1.03h-6.47v1.03h6.47Zm-1.17,6.98h-4.18v-2.34h4.18v2.34Zm-.85-.7v-.93h-2.49v.93h2.49Z"/>
      <path class="cls-5" d="M275.45,558.41h-5.05c-.59,.74-1.25,1.42-1.98,2.03l-.72-.57c1.28-1.04,2.28-2.27,2.99-3.67l.88,.36c-.13,.28-.33,.62-.59,1.05h4.47v.81Zm7.54,6.03h-.91v-2.5h-12.94v2.49h-.92v-3.35h6.8c-.06-.25-.2-.58-.43-.99l.81-.3c.25,.39,.44,.82,.57,1.29h7.02v3.37Zm-1.64,6.84h-10.13v.74h-.94v-8.73h10.55v3.09h-9.61v1.42h10.13v3.47Zm-1.46-5.76v-1.39h-8.67v1.39h8.67Zm.54,4.9v-1.75h-9.21v1.75h9.21Zm-6.85-10.22l-.83,.36c-.22-.43-.55-.93-1.01-1.49l.81-.33c.43,.5,.78,.98,1.03,1.46Zm9.84-1.77h-5.77c-.39,.47-.85,.94-1.37,1.41l-.74-.53c1.3-1.24,2.12-2.27,2.47-3.08l.88,.34c-.15,.3-.35,.64-.6,1.01h5.12v.84Zm-2.63,1.87l-.79,.31c-.41-.78-.72-1.3-.92-1.56l.85-.31c.36,.53,.65,1.05,.86,1.56Z"/>
      <path class="cls-5" d="M292.93,567.78c-1.3,.74-3.01,1.64-5.11,2.7l-.4-.79c1.1-.53,1.94-.96,2.51-1.29v-4.97h-2.1v-.88h2.1v-4.12h-2.39v-.84h5.38v.84h-2.1v4.12h1.88v.88h-1.88v4.48c.62-.3,1.27-.67,1.96-1.1l.13,.98Zm10.36,3.92h-10.39v-.88h4.71v-2.58h-4.02v-.9h4.02v-2.21h-3.87v-8.37h8.73v8.37h-3.94v2.21h4.15v.9h-4.15v2.58h4.76v.88Zm-5.68-11.22v-2.83h-2.96v2.83h2.96Zm0,3.74v-2.87h-2.96v2.87h2.96Zm3.93-3.74v-2.83h-3.01v2.83h3.01Zm0,3.74v-2.87h-3.01v2.87h3.01Z"/>
    </g>
    <rect class="cls-3" x="0" y="391.57" width="148.87" height="36.24" rx="18.12" ry="18.12"/>
    <g>
      <path class="cls-2" d="M52.78,413.1h-3.83l.48,.33c-.79,1.56-1.7,2.87-2.73,3.94l-.74-.64c.99-.96,1.86-2.16,2.6-3.62h-1.71v-10.63h5.93v10.63Zm-.92-7.49v-2.25h-4.06v2.25h4.06Zm0,3.3v-2.4h-4.06v2.4h4.06Zm0,3.3v-2.4h-4.06v2.4h4.06Zm1.6,4.44l-.85,.51c-.43-.89-1.12-1.93-2.07-3.11l.85-.46c.76,.94,1.45,1.96,2.07,3.06Zm8.12-10.74h-1.64v10.1c0,.33-.11,.62-.33,.86-.22,.25-.48,.39-.78,.42-.3,.04-1.14,.04-2.51,.03l-.33-.97c.65,.05,1.17,.07,1.57,.07,.75,0,1.17-.06,1.28-.18,.11-.12,.16-.24,.16-.34v-8.33c-1.41,2.68-3.12,4.84-5.14,6.46l-.7-.69c2.52-1.94,4.39-4.41,5.63-7.42h-5.23v-.94h5.44v-3.35h.94v3.35h1.64v.94Z"/>
      <path class="cls-2" d="M72.62,407.46c-.08,1.54-.55,2.92-1.41,4.14l-.69-.65c.52-.78,.88-1.64,1.08-2.59h-1.68v7.9c0,.23-.1,.48-.29,.73-.19,.26-.68,.38-1.46,.38-.3,0-.58-.02-.83-.05l-.53-.97c.76,.06,1.36,.09,1.79,.09,.09,0,.18-.04,.28-.13,.1-.09,.15-.18,.15-.26v-6.5c-.88,2.2-1.79,3.92-2.74,5.16l-.62-.72c1.06-1.37,2.01-3.25,2.87-5.63h-2.8v-.9h3.99c-.75-.86-1.68-1.67-2.77-2.43l.66-.6c.43,.29,.97,.71,1.63,1.26,.83-.95,1.49-1.85,1.98-2.72h-4.85v-.9h5.88v.9c-.59,1.09-1.36,2.19-2.32,3.31l.62,.69-.56,.48h2.6Zm7.75,4.12c-.04,1.22-.13,2.33-.29,3.31-.16,.98-.32,1.58-.48,1.78s-.36,.38-.61,.53c-.24,.15-1.02,.2-2.32,.16l-.43-.97c.37,.03,.77,.04,1.21,.04,.66,0,1.05-.03,1.18-.1,.13-.06,.22-.16,.3-.29,.07-.13,.15-.52,.25-1.19,.09-.67,.18-1.47,.26-2.4h-3.01c-.5,2.31-2,3.97-4.47,4.96l-.69-.74c.99-.3,1.89-.85,2.69-1.64,.8-.79,1.32-1.65,1.54-2.58h-2.86v-.9h3.08c.09-.47,.14-1.08,.16-1.8l.91,.04c0,.44-.05,1.03-.15,1.77h3.75Zm1.07-2.18l-.52,.81c-1.39-.41-2.68-1.05-3.88-1.92-1.13,.83-2.28,1.46-3.46,1.89l-.63-.77c1.13-.34,2.25-.91,3.35-1.71-.74-.74-1.28-1.41-1.62-2l.79-.45c.41,.71,.92,1.33,1.53,1.87,.82-.7,1.46-1.67,1.91-2.9h-3.86c-.77,.97-1.47,1.71-2.11,2.21l-.7-.64c1.34-1.05,2.47-2.47,3.39-4.24l.9,.34c-.22,.45-.5,.92-.85,1.42h5.48v.9h-1.28c-.47,1.39-1.18,2.55-2.13,3.46,1.11,.78,2.34,1.35,3.68,1.72Z"/>
      <path class="cls-2" d="M94.74,409.27h-9.15v-.89h2.53c-.22-1.01-.57-2.11-1.05-3.29l.7-.53h-1.81v-.9h3.99c-.19-.49-.53-1.09-1.01-1.82l.85-.33c.39,.53,.77,1.25,1.15,2.14h3.5v.9h-1.82l.69,.47c-.33,1.18-.74,2.3-1.21,3.34h2.65v.89Zm-1.07,8.08h-.96v-1.2h-5.03v1.2h-.94v-6.29h6.93v6.29Zm-.96-2.12v-3.26h-5.03v3.26h5.03Zm-.31-10.66h-4.51c.53,1.32,.92,2.6,1.18,3.81h2.05c.53-1.09,.95-2.36,1.28-3.81Zm6.91,4c1.22,1.5,1.83,3,1.83,4.51,0,.78-.18,1.35-.55,1.71-.37,.36-1.11,.54-2.22,.54-.19,0-.39,0-.59-.02l-.26-.96c.28,.04,.62,.05,1.02,.05,.52,0,.87-.03,1.06-.1,.18-.06,.34-.21,.46-.42,.13-.22,.19-.53,.19-.95,0-1.34-.63-2.74-1.9-4.2,.63-1.8,1.18-3.65,1.63-5.55h-3.45v14.18h-.88v-15.08h5.23v.91c-.49,1.92-1.02,3.71-1.57,5.4Z"/>
    </g>
    <g>
      <path class="cls-4" d="M32.71,454.55c.69,0,1.27,.24,1.76,.73,.48,.48,.73,1.07,.73,1.75s-.24,1.26-.73,1.75-1.07,.73-1.76,.73-1.27-.24-1.75-.73-.73-1.07-.73-1.75,.24-1.27,.73-1.75c.49-.48,1.07-.73,1.75-.73Z"/>
      <path class="cls-5" d="M52.88,459.51h-3.83l.48,.33c-.79,1.56-1.7,2.87-2.73,3.94l-.74-.64c.99-.96,1.86-2.16,2.6-3.62h-1.71v-10.63h5.93v10.63Zm-.92-7.49v-2.25h-4.06v2.25h4.06Zm0,3.3v-2.4h-4.06v2.4h4.06Zm0,3.3v-2.4h-4.06v2.4h4.06Zm1.6,4.44l-.85,.51c-.43-.89-1.12-1.93-2.07-3.11l.85-.46c.76,.94,1.45,1.96,2.07,3.06Zm8.12-10.74h-1.64v10.1c0,.33-.11,.62-.33,.86-.22,.25-.48,.39-.78,.42-.3,.04-1.14,.04-2.51,.03l-.33-.97c.65,.05,1.17,.07,1.57,.07,.75,0,1.17-.06,1.28-.18,.11-.12,.16-.24,.16-.34v-8.33c-1.41,2.68-3.12,4.84-5.14,6.46l-.7-.69c2.52-1.94,4.39-4.41,5.63-7.42h-5.23v-.94h5.44v-3.35h.94v3.35h1.64v.94Z"/>
      <path class="cls-5" d="M72.72,453.87c-.08,1.54-.55,2.92-1.41,4.14l-.69-.65c.52-.78,.88-1.64,1.08-2.59h-1.68v7.9c0,.23-.1,.48-.29,.73-.19,.26-.68,.38-1.46,.38-.3,0-.58-.02-.83-.05l-.53-.97c.76,.06,1.36,.09,1.79,.09,.09,0,.18-.04,.28-.13,.1-.09,.15-.18,.15-.26v-6.5c-.88,2.2-1.79,3.92-2.74,5.16l-.62-.72c1.06-1.37,2.01-3.25,2.87-5.63h-2.8v-.9h3.99c-.75-.86-1.68-1.67-2.77-2.43l.66-.6c.43,.29,.97,.71,1.63,1.26,.83-.95,1.49-1.85,1.98-2.72h-4.85v-.9h5.88v.9c-.59,1.09-1.36,2.19-2.32,3.31l.62,.69-.56,.48h2.6Zm7.75,4.12c-.04,1.22-.13,2.33-.29,3.31-.16,.98-.32,1.58-.48,1.78s-.36,.38-.61,.53c-.24,.15-1.02,.2-2.32,.16l-.43-.97c.37,.03,.77,.04,1.21,.04,.66,0,1.05-.03,1.18-.1,.13-.06,.22-.16,.3-.29,.07-.13,.15-.52,.25-1.19,.09-.67,.18-1.47,.26-2.4h-3.01c-.5,2.31-2,3.97-4.47,4.96l-.69-.74c.99-.3,1.89-.85,2.69-1.64,.8-.79,1.32-1.65,1.54-2.58h-2.86v-.9h3.08c.09-.47,.14-1.08,.16-1.8l.91,.04c0,.44-.05,1.03-.15,1.77h3.75Zm1.07-2.18l-.52,.81c-1.39-.41-2.68-1.05-3.88-1.92-1.13,.83-2.28,1.46-3.46,1.89l-.63-.77c1.13-.34,2.25-.91,3.35-1.71-.74-.74-1.28-1.41-1.62-2l.79-.45c.41,.71,.92,1.33,1.53,1.87,.82-.7,1.46-1.67,1.91-2.9h-3.86c-.77,.97-1.47,1.71-2.11,2.21l-.7-.64c1.34-1.05,2.47-2.47,3.39-4.24l.9,.34c-.22,.45-.5,.92-.85,1.42h5.48v.9h-1.28c-.47,1.39-1.18,2.55-2.13,3.46,1.11,.78,2.34,1.35,3.68,1.72Z"/>
      <path class="cls-5" d="M100.39,463.81h-.97v-.84h-12.7v-6.05h.94v5.12h5.44v-6.92h-5.63v-5.92h.98v4.98h4.65v-6.13h.92v6.13h4.59v-4.98h.95v5.92h-5.49v6.92h5.35v-5.13h.97v6.91Z"/>
      <path class="cls-5" d="M107.56,459.63c-.22,1.19-.65,2.6-1.29,4.24l-.86-.36c.58-1.33,1-2.69,1.28-4.07l.87,.19Zm4.61-.97l-.88,.25c-.11-.35-.23-.7-.36-1.04-1.43,.38-3.09,.72-5,1.02l-.26-.91c1.36-1.14,2.54-2.51,3.57-4.12-1.04,.15-2.1,.25-3.17,.31l-.17-.84c1.3-1.37,2.46-3.16,3.46-5.35l.94,.36c-.92,1.89-1.94,3.51-3.08,4.86,.83-.04,1.7-.12,2.6-.25,.45-.66,.89-1.41,1.31-2.25l.81,.33c-1.25,2.63-2.83,4.89-4.75,6.77,.89-.12,2.02-.36,3.39-.71-.15-.44-.38-.92-.67-1.44l.86-.34c.53,1.01,1,2.14,1.41,3.37Zm-2.51,4.75l-.92,.15c-.02-1.34-.15-2.69-.4-4.05l.88-.07c.27,1.44,.41,2.77,.43,3.97Zm2.44-.62l-.89,.21c-.25-1.21-.62-2.4-1.12-3.56l.85-.22c.49,1.12,.88,2.31,1.15,3.57Zm8.76-.34c0,.38-.1,.69-.29,.93-.2,.25-.47,.39-.82,.42-.35,.04-.94,.04-1.77,0l-.38-.95c.29,.01,.9,.02,1.82,.02,.33,0,.49-.14,.49-.43v-2.54l-.56,.58c-1.12-1.42-1.96-3.45-2.53-6.07-.65,2.6-1.45,4.59-2.41,5.99l-.69-.45v3.83h-.93v-12.22h3.58c0-1.09,0-1.87,.02-2.34h-1.38v-.92h2.29c-.02,1.07,0,2.16,.04,3.26h3.53v10.87Zm-4.58-9.92h-2.56v7.21c1.2-1.83,2.05-4.24,2.56-7.21Zm3.63,7.06v-7.06h-2.47c.44,3.19,1.26,5.54,2.47,7.06Z"/>
      <path class="cls-4" d="M32.71,490.55c.69,0,1.27,.24,1.76,.73,.48,.48,.73,1.07,.73,1.75s-.24,1.26-.73,1.75-1.07,.73-1.76,.73-1.27-.24-1.75-.73-.73-1.07-.73-1.75,.24-1.27,.73-1.75c.49-.48,1.07-.73,1.75-.73Z"/>
      <path class="cls-5" d="M61.86,487.57l-.4,.86c-1.95-.47-3.52-1-4.7-1.6v.7h-5.83v-.69c-1.27,.66-2.79,1.25-4.54,1.75l-.48-.82c3.23-.83,5.82-2.12,7.77-3.87l1.04,.31c-.13,.13-.22,.22-.28,.27,1.89,1.42,4.36,2.44,7.42,3.08Zm-1.78,5.47h-12.52v-4.42h12.52v4.42Zm-.79,6.73h-.91v-.76h-9.05v.76h-.95v-5.69h10.91v5.69Zm-5.93-7.59v-2.7h-4.87v2.7h4.87Zm5.03,3.95v-1.17h-9.05v1.17h9.05Zm0,2.03v-1.2h-9.05v1.2h9.05Zm-6.52-6.89l-.67,.5c-.4-.53-.85-1.04-1.36-1.53l.69-.45c.5,.4,.95,.89,1.34,1.48Zm4.47-4.6c-.92-.47-1.78-1.01-2.58-1.6-.79,.6-1.59,1.14-2.42,1.6h5Zm2.83,5.51v-2.7h-4.85v2.7h4.85Zm-1.36-2.01c-.42,.62-.87,1.14-1.36,1.58l-.7-.5c.49-.38,.92-.84,1.3-1.39l.76,.31Z"/>
      <path class="cls-5" d="M73.33,487.14h-7.47v-.94h3.41c-.26-.61-.62-1.25-1.07-1.92l.9-.36c.4,.55,.81,1.31,1.22,2.29h3.01v.94Zm-.92,2.58h-5.71v-.91h5.71v.91Zm0,2.53h-5.71v-.88h5.71v.88Zm0,7.38h-.92v-.88h-3.86v1.02h-.93v-5.79h5.71v5.65Zm-.92-1.84v-2.92h-3.86v2.92h3.86Zm10.1-7.63h-3.6v9.64h-.98v-9.64h-3.59v-.96h3.59v-5.12h.98v5.12h3.6v.96Z"/>
      <path class="cls-5" d="M92.05,493.15l-.65,.67c-.69-.93-1.32-1.69-1.91-2.29v8.28h-.92v-7.94c-.83,1.84-1.57,3.25-2.24,4.22l-.67-.69c1.06-1.56,2-3.48,2.84-5.75h-2.65v-.9h2.72v-2.73c-.83,.18-1.57,.3-2.2,.38l-.43-.89c2.26-.32,4.04-.8,5.35-1.46l.6,.82c-.54,.27-1.34,.56-2.4,.88v3.01h2.4v.9h-2.4v.62c1.26,1.27,2.12,2.23,2.56,2.88Zm9.32,2.94c0,1.31-.12,2.21-.35,2.72-.23,.51-.69,.76-1.39,.76-.74,0-1.24-.03-1.49-.07-.25-.05-.46-.17-.63-.37-.17-.2-.26-.48-.26-.86v-5.54h-1.62c-.06,3.38-1.42,5.76-4.08,7.13l-.67-.72c2.5-1.2,3.78-3.34,3.84-6.41h-1.76v-4.75h7.19v4.75h-1.98v5.47c0,.31,.31,.47,.92,.47,.56,0,.91-.08,1.05-.22,.14-.15,.24-1.04,.31-2.67l.9,.31Zm-5.7-11.47c-.88,1.18-2.12,2.32-3.72,3.42l-.65-.69c1.74-1.21,2.94-2.32,3.61-3.31l.76,.58Zm3.51,7.22v-2.94h-5.28v2.94h5.28Zm2.34-4.64l-.63,.72c-1.12-1.19-2.39-2.25-3.8-3.19l.61-.69c1.34,.84,2.61,1.89,3.82,3.16Z"/>
      <path class="cls-5" d="M112.39,489.87c-.08,1.54-.55,2.92-1.41,4.14l-.69-.65c.52-.78,.88-1.64,1.08-2.59h-1.68v7.9c0,.23-.1,.48-.29,.73-.19,.26-.68,.38-1.46,.38-.3,0-.58-.02-.83-.05l-.53-.97c.76,.06,1.36,.09,1.79,.09,.09,0,.18-.04,.28-.13,.1-.09,.15-.18,.15-.26v-6.5c-.88,2.2-1.79,3.92-2.74,5.16l-.62-.72c1.06-1.37,2.01-3.25,2.87-5.63h-2.8v-.9h3.99c-.75-.86-1.68-1.67-2.77-2.43l.66-.6c.43,.29,.97,.71,1.63,1.26,.83-.95,1.49-1.85,1.98-2.72h-4.85v-.9h5.88v.9c-.59,1.09-1.36,2.19-2.32,3.31l.62,.69-.56,.48h2.6Zm7.75,4.12c-.04,1.22-.13,2.33-.29,3.31-.16,.98-.32,1.58-.48,1.78s-.36,.38-.61,.53c-.24,.15-1.02,.2-2.32,.16l-.43-.97c.37,.03,.77,.04,1.21,.04,.66,0,1.05-.03,1.18-.1,.13-.06,.22-.16,.3-.29,.07-.13,.15-.52,.25-1.19,.09-.67,.18-1.47,.26-2.4h-3.01c-.5,2.31-2,3.97-4.47,4.96l-.69-.74c.99-.3,1.89-.85,2.69-1.64,.8-.79,1.32-1.65,1.54-2.58h-2.86v-.9h3.08c.09-.47,.14-1.08,.16-1.8l.91,.04c0,.44-.05,1.03-.15,1.77h3.75Zm1.07-2.18l-.52,.81c-1.39-.41-2.68-1.05-3.88-1.92-1.13,.83-2.28,1.46-3.46,1.89l-.63-.77c1.13-.34,2.25-.91,3.35-1.71-.74-.74-1.28-1.41-1.62-2l.79-.45c.41,.71,.92,1.33,1.53,1.87,.82-.7,1.46-1.67,1.91-2.9h-3.86c-.77,.97-1.47,1.71-2.11,2.21l-.7-.64c1.34-1.05,2.47-2.47,3.39-4.24l.9,.34c-.22,.45-.5,.92-.85,1.42h5.48v.9h-1.28c-.47,1.39-1.18,2.55-2.13,3.46,1.11,.78,2.34,1.35,3.68,1.72Z"/>
      <path class="cls-4" d="M32.71,526.55c.69,0,1.27,.24,1.76,.73,.48,.48,.73,1.07,.73,1.75s-.24,1.26-.73,1.75-1.07,.73-1.76,.73-1.27-.24-1.75-.73-.73-1.07-.73-1.75,.24-1.27,.73-1.75c.49-.48,1.07-.73,1.75-.73Z"/>
      <path class="cls-5" d="M47.87,531.51c-.21,1.54-.56,2.96-1.05,4.26l-.86-.3c.52-1.39,.86-2.78,1.03-4.17l.88,.2Zm4.4-1.31l-.76,.28c-.05-.21-.13-.47-.26-.79-1.67,.52-3.3,.9-4.89,1.15l-.33-.88c1.25-1.05,2.42-2.47,3.5-4.25-1.13,.22-2.16,.38-3.09,.48l-.28-.86c1.13-1.28,2.12-3.07,2.98-5.35l.83,.25c-.76,2.05-1.65,3.7-2.69,4.95,.79-.09,1.73-.26,2.83-.5,.44-.72,.85-1.5,1.22-2.34l.84,.36c-1.5,3.04-3.13,5.4-4.87,7.07,1.03-.16,2.25-.46,3.65-.91-.06-.29-.21-.69-.45-1.2l.76-.36c.44,.97,.77,1.93,1,2.9Zm-2.2,4.91l-.88,.18c-.01-1.08-.19-2.33-.55-3.73l.85-.19c.32,1.13,.51,2.38,.57,3.74Zm1.96-1.8l-.85,.29c-.12-.73-.31-1.46-.57-2.21l.81-.29c.26,.69,.46,1.42,.61,2.21Zm2.02-2.3c-.38,1.74-.87,3.14-1.46,4.19l-.79-.41c.67-1.23,1.13-2.57,1.38-4.02l.87,.24Zm6.47-1.53h-7.72v-8.07h2.08c.26-.49,.49-.96,.69-1.39l.81,.25c-.15,.43-.31,.81-.5,1.13h4.65v8.07Zm-.9-.87v-6.32h-5.9v6.32h5.9Zm-.53-1.46l-.54,.67c-.46-.53-.85-.95-1.17-1.26-.45,.56-.92,1.08-1.41,1.58l-.63-.52c.53-.56,1-1.1,1.39-1.63-.28-.29-.55-.52-.81-.68-.26,.35-.63,.77-1.12,1.26l-.62-.58c.29-.26,.64-.65,1.05-1.19-.3-.25-.58-.45-.85-.61l.45-.69c.29,.17,.59,.36,.9,.57,.28-.43,.53-.88,.77-1.36l.74,.34c-.18,.4-.46,.91-.85,1.53,.27,.21,.53,.42,.79,.66,.41-.62,.78-1.32,1.14-2.1l.72,.33c-.29,.74-.7,1.52-1.21,2.34,.26,.26,.67,.7,1.24,1.33Zm.81,5.91c-.04,.54-.13,1.03-.28,1.44-.15,.42-.37,.7-.66,.85-.29,.15-.84,.22-1.66,.22-1.11,0-1.8-.09-2.08-.26-.28-.17-.42-.53-.42-1.07v-3.94h.92v4.03c0,.2,.11,.32,.33,.36s.58,.06,1.08,.06c.7,0,1.15-.06,1.33-.17,.18-.12,.32-.34,.41-.68,.09-.34,.15-.76,.17-1.27l.86,.41Zm-1.35-.72l-.76,.36c-.48-1.01-.94-1.81-1.39-2.41l.83-.36c.59,.84,1.03,1.64,1.32,2.41Zm3.35,1.96l-.77,.56c-.36-1.15-.89-2.37-1.58-3.66l.74-.54c.7,1.34,1.24,2.55,1.61,3.63Z"/>
      <path class="cls-5" d="M72.72,525.87c-.08,1.54-.55,2.92-1.41,4.14l-.69-.65c.52-.78,.88-1.64,1.08-2.59h-1.68v7.9c0,.23-.1,.48-.29,.73-.19,.26-.68,.38-1.46,.38-.3,0-.58-.02-.83-.05l-.53-.97c.76,.06,1.36,.09,1.79,.09,.09,0,.18-.04,.28-.13,.1-.09,.15-.18,.15-.26v-6.5c-.88,2.2-1.79,3.92-2.74,5.16l-.62-.72c1.06-1.37,2.01-3.25,2.87-5.63h-2.8v-.9h3.99c-.75-.86-1.68-1.67-2.77-2.43l.66-.6c.43,.29,.97,.71,1.63,1.26,.83-.95,1.49-1.85,1.98-2.72h-4.85v-.9h5.88v.9c-.59,1.09-1.36,2.19-2.32,3.31l.62,.69-.56,.48h2.6Zm7.75,4.12c-.04,1.22-.13,2.33-.29,3.31-.16,.98-.32,1.58-.48,1.78s-.36,.38-.61,.53c-.24,.15-1.02,.2-2.32,.16l-.43-.97c.37,.03,.77,.04,1.21,.04,.66,0,1.05-.03,1.18-.1,.13-.06,.22-.16,.3-.29,.07-.13,.15-.52,.25-1.19,.09-.67,.18-1.47,.26-2.4h-3.01c-.5,2.31-2,3.97-4.47,4.96l-.69-.74c.99-.3,1.89-.85,2.69-1.64,.8-.79,1.32-1.65,1.54-2.58h-2.86v-.9h3.08c.09-.47,.14-1.08,.16-1.8l.91,.04c0,.44-.05,1.03-.15,1.77h3.75Zm1.07-2.18l-.52,.81c-1.39-.41-2.68-1.05-3.88-1.92-1.13,.83-2.28,1.46-3.46,1.89l-.63-.77c1.13-.34,2.25-.91,3.35-1.71-.74-.74-1.28-1.41-1.62-2l.79-.45c.41,.71,.92,1.33,1.53,1.87,.82-.7,1.46-1.67,1.91-2.9h-3.86c-.77,.97-1.47,1.71-2.11,2.21l-.7-.64c1.34-1.05,2.47-2.47,3.39-4.24l.9,.34c-.22,.45-.5,.92-.85,1.42h5.48v.9h-1.28c-.47,1.39-1.18,2.55-2.13,3.46,1.11,.78,2.34,1.35,3.68,1.72Z"/>
      <path class="cls-5" d="M98.76,533.26h-7.16l.45,.59c-1.86,.94-3.83,1.62-5.92,2.06l-.47-.85c1.93-.32,3.77-.92,5.5-1.79h-2.8v-6.59h10.39v6.59Zm-7.92-8.3h-5.05v-.91h5.05v.91Zm-.14-3.24h-4.54v-.86h4.54v.86Zm7.12,6.82v-1.03h-8.5v1.03h8.5Zm0,1.92v-1.12h-8.5v1.12h8.5Zm0,1.94v-1.13h-8.5v1.13h8.5Zm3.64-6.87l-.4,.88c-2.31-.34-4.1-1.04-5.39-2.1-1.03,.99-2.41,1.67-4.13,2.05l-.48-.86c2.21-.34,3.74-1.24,4.58-2.7l.99,.18c-.04,.15-.17,.38-.41,.7,1.21,1,2.96,1.61,5.25,1.85Zm-.38-3.3c-.61,.86-1.17,1.54-1.69,2.04l-.69-.65c.46-.47,.9-.98,1.31-1.53h-6.6c-.49,.62-1.04,1.15-1.65,1.62l-.62-.62c1.03-.77,1.9-1.83,2.62-3.17l.88,.31-.57,.99h7.01v1.02Zm.27,12.86l-.43,.83c-1.75-.66-3.5-1.16-5.23-1.51l.45-.81c1.87,.38,3.61,.88,5.21,1.49Z"/>
      <path class="cls-5" d="M121.22,527.46h-13.25v1.78c0,3.06-.62,5.27-1.86,6.64l-.65-.65c.5-.62,.9-1.37,1.17-2.28,.28-.9,.41-1.78,.41-2.62v-3.78h14.18v.9Zm-.45-4.97h-2.76c-.62,.72-1.26,1.3-1.94,1.73,1.54,.4,2.83,.8,3.85,1.2l-.51,.74c-1.38-.54-2.86-1-4.46-1.37-1.81,.77-3.94,1.19-6.4,1.26l-.32-.83c2.32-.17,4.08-.43,5.27-.79-1.41-.32-2.82-.59-4.23-.81l.41-.74c1.87,.29,3.59,.64,5.14,1.03,.75-.39,1.39-.87,1.93-1.42h-10.31v-.88h6.76c-.16-.39-.42-.81-.77-1.25l.85-.38c.42,.57,.74,1.12,.95,1.63h6.53v.88Zm.29,12.87h-12.95v-.86h6.21v-1.7h-4.4v-.88h4.4v-1.58h-3.87c-.41,.56-.88,1.05-1.4,1.49l-.56-.76c.92-.78,1.71-1.81,2.36-3.09l.87,.28c-.23,.48-.46,.88-.67,1.21h3.27v-1.48h.9v1.48h4.96v.86h-4.96v1.58h4.58v.88h-4.58v1.7h5.85v.86Z"/>
      <path class="cls-4" d="M32.71,562.55c.69,0,1.27,.24,1.76,.73,.48,.48,.73,1.07,.73,1.75s-.24,1.26-.73,1.75-1.07,.73-1.76,.73-1.27-.24-1.75-.73-.73-1.07-.73-1.75,.24-1.27,.73-1.75c.49-.48,1.07-.73,1.75-.73Z"/>
      <path class="cls-5" d="M61.77,571.08l-.7,.71c-3.75-2.64-6.16-6.26-7.23-10.87-.76,4.21-3.16,7.82-7.18,10.84l-.65-.77c1.37-.93,2.62-2.1,3.75-3.5,1.13-1.4,2-2.94,2.59-4.63s.91-3.96,.95-6.83h1c-.04,3.32,.63,6.27,1.99,8.83,1.36,2.56,3.19,4.64,5.48,6.23Z"/>
      <path class="cls-5" d="M81.53,566.72h-1.48v2.3h-5.95v1.48c0,.47-.15,.8-.44,.98-.3,.18-.94,.26-1.92,.26-.32,0-.65-.01-1-.04l-.3-.86,2.27-.02c.31,0,.47-.16,.47-.48v-1.32h-6.4v-.81h6.4v-1.49h-7.38v-.86h7.38v-1.34h-6.4v-.86h6.4v-1.34h-5.83v-3.04h5.83v-1.2h-7.25v-.83h7.25v-1.27h.92v1.27h7.21v.83h-7.21v1.2h5.85v3.04h-5.85v1.34h5.95v2.2h1.48v.86Zm-8.35-5.26v-1.34h-4.87v1.34h4.87Zm5.8,0v-1.34h-4.89v1.34h4.89Zm.11,4.39v-1.34h-5v1.34h5Zm0,2.36v-1.49h-5v1.49h5Z"/>
      <path class="cls-5" d="M93.4,558.13h-5.05c-.59,.74-1.25,1.42-1.98,2.03l-.72-.57c1.28-1.04,2.28-2.27,2.99-3.67l.88,.36c-.13,.28-.33,.62-.59,1.05h4.47v.81Zm7.54,6.03h-.91v-2.5h-12.94v2.49h-.92v-3.35h6.8c-.06-.25-.2-.58-.43-.99l.81-.3c.25,.39,.44,.82,.57,1.29h7.02v3.37Zm-1.64,6.84h-10.13v.74h-.94v-8.73h10.55v3.09h-9.61v1.42h10.13v3.47Zm-1.46-5.76v-1.39h-8.67v1.39h8.67Zm.54,4.9v-1.75h-9.21v1.75h9.21Zm-6.85-10.22l-.83,.36c-.22-.43-.55-.93-1.01-1.49l.81-.33c.43,.5,.78,.98,1.03,1.46Zm9.84-1.77h-5.77c-.39,.47-.85,.94-1.37,1.41l-.74-.53c1.3-1.24,2.12-2.27,2.47-3.08l.88,.34c-.15,.3-.35,.64-.6,1.01h5.12v.84Zm-2.63,1.87l-.79,.31c-.41-.78-.72-1.3-.92-1.56l.85-.31c.36,.53,.65,1.05,.86,1.56Z"/>
      <path class="cls-5" d="M110.88,567.51c-1.3,.74-3.01,1.64-5.11,2.7l-.4-.79c1.1-.53,1.94-.96,2.51-1.29v-4.97h-2.1v-.88h2.1v-4.12h-2.39v-.84h5.38v.84h-2.1v4.12h1.88v.88h-1.88v4.48c.62-.3,1.27-.67,1.96-1.1l.13,.98Zm10.36,3.92h-10.39v-.88h4.71v-2.58h-4.02v-.9h4.02v-2.21h-3.87v-8.37h8.73v8.37h-3.94v2.21h4.15v.9h-4.15v2.58h4.76v.88Zm-5.68-11.22v-2.83h-2.96v2.83h2.96Zm0,3.74v-2.87h-2.96v2.87h2.96Zm3.93-3.74v-2.83h-3.01v2.83h3.01Zm0,3.74v-2.87h-3.01v2.87h3.01Z"/>
    </g>
    <polyline class="cls-1" points="350.81 118.94 350.81 123.75 350.81 146.72 625.81 146.72 625.81 391.79"/>
    <polyline class="cls-1" points="74.91 392.79 74.91 147.21 350.81 146.72 350.81 174.5"/>
    <line class="cls-1" x1="352.29" y1="334.69" x2="352.29" y2="372.46"/>
    <polyline class="cls-1" points="258.2 391.85 258.2 373.03 441.48 373.03 441.48 391.85"/>
  </g>
</svg>