<?xml version="1.0" encoding="UTF-8"?>
<svg id="_圖層_2" data-name="圖層 2" xmlns="http://www.w3.org/2000/svg" viewBox="0 0 294 294.16">
  <defs>
    <style>
      .cls-1 {
        fill: #fff;
      }
    </style>
  </defs>
  <g id="_圖層_1-2" data-name="圖層 1">
    <g>
      <path class="cls-1" d="M146.98,294.16c-22.05,0-44.05-5.01-63.93-14.59-21.36-10.3-40.13-25.81-54.26-44.86-13.6-18.34-22.87-39.93-26.78-62.42l1.17-.2c3.88,22.32,13.07,43.73,26.57,61.92,14.02,18.9,32.63,34.28,53.82,44.5,21.19,10.22,44.83,15.19,68.34,14.39,23.51-.8,46.75-7.38,67.2-19.02,20.45-11.64,37.96-28.26,50.66-48.07,12.7-19.8,20.48-42.66,22.52-66.1,2.04-23.44-1.69-47.3-10.78-69-9.09-21.7-23.48-41.1-41.61-56.09-18.13-14.99-39.89-25.48-62.91-30.32C153.96-.55,129.82,.27,107.19,6.68c-21.8,6.17-42.15,17.52-58.84,32.82l-.8-.87c16.84-15.43,37.35-26.87,59.32-33.09,22.82-6.46,47.15-7.29,70.36-2.4,23.21,4.89,45.14,15.46,63.42,30.57,18.28,15.11,32.79,34.66,41.95,56.54,9.16,21.88,12.92,45.93,10.87,69.56-2.06,23.63-9.91,46.68-22.7,66.64-12.8,19.97-30.46,36.72-51.07,48.46-20.62,11.73-44.04,18.36-67.74,19.17-1.65,.06-3.31,.09-4.96,.09Z"/>
      <path class="cls-1" d="M49.86,41.01c-1.1,.98-2.79,.89-3.77-.21-.98-1.1-.89-2.79,.21-3.77,1.1-.98,2.79-.89,3.77,.21,.98,1.1,.89,2.79-.21,3.77Z"/>
      <path class="cls-1" d="M5.29,171.82c-.27-1.45-1.67-2.4-3.12-2.13-1.45,.27-2.4,1.67-2.13,3.12,.27,1.45,1.67,2.4,3.12,2.13,1.45-.27,2.4-1.67,2.13-3.11Z"/>
    </g>
  </g>
</svg>