<?xml version="1.0" encoding="UTF-8"?>
<svg id="_圖層_2" data-name="圖層 2" xmlns="http://www.w3.org/2000/svg" viewBox="0 0 96.4 66.31">
  <defs>
    <style>
      .cls-1 {
        fill: #736357;
      }
    </style>
  </defs>
  <g id="_圖層_1-2" data-name="圖層 1">
    <path class="cls-1" d="M54.35,60.87c-.69,4.9-5.5,6.97-9.47,4.18-.36-.25-.55-.32-.97-.04-3.78,2.5-8.37,.43-9.05-4.08-.11-.74-.3-.97-1.13-.93-3.15,.13-5.71-2.27-5.86-5.42-.03-.6-.24-.7-.76-.65-3.43,.32-6.07-2.48-6.15-5.33-.02-.78-.55-.56-.96-.56-2.98,0-5.12-1.51-5.9-4.29-.52-1.87-.15-3.62,1.08-5.14,.74-.91,1.52-1.79,2.32-2.65,.36-.38,.31-.63-.04-.96-1.66-1.56-3.66-2.44-5.82-3.02-.4-.11-.67,.02-.87,.4-.28,.52-.59,1.01-.92,1.5-.75,1.09-2.03,1.43-3.18,.78-1.84-1.06-3.66-2.14-5.44-3.28-1.33-.85-1.57-2.09-.69-3.56,2.83-4.73,5.68-9.44,8.52-14.15,2.46-4.07,4.93-8.14,7.4-12.21,.95-1.56,2.25-1.87,3.8-.93,1.62,.98,3.24,1.95,4.85,2.94,1.41,.86,1.78,2.05,1,3.47-.28,.52-.14,.71,.29,.98,1.73,1.06,3.62,1.62,5.62,1.73,2.22,.13,4.43-.06,6.63-.32,1.18-.14,2.35-.03,3.44,.45,.43,.19,.68,.16,1.03-.14,1.1-.93,2.27-1.76,3.42-2.62,2.37-1.78,5.05-1.93,7.82-1.56,3.63,.48,7.12,1.71,10.77,2.13,2.83,.33,5.64,.26,8.39-.66,.51-.17,.56-.34,.39-.82-.68-1.89-.27-2.84,1.56-3.64,1.73-.75,3.47-1.49,5.21-2.21,1.53-.63,2.75-.12,3.41,1.43,3.34,7.87,6.67,15.75,10,23.63,.68,1.62,1.37,3.23,2.05,4.85,.65,1.57,.22,2.77-1.31,3.45-1.84,.82-3.7,1.61-5.57,2.36-1.43,.58-2.62,.09-3.27-1.36-.33-.74-.65-.78-1.32-.43-1.24,.64-2.11,1.63-2.79,2.8-1,1.71-2.39,3.01-4.12,3.94-.5,.27-.54,.44-.24,.94,1.28,2.15,1.32,4.37-.15,6.42-1.43,1.99-3.44,2.83-5.9,2.32-.6-.12-.66,.16-.77,.64-.76,3.25-3.01,5.08-6.03,5.02-.71-.02-1.53-.65-2-.24-.39,.35-.29,1.27-.57,1.9-1.2,2.72-4.24,4.03-7.19,3.11-.15-.05-.3-.1-.52-.17Zm-12.63-7.03c.34,.11,.64,.2,.94,.29,3.33,.97,5.09,4.59,3.77,7.78-.42,1.01-.26,1.38,.77,1.76,1.62,.6,3.37,.05,4.21-1.32,.92-1.51,.62-3.28-.75-4.5-1.2-1.06-2.41-2.09-3.61-3.15-.57-.51-.84-1.09-.29-1.79,.45-.57,1.21-.56,1.9,.01,.05,.04,.1,.09,.15,.13,1.81,1.6,3.61,3.2,5.43,4.79,.86,.76,1.81,1.26,3.02,1.05,1.46-.25,2.44-1.08,2.81-2.51,.36-1.38-.07-2.57-1.14-3.51-3.09-2.72-6.17-5.43-9.25-8.15-.75-.66-.85-1.32-.28-1.85,.6-.55,1.23-.47,1.83,.06,1.17,1.04,2.35,2.07,3.53,3.1,2.62,2.3,5.22,4.63,7.87,6.91,2.17,1.86,5.16,.75,5.64-2.05,.26-1.5-.51-2.54-1.57-3.46-3.47-3.02-6.92-6.06-10.38-9.09-.94-.83-1.08-1.41-.51-2.05,.52-.59,1.14-.54,2.02,.23,2.36,2.06,4.71,4.13,7.07,6.2,1.84,1.61,3.65,3.26,5.53,4.83,1.45,1.22,3.58,1.02,4.75-.34,1.23-1.43,1.13-3.37-.26-4.75-.39-.39-.81-.76-1.22-1.13-5.27-4.63-10.53-9.26-15.8-13.89-2.4-2.11-4.79-4.24-7.22-6.31-1.43-1.22-2.8-.9-3.7,.73-.43,.79-.7,1.63-.67,2.52,.11,3.88-1.83,6.62-4.87,8.71-1.9,1.3-4.03,1.81-6.32,1.23-1.29-.33-1.57-1-.94-2.15,.51-.92,.81-1.89,.96-2.94,.31-2.18-.21-4.29-.49-6.4-.49-3.69,.63-6.66,3.51-8.99,.74-.6,1.47-1.22,2.21-1.84-.51-.23-.95-.25-1.39-.23-1.5,.08-2.99,.19-4.49,.27-3.25,.18-6.37-.28-9.19-2.02-.65-.4-.88-.29-1.24,.31-3.74,6.23-7.5,12.45-11.27,18.67-.31,.5-.34,.72,.34,.92,2.11,.62,4.08,1.57,5.68,3.12,.52,.5,.79,.55,1.28-.02,1.61-1.87,3.65-2.55,6.06-1.87,2.46,.69,3.79,2.43,4.16,4.89,.11,.73,.35,.89,1.03,.83,3.74-.32,6.83,3.38,5.9,7-.16,.62,0,.79,.6,.85,1.65,.18,2.95,1,3.88,2.36,1.5,2.2,1.38,4.45,.03,6.75Zm-4.9-21.72c3.4,0,7.06-3.64,7.07-6.92,0-1.52,.21-2.97,.92-4.34,1.63-3.11,4.86-3.75,7.5-1.45,2.88,2.51,5.73,5.04,8.6,7.56,4.53,3.98,9.07,7.95,13.59,11.95,.54,.48,.97,.57,1.62,.21,1.55-.85,2.87-1.92,3.75-3.48,.98-1.73,2.37-3.03,4.2-3.79,.53-.22,.5-.46,.33-.88-3.01-7.1-6.01-14.19-9-21.29-.26-.62-.55-.71-1.18-.5-3.6,1.21-7.27,1.18-10.98,.54-3.22-.56-6.35-1.58-9.6-1.96-2.06-.24-3.99-.04-5.77,1.21-2.71,1.9-5.03,4.26-7.67,6.22-2.93,2.17-3.72,4.96-3.07,8.42,.53,2.81,.96,5.66-.31,8.5Zm57.1-1.02c-.07-.16-.16-.34-.23-.52-1.37-3.23-2.74-6.47-4.1-9.7-2.49-5.9-5-11.8-7.46-17.71-.29-.71-.57-.74-1.2-.45-1.36,.63-2.74,1.21-4.13,1.74-.69,.26-.85,.54-.54,1.27,2.04,4.72,4.03,9.45,6.03,14.18,1.85,4.37,3.69,8.75,5.55,13.12,.14,.34,.16,.9,.84,.6,1.61-.71,3.23-1.37,4.85-2.05,.22-.09,.43-.17,.39-.49Zm-86.21,1.43c.35-.05,.37-.36,.5-.57,1.36-2.22,2.7-4.46,4.05-6.68,3.81-6.3,7.6-12.6,11.43-18.89,.36-.6,.26-.87-.32-1.2-1.36-.77-2.7-1.58-4.02-2.42-.55-.35-.8-.25-1.11,.3-1.35,2.31-2.74,4.58-4.12,6.87-3.75,6.22-7.5,12.44-11.27,18.65-.36,.59-.3,.85,.29,1.18,1.44,.82,2.84,1.72,4.26,2.58,.11,.07,.22,.13,.33,.19Zm15.61,15.64c0,1.39,.82,2.64,2.06,3.15,1.38,.57,2.84,.26,3.9-.92,1.59-1.76,3.16-3.55,4.72-5.35,1.36-1.57,1.29-3.76-.13-4.99-1.49-1.29-3.54-1.13-4.95,.44-1.61,1.79-3.19,3.62-4.78,5.43-.56,.64-.83,1.38-.82,2.23Zm.98-14.85c-.75-.05-1.6,.33-2.25,1.06-1.67,1.87-3.33,3.75-4.96,5.66-1.23,1.44-1.07,3.5,.29,4.74,1.41,1.27,3.5,1.2,4.81-.25,1.68-1.86,3.33-3.75,4.95-5.65,.94-1.09,1.05-2.37,.46-3.65-.58-1.27-1.65-1.87-3.31-1.91Zm16.08,17.49c0-1.76-.79-3.03-2.06-3.51-1.35-.51-2.65-.39-3.69,.7-1.21,1.27-2.37,2.6-3.51,3.94-1.37,1.6-1.22,3.6,.33,4.94,1.39,1.2,3.44,1.02,4.8-.46,1.12-1.23,2.2-2.49,3.29-3.74,.55-.64,.82-1.39,.84-1.87Zm4.11,8.92c.02-1.87-1.49-3.41-3.37-3.46-1.92-.05-3.89,1.97-3.9,3.99,0,1.95,1.43,3.44,3.33,3.45,1.94,.01,3.92-1.99,3.94-3.98Z"/>
  </g>
</svg>