<?xml version="1.0" encoding="UTF-8"?>
<svg id="_圖層_2" data-name="圖層 2" xmlns="http://www.w3.org/2000/svg" viewBox="0 0 162.56 28.15">
  <defs>
    <style>
      .cls-1, .cls-2 {
        fill: #fff;
      }

      .cls-2 {
        fill-rule: evenodd;
      }

      .cls-3 {
        fill: none;
        stroke: #fff;
        stroke-miterlimit: 10;
        stroke-width: .75px;
      }
    </style>
  </defs>
  <g id="_圖層_1-2" data-name="圖層 1">
    <g>
      <g>
        <rect class="cls-3" x=".38" y=".38" width="49.86" height="27.4"/>
        <g>
          <polygon class="cls-2" points="9.85 13.42 7.98 13.42 7.98 3.99 4.26 3.99 4.26 13.42 4.26 16.32 4.26 17.66 9.85 17.66 9.85 19.82 4.26 19.82 4.26 24.16 9.85 24.16 12.54 24.16 13.57 24.16 13.57 3.99 9.85 3.99 9.85 13.42"/>
          <polygon class="cls-2" points="15.03 7.53 15.03 13.04 15.03 15.11 15.03 16.58 15.03 24.16 24.57 24.16 24.57 15.11 19.34 15.11 19.34 13.04 24.57 13.04 24.57 3.99 15.03 3.99 15.03 7.53"/>
          <polygon class="cls-2" points="26.05 7.53 26.05 13.04 26.05 15.11 26.05 16.58 26.05 24.16 35.59 24.16 35.59 15.11 30.35 15.11 30.35 13.04 35.59 13.04 35.59 3.99 26.05 3.99 26.05 7.53"/>
          <polygon class="cls-2" points="46.34 9.88 46.34 3.99 37.4 3.99 37.4 7.8 37.4 9.88 37.4 18.26 37.4 19.98 37.4 24.16 46.34 24.16 46.34 18.26 41.07 18.26 41.07 15.63 46.34 15.63 46.34 12.58 41.07 12.58 41.07 9.88 46.34 9.88"/>
        </g>
      </g>
      <g>
        <path class="cls-1" d="M69.38,10.35c0,3.02-.2,5.72-.6,8.1-.27,1.79-.82,4.02-1.61,6.72l-2.23-1.07c.8-2.33,1.32-4.41,1.61-6.2,.4-2.58,.62-5.08,.62-7.56V3.19h19.93v2.13h-8.72l1.26,.37c.2,.03,.3,.12,.3,.3s-.12,.37-.37,.59c-.15,.3-.32,.55-.49,.77h6.3v9.39h-5.73v5.7c0,.84-.27,1.49-.79,1.88-.45,.42-1.59,.64-3.37,.64l-.87-2.23h1.81c.62,0,.97-.22,1.02-.67v-5.33h-6.03V7.35h5.11c.15-.15,.27-.32,.37-.47,.3-.47,.55-.99,.74-1.56h-8.25v5.03Zm5.28,8.67c.15,.07,.25,.15,.25,.22,0,.15-.07,.3-.2,.4-1.09,1.59-2.25,2.92-3.47,3.97l-2.03-.97c1.51-1.24,2.73-2.73,3.67-4.46l1.78,.84Zm8.58-7.91v-1.74h-9.69v1.74h9.69Zm0,1.83h-9.69v1.76h9.69v-1.76Zm4.26,9.3l-1.93,1.76c-1.88-1.66-3.29-3.27-4.26-4.86l1.74-.97c1.24,1.59,2.73,2.92,4.46,4.07Z"/>
        <path class="cls-1" d="M94.44,11.89h6.49c-.1,2.82-.24,4.93-.47,6.32-.25,1.36-.67,2.3-1.27,2.82-.57,.5-1.66,.84-3.29,1.04l-1.27-2.23,2.01-.32c.87-.15,1.41-.67,1.61-1.59,.17-.82,.27-2.16,.32-4.02h-4.14v1.46c0,1.96-.22,3.69-.67,5.23-.3,1.16-.92,2.6-1.83,4.36l-2.13-1.06c.89-1.44,1.49-2.73,1.81-3.84,.45-1.59,.7-3.15,.7-4.68V6.09h10.18c-.03-1.09-.03-2.26-.03-3.5l2.28,.25c.35,.07,.55,.2,.55,.35,0,.17-.2,.47-.6,.87v2.03h4.73c-.97-.92-1.91-1.66-2.8-2.23l1.36-1.27c1.06,.65,2.11,1.44,3.1,2.33l-1.24,1.17h2.1v2.03h-7.21c.1,3,.3,5.31,.62,6.92,.15,.69,.29,1.34,.49,1.93,.03-.05,.05-.12,.1-.17,.87-1.49,1.69-3.35,2.43-5.58l2.23,.99c.17,.1,.27,.27,.27,.47,0,.15-.22,.32-.67,.47-1.17,2.78-2.23,4.83-3.17,6.2-.07,.1-.15,.17-.2,.25,.2,.42,.39,.79,.62,1.12,.7,1.16,1.29,1.73,1.78,1.73,.15,0,.32-.15,.55-.45,.2-.27,.59-1.41,1.19-3.42l1.83,1.54c-.5,1.64-.97,2.78-1.39,3.52-.62,.94-1.29,1.44-1.98,1.44s-1.39-.37-2.11-1.07c-.72-.67-1.39-1.54-2.03-2.68-.35,.35-.72,.67-1.07,.97-.92,.77-1.98,1.54-3.22,2.28l-1.76-1.74c1.42-.72,2.55-1.46,3.42-2.23,.57-.42,1.09-.92,1.59-1.46-.62-1.59-1.06-3.37-1.34-5.4-.2-1.44-.32-3.32-.4-5.63h-8.11v3.77Z"/>
        <path class="cls-1" d="M136.53,10.65v4.63h-2.13v-2.9h-16.93v2.9h-2.13v-4.63h21.19Zm-17.97-6.86c.22,.05,.35,.12,.35,.27s-.12,.35-.37,.57c-.17,.59-.37,1.11-.62,1.56-.2,.35-.49,.72-.84,1.07l-1.64-.67c.35-.4,.59-.74,.74-1.06,.25-.45,.45-1.12,.6-1.96l1.79,.22Zm3.86-.74c.17,.02,.27,.1,.27,.25,0,.07-.1,.17-.3,.27-.17,1.39-.42,2.45-.74,3.2-.02,.05-.02,.07-.02,.07,.69,.52,1.31,.89,1.81,1.09,.52,.25,1.26,.49,2.25,.69l-1.46,1.74c-.87-.35-1.64-.74-2.3-1.19-.4-.25-.8-.57-1.19-.92-.15,.17-.27,.32-.42,.45-.87,.74-1.98,1.29-3.35,1.66l-1.26-1.66c.99-.17,1.86-.5,2.63-.99,.6-.32,1.09-.79,1.46-1.44,.4-.69,.65-1.88,.77-3.57l1.86,.35Zm10.64,10.41v4.36h-6.27l-.7,1.24h8.6v5.72h-2.13v-.77h-12.96v.77h-2.13v-5.72h6.25l.69-1.24h-5.5v-4.36h14.15Zm-.5,8.8v-1.44h-12.96v1.44h12.96Zm-1.44-7.26h-10.29v1.26h10.29v-1.26Zm-5.38-11.05c.15,.02,.25,.1,.25,.22,0,.15-.15,.3-.4,.47-.32,.92-.72,1.69-1.16,2.33l-1.64-.57c.3-.35,.52-.72,.72-1.14,.25-.52,.47-1.11,.62-1.76l1.61,.45Zm3.4-.05c.2,.05,.32,.12,.32,.27,0,.12-.12,.27-.37,.47-.2,.59-.4,1.11-.64,1.56-.25,.35-.55,.72-.92,1.07l-1.54-.6c.35-.37,.62-.72,.79-1.06,.27-.45,.49-1.09,.64-1.93l1.71,.22Zm3.45-.94c.17,.02,.27,.1,.27,.25,0,.07-.1,.17-.3,.3-.17,1.41-.4,2.48-.67,3.17,.8,.6,1.49,.99,2.06,1.22,.55,.27,1.34,.52,2.38,.74l-1.44,1.74c-.92-.35-1.74-.77-2.48-1.24-.47-.3-.92-.62-1.31-.99-.15,.2-.3,.4-.47,.55-.79,.74-1.83,1.31-3.1,1.69l-1.26-1.66c.89-.17,1.71-.5,2.4-.99,.55-.35,1.02-.84,1.37-1.49,.34-.69,.59-1.88,.69-3.62l1.86,.35Zm3.89,1.17c.15,.02,.24,.1,.24,.25,0,.17-.15,.37-.39,.57-.37,.82-.84,1.54-1.44,2.13l-1.74-.57c.34-.32,.64-.7,.89-1.12,.3-.5,.55-1.07,.74-1.71l1.69,.45Z"/>
        <path class="cls-1" d="M144.84,13.25v7.11c.45,.79,1.09,1.36,1.98,1.66,1.01,.35,2.58,.52,4.71,.52,4.01,0,7.68-.15,11.03-.47l-.87,2.5-10.16,.2c-1.88,0-3.37-.17-4.51-.47-1.19-.32-2.11-.84-2.78-1.59-.3-.27-.52-.59-.72-.94l-2.16,2.33c-.15,.3-.32,.47-.5,.47-.2,0-.32-.12-.39-.35l-1.24-1.78c1.32-.77,2.43-1.54,3.37-2.33v-4.73h-1.83v-2.13h4.07Zm-.47-3.1l-1.36,1.46c-1.14-.92-2.35-1.76-3.67-2.53l1.44-1.44c1.42,.79,2.6,1.61,3.59,2.5Zm.97-4.93l-1.37,1.44c-1.01-.84-2.1-1.61-3.29-2.3l1.46-1.46c1.24,.74,2.3,1.51,3.2,2.33Zm5.8-1.36c.25,.1,.4,.2,.4,.3,0,.07-.07,.17-.2,.3-.17,.05-.47,.57-.92,1.51l-.03,.03h2.58V2.49l2.03,.17c.39,.05,.59,.15,.59,.32,0,.12-.15,.32-.4,.57v2.43h5.23v1.93h-5.23v2.9h6.2v1.96h-15.09v-1.96h6.67v-2.9h-3.67c-.5,.79-1.01,1.54-1.56,2.23l-2.13-1.17c1.47-1.59,2.65-3.52,3.59-5.8l1.93,.67Zm8.92,10.46v7.26h-2.13v-1.07h-8.06v1.07h-2.13v-7.26h12.32Zm-2.13,4.36v-2.53h-8.06v2.53h8.06Z"/>
      </g>
    </g>
  </g>
</svg>