<?xml version="1.0" encoding="UTF-8"?>
<svg id="_圖層_2" data-name="圖層 2" xmlns="http://www.w3.org/2000/svg" viewBox="0 0 63.74 63.74">
  <defs>
    <style>
      .cls-1 {
        fill: #736357;
      }
    </style>
  </defs>
  <g id="_圖層_1-2" data-name="圖層 1">
    <g>
      <path class="cls-1" d="M50.78,2.33c-1.21-1.22-3.33-1.22-4.55,0l-7.08,7.08L8.5,40.06c-.11,.1-.19,.23-.24,.37L.66,61.81c-.13,.36-.04,.77,.24,1.04,.19,.19,.44,.29,.71,.29,.11,0,.23-.02,.33-.06l21.38-7.61s.01-.01,.02-.02c.13-.05,.25-.12,.35-.22l30.2-30.2h0l.09-.09,.35-.35h0l7.08-7.08c.61-.61,.94-1.41,.94-2.27s-.33-1.67-.94-2.27L50.78,2.33ZM22.8,53.3c-7.54-3.97-11-9.5-12.15-11.75-.11-.22-.2-.4-.27-.56L39.85,11.53l12.36,12.36-29.41,29.41Zm-13.45-9.98c1.49,2.61,4.84,7.32,11.18,11.02L3.24,60.5l6.11-17.18ZM60,16.1l-6.38,6.38-12.36-12.36,6.38-6.38c.46-.46,1.27-.46,1.73,0l10.63,10.63c.23,.23,.36,.54,.36,.87s-.13,.63-.36,.86Z"/>
      <path class="cls-1" d="M41.14,16.94c-.39-.39-1.02-.39-1.41,0L15.39,41.28c-.39,.39-.39,1.02,0,1.41,.2,.2,.45,.29,.71,.29s.51-.1,.71-.29l24.34-24.34c.39-.39,.39-1.02,0-1.41Z"/>
      <path class="cls-1" d="M47.21,22.21c-.39-.39-1.02-.39-1.41,0l-24.73,24.73c-.39,.39-.39,1.02,0,1.41,.2,.2,.45,.29,.71,.29s.51-.1,.71-.29l24.73-24.73c.39-.39,.39-1.02,0-1.41Z"/>
      <path class="cls-1" d="M15.15,.89c-1.19-1.19-3.12-1.19-4.3,0L.89,10.85c-1.19,1.19-1.19,3.12,0,4.3l13.27,13.27c.2,.2,.45,.29,.71,.29s.51-.1,.71-.29c.39-.39,.39-1.02,0-1.41l-3.4-3.4,6.32-6.32c.39-.39,.39-1.02,0-1.41s-1.02-.39-1.41,0l-6.32,6.32-3.42-3.42,3.5-3.5c.39-.39,.39-1.02,0-1.41s-1.02-.39-1.41,0l-3.5,3.5-3.64-3.64c-.41-.41-.41-1.08,0-1.49L12.26,2.3c.41-.41,1.08-.41,1.49,0l13.27,13.27c.39,.39,1.02,.39,1.41,0s.39-1.02,0-1.41L15.15,.89Z"/>
      <path class="cls-1" d="M49.58,35.32c-.39-.39-1.02-.39-1.41,0s-.39,1.02,0,1.41l13.27,13.27c.41,.41,.41,1.08,0,1.49l-9.96,9.96c-.41,.41-1.07,.41-1.49,0l-3.26-3.26,6.32-6.32c.39-.39,.39-1.02,0-1.41s-1.02-.39-1.41,0l-6.32,6.32-3.42-3.42,3.5-3.5c.39-.39,.39-1.02,0-1.41s-1.02-.39-1.41,0l-3.5,3.5-3.77-3.77c-.39-.39-1.02-.39-1.41,0s-.39,1.02,0,1.41l13.27,13.27c.59,.59,1.37,.89,2.15,.89s1.56-.3,2.15-.89l9.96-9.96c1.19-1.19,1.19-3.12,0-4.3l-13.27-13.27Z"/>
    </g>
  </g>
</svg>