<?xml version="1.0" encoding="UTF-8"?>
<svg id="_圖層_2" data-name="圖層 2" xmlns="http://www.w3.org/2000/svg" viewBox="0 0 73.82 73.39">
  <defs>
    <style>
      .cls-1 {
        fill: none;
        stroke: #736357;
        stroke-miterlimit: 10;
        stroke-width: 2px;
      }
    </style>
  </defs>
  <g id="_圖層_1-2" data-name="圖層 1">
    <g>
      <path class="cls-1" d="M39.29,55.8c-.18-.83-.14-1.68-.14-2.52,0-2.28,0-4.57,0-6.85,0-1.27-.01-1.31,1.16-1.72,1.46-.51,2.79-1.28,3.87-2.34,2.39-2.33,3.67-5.16,3.57-8.56-.02-.73-.13-1.38-.6-1.94l-.28-.29c-.58,.16-1.03,.52-1.44,.94-1.51,1.52-3.04,3.02-4.53,4.55-.37,.38-.77,.48-1.24,.42-1.42-.2-2.83-.43-4.25-.59-.66-.07-1.2-.42-1.31-1.21-.2-1.49-.43-2.98-.64-4.47-.07-.51,.14-.88,.5-1.23,1.46-1.43,2.89-2.88,4.33-4.32,.27-.27,.63-.51,.7-.87l.31-.79c-.61-.64-1.37-.79-2.23-.81-3.38-.09-6.21,1.11-8.5,3.56-1.5,1.6-2.43,3.49-2.76,5.69-.55,3.7,.48,6.89,3.04,9.58,.33,.35,.43,.7,.43,1.16-.01,3.1-.02,6.2,0,9.3,0,.64-.11,1.23-.37,1.8"/>
      <path class="cls-1" d="M39.33,55.88c2.09,.29,3.93-.53,5.72-1.39,5.19-2.47,8.64-6.52,10.45-11.96,.42-1.27,.61-2.61,.77-3.96,.18-1.48,.1-2.94-.05-4.4-.17-1.64-.6-3.24-1.23-4.75-1.48-3.55-3.72-6.51-6.9-8.74-2.54-1.77-5.3-2.93-8.37-3.39-5.7-.87-10.77,.55-15.28,4.05-3.86,3-6.22,7.01-7.1,11.75-.98,5.27,.1,10.22,3.13,14.7,1.73,2.55,3.94,4.56,6.63,6.06,.43,.24,.86,.47,1.37,.43,.42-.04,.66,.27,.94,.5,.86,.72,1.95,.91,2.96,1.12,1.51,.31,3.05,.51,4.61,.49,.8-.01,1.55-.1,2.23-.52"/>
      <path class="cls-1" d="M62.29,21.77c.18-.4,.49-.71,.79-1.01,1.06-1.06,2.13-2.1,3.17-3.18,.76-.78,.74-1.03,0-1.8-.07-.07-.14-.14-.22-.22-2.74-2.74-5.48-5.48-8.22-8.22-.1-.1-.19-.2-.29-.29-.69-.64-.96-.66-1.65,0-1.1,1.06-2.17,2.16-3.25,3.24-.3,.31-.61,.61-1.07,.82-2.1-1.06-4.25-2.13-6.57-2.78-.67-.19-.89-.68-.88-1.36,.03-1.44,.02-2.88,0-4.33-.02-1.4-.26-1.65-1.65-1.65-3.85-.01-7.69-.01-11.54,0-1.4,0-1.64,.26-1.65,1.65-.02,1.39,0,2.79,0,4.18,0,1.1-.09,1.22-1.15,1.59-.87,.3-1.75,.58-2.59,.95-1.26,.54-2.5,1.15-3.74,1.73-.42-.2-.72-.5-1.03-.8-1.05-1.06-2.1-2.13-3.17-3.17-.78-.76-1.03-.74-1.8,0-.07,.07-.14,.14-.22,.22-2.74,2.74-5.48,5.48-8.22,8.22-.1,.1-.2,.19-.29,.29-.64,.69-.66,.96,0,1.65,1.06,1.1,2.16,2.17,3.24,3.25,.31,.3,.61,.61,.82,1.07-1.06,2.1-2.13,4.25-2.78,6.57-.19,.67-.68,.89-1.36,.88-1.44-.03-2.88-.02-4.33,0-1.4,.02-1.65,.26-1.65,1.65-.01,3.85-.01,7.69,0,11.54,0,1.4,.26,1.64,1.65,1.65,1.39,.02,2.79,0,4.18,0,1.1,0,1.22,.09,1.59,1.15,.3,.87,.58,1.75,.95,2.59,.54,1.26,1.15,2.5,1.73,3.74-.2,.42-.5,.72-.8,1.03-1.06,1.05-2.13,2.1-3.17,3.17-.76,.78-.74,1.03,0,1.8,.07,.07,.14,.14,.22,.22l8.22,8.22c.1,.1,.19,.2,.29,.29,.69,.64,.96,.66,1.65,0,1.1-1.06,2.17-2.16,3.25-3.24,.3-.31,.61-.61,1.07-.82,2.1,1.06,4.25,2.13,6.57,2.78,.67,.19,.89,.68,.88,1.36-.03,1.44-.02,2.88,0,4.33,.02,1.4,.26,1.65,1.65,1.65,3.85,.01,7.69,.01,11.54,0,1.4,0,1.64-.26,1.65-1.65,.02-1.39,0-2.79,0-4.18,0-1.1,.09-1.22,1.15-1.59,.87-.3,1.75-.58,2.59-.95,1.26-.54,2.5-1.15,3.74-1.73,.42,.2,.72,.5,1.03,.8,1.05,1.06,2.1,2.13,3.17,3.17,.78,.76,1.03,.74,1.8,0,.07-.07,.14-.14,.22-.22,2.74-2.74,5.48-5.48,8.22-8.22,.1-.1,.2-.19,.29-.29,.64-.69,.66-.96,0-1.65-1.06-1.1-2.16-2.17-3.24-3.25-.31-.3-.61-.61-.82-1.07,1.06-2.1,2.13-4.25,2.78-6.57,.19-.67,.68-.89,1.36-.88,1.25,.03,2.5-.03,3.75,.02,.93,.04,1.79-.14,2.6-.59l.07-13.63c-.79-.51-1.65-.69-2.6-.66-1.3,.04-2.6,0-3.89,.01-.58,0-1.05-.14-1.23-.79-.15-.54-.4-1.05-.56-1.59-.55-1.77-1.47-3.38-2.24-5.05"/>
    </g>
  </g>
</svg>