<?xml version="1.0" encoding="UTF-8"?>
<svg id="_圖層_2" data-name="圖層 2" xmlns="http://www.w3.org/2000/svg" viewBox="0 0 51.18 74.46">
  <defs>
    <style>
      .cls-1 {
        fill: #736357;
      }
    </style>
  </defs>
  <g id="_圖層_1-2" data-name="圖層 1">
    <g id="_06_Do_done_list_tasks_list" data-name="06, Do, done, list, tasks, list">
      <g>
        <path class="cls-1" d="M12.26,30.96c-.22,0-.44-.08-.6-.25l-2.59-2.59c-.33-.33-.33-.87,0-1.21s.87-.33,1.21,0l1.99,1.99,5.45-5.45c.33-.33,.87-.33,1.21,0,.33,.33,.33,.87,0,1.21l-6.05,6.05c-.17,.17-.38,.25-.6,.25Z"/>
        <path class="cls-1" d="M41.49,30.92h-15.89c-.47,0-.85-.38-.85-.85s.38-.85,.85-.85h15.89c.47,0,.85,.38,.85,.85s-.38,.85-.85,.85Z"/>
        <path class="cls-1" d="M32.93,26.03h-7.33c-.47,0-.85-.38-.85-.85s.38-.85,.85-.85h7.33c.47,0,.85,.38,.85,.85s-.38,.85-.85,.85Z"/>
        <path class="cls-1" d="M12.26,43.18c-.22,0-.44-.08-.6-.25l-2.59-2.59c-.33-.33-.33-.87,0-1.21,.33-.33,.87-.33,1.21,0l1.99,1.99,5.45-5.45c.33-.33,.87-.33,1.21,0,.33,.33,.33,.87,0,1.21l-6.05,6.05c-.17,.17-.38,.25-.6,.25Z"/>
        <path class="cls-1" d="M41.49,43.14h-15.89c-.47,0-.85-.38-.85-.85s.38-.85,.85-.85h15.89c.47,0,.85,.38,.85,.85s-.38,.85-.85,.85Z"/>
        <path class="cls-1" d="M32.93,38.25h-7.33c-.47,0-.85-.38-.85-.85s.38-.85,.85-.85h7.33c.47,0,.85,.38,.85,.85s-.38,.85-.85,.85Z"/>
        <path class="cls-1" d="M12.26,55.41c-.23,0-.44-.09-.6-.25l-2.59-2.59c-.33-.33-.33-.87,0-1.21,.33-.33,.87-.33,1.21,0l1.99,1.99,5.45-5.45c.33-.33,.87-.33,1.21,0,.33,.33,.33,.87,0,1.21l-6.05,6.05c-.16,.16-.38,.25-.6,.25Z"/>
        <path class="cls-1" d="M41.49,55.36h-15.89c-.47,0-.85-.38-.85-.85s.38-.85,.85-.85h15.89c.47,0,.85,.38,.85,.85s-.38,.85-.85,.85Z"/>
        <path class="cls-1" d="M32.93,50.47h-7.33c-.47,0-.85-.38-.85-.85s.38-.85,.85-.85h7.33c.47,0,.85,.38,.85,.85s-.38,.85-.85,.85Z"/>
        <path class="cls-1" d="M12.26,67.63h0c-.23,0-.44-.09-.6-.25l-2.59-2.59c-.33-.33-.33-.87,0-1.21,.33-.33,.87-.33,1.21,0l1.99,1.99,5.45-5.45c.33-.33,.87-.33,1.21,0,.33,.33,.33,.87,0,1.21l-6.05,6.05c-.16,.16-.38,.25-.6,.25Z"/>
        <path class="cls-1" d="M41.49,67.59h-15.89c-.47,0-.85-.38-.85-.85s.38-.85,.85-.85h15.89c.47,0,.85,.38,.85,.85s-.38,.85-.85,.85Z"/>
        <path class="cls-1" d="M32.93,62.7h-7.33c-.47,0-.85-.38-.85-.85s.38-.85,.85-.85h7.33c.47,0,.85,.38,.85,.85s-.38,.85-.85,.85Z"/>
        <path class="cls-1" d="M50.33,74.46H.85c-.47,0-.85-.38-.85-.85V7.07c0-.47,.38-.85,.85-.85H50.33c.47,0,.85,.38,.85,.85V73.6c0,.47-.38,.85-.85,.85Zm-48.62-1.71H49.48V7.92H1.71V72.75Z"/>
        <path class="cls-1" d="M10.76,11.77c-.47,0-.85-.38-.85-.85s.38-.85,.85-.85c2.3,0,4.18-1.87,4.18-4.18S13.06,1.71,10.76,1.71s-4.18,1.87-4.18,4.18c0,.47-.38,.85-.85,.85s-.85-.38-.85-.85C4.88,2.64,7.52,0,10.76,0s5.88,2.64,5.88,5.88-2.64,5.88-5.88,5.88Z"/>
        <path class="cls-1" d="M20.74,11.77c-.47,0-.85-.38-.85-.85s.38-.85,.85-.85c2.3,0,4.18-1.87,4.18-4.18s-1.87-4.18-4.18-4.18-4.18,1.87-4.18,4.18c0,.47-.38,.85-.85,.85s-.85-.38-.85-.85c0-3.24,2.64-5.88,5.88-5.88s5.88,2.64,5.88,5.88-2.64,5.88-5.88,5.88Z"/>
        <path class="cls-1" d="M30.72,11.77c-.47,0-.85-.38-.85-.85s.38-.85,.85-.85c2.3,0,4.18-1.87,4.18-4.18s-1.87-4.18-4.18-4.18-4.18,1.87-4.18,4.18c0,.47-.38,.85-.85,.85s-.85-.38-.85-.85C24.84,2.64,27.48,0,30.73,0s5.88,2.64,5.88,5.88-2.64,5.88-5.88,5.88Z"/>
        <path class="cls-1" d="M40.71,11.77c-.47,0-.85-.38-.85-.85s.38-.85,.85-.85c2.3,0,4.18-1.87,4.18-4.18s-1.87-4.18-4.18-4.18-4.18,1.87-4.18,4.18c0,.47-.38,.85-.85,.85s-.85-.38-.85-.85C34.82,2.64,37.46,0,40.71,0s5.88,2.64,5.88,5.88-2.64,5.88-5.88,5.88Z"/>
      </g>
    </g>
  </g>
</svg>