<?xml version="1.0" encoding="UTF-8"?>
<svg id="_圖層_2" data-name="圖層 2" xmlns="http://www.w3.org/2000/svg" viewBox="0 0 50.61 28.15">
  <defs>
    <style>
      .cls-1 {
        fill: #fff;
        fill-rule: evenodd;
      }

      .cls-2 {
        fill: none;
        stroke: #fff;
        stroke-miterlimit: 10;
        stroke-width: .75px;
      }
    </style>
  </defs>
  <g id="_圖層_1-2" data-name="圖層 1">
    <g>
      <rect class="cls-2" x=".38" y=".38" width="49.86" height="27.4"/>
      <g>
        <polygon class="cls-1" points="9.85 13.42 7.98 13.42 7.98 3.99 4.26 3.99 4.26 13.42 4.26 16.32 4.26 17.66 9.85 17.66 9.85 19.82 4.26 19.82 4.26 24.16 9.85 24.16 12.54 24.16 13.57 24.16 13.57 3.99 9.85 3.99 9.85 13.42"/>
        <polygon class="cls-1" points="15.03 7.53 15.03 13.04 15.03 15.11 15.03 16.58 15.03 24.16 24.57 24.16 24.57 15.11 19.34 15.11 19.34 13.04 24.57 13.04 24.57 3.99 15.03 3.99 15.03 7.53"/>
        <polygon class="cls-1" points="26.05 7.53 26.05 13.04 26.05 15.11 26.05 16.58 26.05 24.16 35.59 24.16 35.59 15.11 30.35 15.11 30.35 13.04 35.59 13.04 35.59 3.99 26.05 3.99 26.05 7.53"/>
        <polygon class="cls-1" points="46.34 9.88 46.34 3.99 37.4 3.99 37.4 7.8 37.4 9.88 37.4 18.26 37.4 19.98 37.4 24.16 46.34 24.16 46.34 18.26 41.07 18.26 41.07 15.63 46.34 15.63 46.34 12.58 41.07 12.58 41.07 9.88 46.34 9.88"/>
      </g>
    </g>
  </g>
</svg>